{"glyphs":{"0":{"ha":800,"x_min":78,"x_max":772,"o":"m 78 265 q 95 456 78 360 q 148 639 113 553 q 235 793 183 725 q 358 900 288 861 q 515 939 428 939 q 709 867 646 939 q 772 657 772 796 q 755 466 772 563 q 702 283 738 369 q 615 129 667 197 q 492 22 563 61 q 335 -17 422 -17 q 142 56 206 -17 q 78 265 78 128 m 649 663 q 613 788 649 747 q 507 829 578 829 q 398 793 447 829 q 312 697 349 757 q 251 562 275 636 q 214 409 226 488 q 201 261 201 331 q 237 135 201 176 q 344 93 272 93 q 453 129 404 93 q 538 226 501 165 q 599 361 575 286 q 636 514 624 436 q 649 663 649 592 z "},"1":{"ha":800,"x_min":283,"x_max":672,"o":"m 307 853 l 576 924 l 672 924 l 475 0 l 356 0 l 526 801 l 283 738 l 307 853 z "},"2":{"ha":800,"x_min":29,"x_max":754,"o":"m 240 799 l 249 908 q 353 930 289 921 q 479 939 417 939 q 622 918 560 939 q 719 854 683 897 q 754 742 754 811 q 744 659 754 700 q 704 571 735 618 q 615 460 674 524 q 460 311 557 397 q 219 107 364 225 l 635 107 l 614 0 l 29 0 l 50 101 q 281 296 185 213 q 440 440 376 379 q 540 545 503 501 q 596 621 578 589 q 619 678 614 653 q 625 728 625 703 q 581 806 625 783 q 460 829 538 829 q 343 819 404 829 q 240 799 282 810 z "},"3":{"ha":800,"x_min":28,"x_max":792,"o":"m 242 924 l 792 924 l 771 825 l 456 535 q 622 483 560 531 q 685 325 685 436 q 635 139 685 215 q 494 23 585 63 q 283 -17 404 -17 q 144 -8 207 -17 q 28 15 81 1 l 61 124 q 173 101 118 110 q 290 93 228 93 q 427 117 367 93 q 522 191 488 140 q 557 319 557 242 q 533 388 557 363 q 466 424 508 414 q 367 435 424 435 l 281 435 l 297 529 l 607 817 l 219 817 l 242 924 z "},"4":{"ha":800,"x_min":19,"x_max":757,"o":"m 599 924 l 757 924 l 628 315 l 746 315 l 719 208 l 603 208 l 561 0 l 443 0 l 486 208 l 19 208 l 42 304 l 599 924 m 179 297 l 115 315 l 510 315 l 622 843 l 650 819 l 179 297 z "},"5":{"ha":800,"x_min":42,"x_max":771,"o":"m 771 924 l 749 817 l 371 817 l 293 546 q 340 553 308 549 q 403 558 372 558 q 555 537 493 558 q 649 466 617 515 q 681 336 681 417 q 636 149 681 228 q 505 26 592 69 q 290 -17 418 -17 q 157 -8 218 -17 q 42 15 96 0 l 74 122 q 185 101 132 108 q 296 93 238 93 q 485 153 417 93 q 554 321 554 213 q 533 400 554 372 q 471 438 511 428 q 374 449 431 449 q 318 447 350 449 q 250 440 286 444 q 178 428 214 435 l 158 454 l 292 924 l 771 924 z "},"6":{"ha":800,"x_min":92,"x_max":799,"o":"m 207 407 l 231 517 q 343 554 283 538 q 467 571 403 571 q 649 517 586 571 q 711 360 711 463 q 668 167 711 251 q 547 33 625 82 q 363 -17 468 -17 q 160 55 228 -17 q 92 274 92 126 q 109 466 92 371 q 163 647 126 561 q 257 798 199 732 q 397 901 315 864 q 586 939 479 939 q 658 936 619 939 q 733 928 696 933 q 799 915 769 922 l 763 807 q 672 824 719 818 q 583 829 625 829 q 408 780 479 829 q 292 649 336 731 q 229 469 249 568 q 210 272 210 371 q 247 140 210 185 q 372 96 283 96 q 485 127 436 96 q 562 213 533 158 q 590 339 590 268 q 553 430 590 399 q 442 461 517 461 q 326 446 386 461 q 207 407 265 431 z "},"7":{"ha":800,"x_min":119,"x_max":824,"o":"m 221 924 l 824 924 l 806 829 l 258 0 l 119 0 l 661 815 l 197 815 l 221 924 z "},"8":{"ha":800,"x_min":49,"x_max":778,"o":"m 419 431 q 238 369 301 431 q 174 208 174 307 q 344 88 174 88 q 526 147 463 88 q 590 306 590 207 q 419 431 590 431 m 589 475 q 680 413 649 457 q 711 303 711 368 q 667 135 711 207 q 538 23 622 63 q 333 -17 454 -17 q 122 38 194 -17 q 49 193 49 93 q 76 325 49 267 q 154 424 104 383 q 271 483 204 464 q 198 540 224 500 q 172 636 172 579 q 262 858 172 776 q 517 939 351 939 q 710 888 643 939 q 778 746 778 838 q 726 574 778 647 q 589 475 674 501 m 507 838 q 349 785 406 838 q 292 640 292 732 q 439 526 292 526 q 597 584 539 526 q 654 731 654 642 q 507 838 654 838 z "},"9":{"ha":800,"x_min":49,"x_max":756,"o":"m 640 515 l 617 406 q 505 368 565 385 q 381 351 444 351 q 199 406 263 351 q 136 563 136 460 q 179 756 136 671 q 301 890 222 842 q 485 939 379 939 q 688 867 619 939 q 756 649 756 796 q 738 456 756 551 q 685 276 721 361 q 590 124 649 190 q 450 21 532 58 q 261 -17 368 -17 q 190 -14 228 -17 q 115 -6 151 -11 q 49 7 78 0 l 85 115 q 175 99 128 106 q 264 93 222 93 q 440 142 368 93 q 555 273 511 192 q 618 453 599 354 q 638 650 638 551 q 601 782 638 738 q 475 826 564 826 q 363 795 413 826 q 285 709 314 764 q 257 583 257 654 q 294 492 257 524 q 406 461 331 461 q 522 476 461 461 q 640 515 582 492 z "},"\u0000":{"ha":0,"x_min":0,"x_max":0,"o":""},"\r":{"ha":356,"x_min":0,"x_max":0,"o":""}," ":{"ha":328,"x_min":0,"x_max":0,"o":""}," ":{"ha":328,"x_min":0,"x_max":0,"o":""},"A":{"ha":885,"x_min":33,"x_max":850,"o":"m 231 342 l 157 0 l 33 0 l 161 600 q 233 785 185 710 q 360 899 281 860 q 554 939 440 939 q 707 915 646 939 q 802 845 768 890 q 843 738 836 800 q 833 597 850 675 l 706 0 l 579 0 l 653 342 l 231 342 m 253 447 l 675 447 l 708 607 q 697 771 732 713 q 547 829 661 829 q 288 607 335 829 l 253 447 z "},"B":{"ha":831,"x_min":50,"x_max":804,"o":"m 260 415 l 194 104 q 272 92 231 96 q 360 88 313 88 q 502 113 447 88 q 582 184 557 138 q 607 292 607 231 q 565 383 607 351 q 438 415 524 415 l 260 415 m 347 822 l 281 515 l 457 515 q 614 566 554 515 q 674 718 674 617 q 635 797 674 771 q 518 822 597 822 l 347 822 m 244 924 l 532 924 q 732 877 661 924 q 803 732 803 831 q 749 559 804 625 q 606 467 693 493 q 704 409 665 453 q 743 293 743 365 q 715 162 743 219 q 637 65 688 104 q 515 4 586 25 q 356 -17 443 -17 q 210 -8 288 -17 q 50 21 132 1 l 244 924 z "},"C":{"ha":749,"x_min":85,"x_max":803,"o":"m 803 915 l 774 804 q 686 822 731 815 q 588 829 642 829 q 425 786 494 829 q 308 668 356 743 q 238 497 261 593 q 214 297 214 401 q 262 144 214 194 q 417 94 310 94 q 527 103 474 94 q 628 122 581 113 l 617 15 q 513 -8 569 1 q 396 -17 457 -17 q 165 63 244 -17 q 85 296 85 143 q 116 538 85 422 q 210 744 147 654 q 369 887 274 835 q 592 939 464 939 q 707 932 656 939 q 803 915 758 925 z "},"D":{"ha":896,"x_min":50,"x_max":860,"o":"m 244 924 l 522 924 q 771 844 682 924 q 860 610 860 765 q 842 435 860 524 q 787 265 825 346 q 689 121 749 185 q 546 20 629 57 q 351 -17 463 -17 q 206 -8 283 -17 q 50 19 129 1 l 244 924 m 349 817 l 194 110 q 273 97 229 101 q 361 93 317 93 q 530 140 460 93 q 644 263 600 186 q 710 430 689 339 q 731 610 731 521 q 675 769 731 722 q 508 817 619 817 l 349 817 z "},"E":{"ha":708,"x_min":71,"x_max":758,"o":"m 236 924 l 758 924 l 735 817 l 339 817 l 278 529 l 638 529 l 614 421 l 256 421 l 211 214 q 225 133 199 158 q 311 107 251 107 l 603 107 l 581 0 l 289 0 q 160 23 211 0 q 90 94 110 46 q 86 215 71 142 l 236 924 z "},"F":{"ha":693,"x_min":47,"x_max":769,"o":"m 243 924 l 769 924 l 749 817 l 347 817 l 281 517 l 635 517 l 614 410 l 260 410 l 172 0 l 47 0 l 243 924 z "},"G":{"ha":858,"x_min":85,"x_max":867,"o":"m 867 914 l 840 806 q 738 823 796 817 q 618 829 679 829 q 435 786 511 829 q 310 670 358 743 q 238 504 261 597 q 215 311 215 411 q 267 143 215 193 q 431 93 319 93 q 517 98 475 93 q 599 113 560 103 l 660 397 l 460 397 l 481 501 l 801 501 l 700 29 q 569 -3 642 11 q 424 -17 497 -17 q 240 17 317 -17 q 124 124 164 51 q 85 310 85 196 q 119 551 85 438 q 220 751 153 664 q 388 889 288 839 q 619 939 488 939 q 750 933 689 939 q 867 914 811 926 z "},"H":{"ha":953,"x_min":47,"x_max":954,"o":"m 243 924 l 368 924 l 285 531 l 746 531 l 829 924 l 954 924 l 758 0 l 633 0 l 722 419 l 263 419 l 172 0 l 47 0 l 243 924 z "},"I":{"ha":363,"x_min":44,"x_max":367,"o":"m 242 924 l 367 924 l 171 0 l 44 0 l 242 924 z "},"J":{"ha":365,"x_min":-175,"x_max":368,"o":"m 243 924 l 368 924 l 194 101 q 160 -5 182 42 q 103 -94 139 -51 q 13 -178 68 -136 q -121 -272 -42 -221 l -175 -185 q -34 -76 -83 -122 q 38 16 15 -29 q 72 119 61 61 l 243 924 z "},"K":{"ha":843,"x_min":43,"x_max":917,"o":"m 239 924 l 365 924 l 263 440 l 769 924 l 917 924 l 496 524 q 583 481 549 508 q 639 402 617 453 q 676 267 661 351 l 722 0 l 593 0 l 553 232 q 523 348 540 306 q 476 410 506 390 q 397 438 446 431 l 229 283 l 168 0 l 43 0 l 239 924 z "},"L":{"ha":671,"x_min":47,"x_max":579,"o":"m 244 924 l 369 924 l 196 107 l 579 107 l 557 0 l 47 0 l 244 924 z "},"M":{"ha":1131,"x_min":43,"x_max":1136,"o":"m 597 282 l 506 282 l 324 726 l 168 0 l 43 0 l 239 924 l 364 924 l 571 414 l 1001 924 l 1136 924 l 940 0 l 814 0 l 969 726 l 597 282 z "},"N":{"ha":954,"x_min":47,"x_max":957,"o":"m 244 924 l 342 924 l 713 349 l 833 924 l 957 924 l 761 0 l 638 0 l 679 197 l 326 743 l 169 0 l 47 0 l 244 924 z "},"O":{"ha":926,"x_min":90,"x_max":888,"o":"m 579 939 q 808 861 728 939 q 888 618 888 783 q 856 385 888 499 q 763 181 825 272 q 610 37 701 90 q 399 -17 519 -17 q 171 62 251 -17 q 90 306 90 140 q 122 538 90 425 q 215 741 153 650 q 367 885 276 832 q 579 939 458 939 m 408 93 q 555 138 490 93 q 665 259 619 183 q 733 428 710 335 q 757 615 757 521 q 710 781 757 732 q 571 829 664 829 q 424 784 489 829 q 313 663 358 739 q 244 495 268 588 q 221 308 221 403 q 268 142 221 192 q 408 93 315 93 z "},"P":{"ha":799,"x_min":46,"x_max":808,"o":"m 347 817 l 268 453 q 346 442 307 446 q 424 439 385 439 q 541 457 493 439 q 619 507 589 475 q 665 582 650 539 q 681 674 679 625 q 661 761 682 731 q 599 804 640 792 q 499 817 558 817 l 347 817 m 243 924 l 513 924 q 672 901 606 924 q 773 824 738 878 q 807 678 808 771 q 763 500 806 579 q 633 376 719 421 q 418 331 547 331 q 333 335 376 331 q 244 346 290 339 l 171 0 l 46 0 l 243 924 z "},"Q":{"ha":926,"x_min":90,"x_max":888,"o":"m 281 -181 l 301 -85 q 408 -103 350 -85 q 526 -139 467 -121 q 631 -157 585 -157 q 694 -145 667 -157 q 749 -111 722 -133 l 782 -197 q 706 -243 747 -228 q 614 -258 665 -258 q 529 -247 574 -258 q 440 -219 485 -235 q 353 -192 394 -204 q 281 -181 313 -181 m 579 939 q 808 861 728 939 q 888 618 888 783 q 856 385 888 499 q 763 181 825 272 q 610 37 701 90 q 399 -17 519 -17 q 171 62 251 -17 q 90 306 90 140 q 122 538 90 425 q 215 741 153 650 q 367 885 276 832 q 579 939 458 939 m 408 93 q 555 138 490 93 q 665 259 619 183 q 733 428 710 335 q 757 615 757 521 q 710 781 757 732 q 571 829 664 829 q 424 784 489 829 q 313 663 358 739 q 244 495 268 588 q 221 308 221 403 q 268 142 221 192 q 408 93 315 93 z "},"R":{"ha":829,"x_min":47,"x_max":810,"o":"m 243 924 l 522 924 q 737 869 664 924 q 810 700 810 815 q 779 564 810 625 q 695 462 749 503 q 572 406 642 421 q 634 351 611 392 q 668 228 657 310 l 703 0 l 576 0 l 547 200 q 522 301 538 267 q 477 349 506 336 q 400 363 449 363 l 249 363 l 172 0 l 47 0 l 243 924 m 685 690 q 641 787 685 757 q 510 817 597 817 l 344 817 l 271 469 l 428 469 q 569 498 513 469 q 656 576 626 526 q 685 690 685 626 z "},"S":{"ha":701,"x_min":14,"x_max":718,"o":"m 718 914 l 686 813 q 594 828 643 822 q 494 835 544 835 q 331 797 385 835 q 278 700 278 760 q 302 624 278 658 q 365 560 326 590 q 448 500 404 531 q 531 434 492 469 q 594 353 569 399 q 618 246 618 307 q 578 99 618 157 q 465 12 539 40 q 286 -17 390 -17 q 138 -3 206 -17 q 14 31 71 11 l 46 133 q 161 101 103 114 q 289 89 219 89 q 443 128 396 89 q 490 233 490 167 q 466 313 490 278 q 403 380 442 349 q 320 442 364 411 q 238 510 276 474 q 174 590 199 546 q 150 693 150 635 q 192 826 150 771 q 310 910 233 881 q 494 939 388 939 q 612 932 554 939 q 718 914 669 925 z "},"T":{"ha":794,"x_min":140,"x_max":878,"o":"m 164 924 l 878 924 l 854 817 l 563 817 l 389 0 l 263 0 l 436 817 l 140 817 l 164 924 z "},"U":{"ha":907,"x_min":88,"x_max":911,"o":"m 228 924 l 354 924 l 228 326 q 222 203 213 257 q 276 121 232 150 q 408 92 321 92 q 522 100 469 92 q 615 122 575 108 l 786 924 l 911 924 l 724 39 q 565 -2 643 13 q 396 -17 486 -17 q 228 10 293 -17 q 131 84 164 36 q 93 195 99 132 q 103 333 88 258 l 228 924 z "},"V":{"ha":876,"x_min":161,"x_max":950,"o":"m 432 0 l 301 0 l 161 924 l 286 924 l 399 138 q 629 501 517 307 q 826 924 742 694 l 950 924 q 803 592 886 749 q 626 288 721 435 q 432 0 532 142 z "},"W":{"ha":1226,"x_min":171,"x_max":1289,"o":"m 314 0 l 189 0 l 171 924 l 294 924 l 297 160 l 639 739 l 749 739 l 844 153 q 1020 515 939 325 q 1171 924 1101 704 l 1289 924 q 1201 672 1246 790 q 1106 442 1156 553 q 1001 222 1057 331 q 878 0 944 114 l 760 0 l 669 603 l 314 0 z "},"X":{"ha":839,"x_min":-33,"x_max":913,"o":"m 318 924 l 478 539 l 506 506 l 718 0 l 589 0 l 418 411 l 390 442 l 189 924 l 318 924 m 382 481 l 439 392 l 104 0 l -33 0 l 382 481 m 513 465 l 454 551 l 774 924 l 913 924 l 513 465 z "},"Y":{"ha":813,"x_min":157,"x_max":892,"o":"m 268 0 l 338 329 l 157 924 l 282 924 l 425 439 q 518 534 469 479 q 613 654 567 589 q 699 788 660 719 q 761 924 738 857 l 892 924 q 777 703 844 813 q 630 499 710 594 q 464 332 550 404 l 393 0 l 268 0 z "},"Z":{"ha":782,"x_min":-19,"x_max":839,"o":"m 193 924 l 839 924 l 817 825 l 161 108 l 678 108 l 654 0 l -19 0 l 0 100 l 657 817 l 169 817 l 193 924 z "},"Æ":{"ha":1239,"x_min":33,"x_max":1290,"o":"m 776 924 l 1290 924 l 1268 817 l 874 817 l 810 528 l 1168 528 l 1146 419 l 788 419 l 743 214 q 758 132 731 157 q 842 107 785 107 l 1133 107 l 1111 0 l 828 0 q 697 22 750 0 q 623 91 644 44 q 617 211 601 138 l 663 419 l 246 419 l 156 0 l 33 0 l 163 608 q 288 856 197 772 q 539 939 378 939 q 683 910 626 939 q 756 825 739 882 l 776 924 m 268 528 l 685 528 l 701 607 q 687 774 725 718 q 542 829 649 829 q 372 774 436 829 q 285 607 308 718 l 268 528 z "},"Œ":{"ha":1292,"x_min":83,"x_max":1342,"o":"m 567 939 q 769 861 699 939 q 840 618 840 783 q 811 385 840 499 q 724 182 782 272 q 582 38 667 92 q 386 -15 497 -15 q 163 63 242 -15 q 83 306 83 142 q 115 538 83 425 q 206 742 146 651 q 358 885 267 832 q 567 939 449 939 m 394 93 q 539 138 475 93 q 647 259 603 183 q 715 428 692 335 q 739 615 739 521 q 694 780 739 731 q 558 829 649 829 q 414 784 478 829 q 305 663 350 739 q 237 495 260 588 q 214 308 214 403 q 260 142 214 192 q 394 93 306 93 m 833 924 l 1342 924 l 1319 817 l 924 817 l 863 529 l 1221 529 l 1200 421 l 842 421 l 796 214 q 811 132 783 157 q 894 107 839 107 l 1186 107 l 1164 0 l 868 0 q 790 11 826 0 q 728 45 754 22 q 692 103 703 68 q 690 188 682 139 l 833 924 z "},"Ł":{"ha":713,"x_min":36,"x_max":621,"o":"m 288 924 l 413 924 l 326 519 l 601 625 l 578 514 l 303 408 l 238 107 l 621 107 l 599 0 l 90 0 l 168 363 l 36 311 l 60 422 l 192 474 l 288 924 z "},"Ø":{"ha":914,"x_min":4,"x_max":957,"o":"m 957 950 l 79 -87 l 4 -32 l 883 1007 l 957 950 m 572 939 q 801 861 721 939 q 881 618 881 783 q 849 385 881 499 q 756 182 818 272 q 603 38 694 92 q 392 -15 513 -15 q 164 63 244 -15 q 83 306 83 142 q 115 538 83 425 q 208 742 146 651 q 360 885 269 832 q 572 939 451 939 m 400 90 q 549 136 483 90 q 660 258 614 182 q 729 426 706 333 q 753 615 753 519 q 706 783 753 733 q 564 832 658 832 q 416 786 481 832 q 306 665 351 740 q 236 496 260 589 q 213 308 213 403 q 260 140 213 190 q 400 90 307 90 z "},"Ð":{"ha":928,"x_min":60,"x_max":894,"o":"m 60 425 l 82 526 l 547 526 l 526 425 l 60 425 m 279 924 l 557 924 q 806 844 717 924 q 894 608 894 765 q 877 434 894 522 q 822 265 860 346 q 724 122 783 185 q 581 22 665 58 q 388 -15 497 -15 q 242 -7 319 -15 q 83 19 164 1 l 279 924 m 382 817 l 228 110 q 306 97 263 101 q 394 93 350 93 q 564 140 493 93 q 679 263 635 186 q 745 430 724 339 q 767 610 767 521 q 710 769 767 722 q 543 817 654 817 l 382 817 z "},"Þ":{"ha":789,"x_min":46,"x_max":775,"o":"m 313 658 l 233 294 q 312 284 272 288 q 390 281 351 281 q 508 299 460 281 q 588 349 557 317 q 633 424 618 382 q 647 515 647 467 q 628 603 649 572 q 566 647 607 635 q 465 658 525 658 l 313 658 m 244 924 l 367 924 l 332 765 l 479 765 q 638 742 572 765 q 740 666 704 719 q 774 519 775 613 q 729 342 772 421 q 600 218 686 264 q 385 172 514 172 q 300 176 343 172 q 211 188 257 179 l 171 0 l 46 0 l 244 924 z "},"a":{"ha":815,"x_min":54,"x_max":744,"o":"m 290 -17 q 169 10 222 -17 q 85 94 115 38 q 54 242 54 151 q 102 481 54 375 q 240 649 150 588 q 456 711 329 711 q 585 697 519 711 q 713 660 650 683 l 611 185 q 606 142 606 161 q 622 97 606 110 q 665 83 638 83 q 703 87 683 83 q 744 99 724 90 l 729 4 q 678 -11 703 -6 q 628 -17 653 -17 q 548 3 581 -17 q 504 64 515 22 q 414 8 468 33 q 290 -17 360 -17 m 579 589 q 515 606 549 600 q 444 611 481 611 q 300 561 361 611 q 206 428 239 511 q 172 244 172 346 q 210 122 172 161 q 311 83 247 83 q 403 101 358 83 q 486 150 447 119 l 579 589 z "},"b":{"ha":751,"x_min":35,"x_max":692,"o":"m 243 1014 l 360 1014 l 285 660 q 362 695 317 679 q 460 711 407 711 q 580 684 528 711 q 662 601 632 657 q 692 456 692 544 q 644 214 692 321 q 508 45 596 107 q 297 -17 419 -17 q 165 -3 232 -17 q 35 33 97 11 l 243 1014 m 168 108 q 233 90 199 97 q 303 83 268 83 q 448 133 388 83 q 542 267 508 183 q 575 451 575 351 q 538 573 575 535 q 435 611 500 611 q 344 594 388 611 q 260 546 300 576 l 168 108 z "},"c":{"ha":600,"x_min":54,"x_max":628,"o":"m 628 689 l 596 597 q 526 611 561 607 q 453 615 490 615 q 329 585 382 615 q 241 503 276 556 q 188 385 206 451 q 171 243 171 318 q 210 118 171 158 q 343 78 250 78 q 416 84 376 78 q 497 100 456 90 l 488 6 q 404 -10 444 -4 q 324 -17 364 -17 q 122 47 189 -17 q 54 240 54 110 q 81 423 54 338 q 158 573 107 508 q 283 674 208 638 q 453 711 357 711 q 544 706 499 711 q 628 689 589 701 z "},"d":{"ha":817,"x_min":56,"x_max":789,"o":"m 292 -17 q 170 10 224 -17 q 86 94 117 38 q 56 242 56 151 q 103 481 56 375 q 240 649 150 588 q 454 711 329 711 q 527 706 490 711 q 600 689 564 700 l 669 1014 l 789 1014 l 613 185 q 607 142 607 161 q 623 97 607 110 q 667 83 639 83 q 706 87 685 83 q 746 99 726 90 l 731 4 q 680 -11 706 -6 q 629 -17 654 -17 q 550 3 582 -17 q 507 64 518 22 q 415 8 469 33 q 292 -17 361 -17 m 581 589 q 516 606 550 600 q 446 611 482 611 q 301 561 363 611 q 207 428 240 511 q 174 244 174 346 q 210 122 174 161 q 314 83 247 83 q 404 101 360 83 q 488 150 449 119 l 581 589 z "},"e":{"ha":692,"x_min":53,"x_max":657,"o":"m 168 310 l 181 400 q 231 394 203 397 q 288 390 258 392 q 343 389 318 389 q 485 422 436 389 q 533 519 533 456 q 501 592 533 568 q 415 615 468 615 q 289 572 344 615 q 201 446 233 529 q 169 243 169 363 q 211 128 169 171 q 354 86 253 86 q 461 96 406 86 q 556 115 517 106 l 544 14 q 447 -6 499 4 q 335 -17 396 -17 q 184 12 247 -17 q 87 99 121 40 q 53 243 53 157 q 77 427 53 342 q 149 576 101 513 q 266 676 197 640 q 424 711 335 711 q 595 661 533 711 q 657 528 657 611 q 618 396 657 447 q 510 321 579 344 q 346 297 440 297 q 253 301 303 297 q 168 310 203 306 z "},"f":{"ha":486,"x_min":-131,"x_max":636,"o":"m 96 696 l 201 696 l 219 785 q 322 969 247 915 q 511 1022 397 1022 q 575 1019 543 1022 q 636 1011 607 1017 l 607 919 q 511 928 556 928 q 401 898 447 928 q 338 785 356 868 l 318 696 l 532 696 l 514 601 l 300 601 l 188 75 q 157 -30 175 17 q 110 -115 139 -76 q 34 -192 81 -154 q -82 -274 -12 -231 l -131 -199 q -47 -134 -81 -165 q 10 -70 -12 -103 q 46 1 32 -37 q 69 85 60 39 l 181 601 l 75 601 l 96 696 z "},"g":{"ha":747,"x_min":3,"x_max":714,"o":"m 292 -10 q 171 17 224 -10 q 88 100 118 44 q 57 240 57 156 q 105 483 57 376 q 242 650 153 589 q 453 711 331 711 q 585 698 518 711 q 714 663 653 685 l 571 -15 q 509 -167 551 -110 q 398 -251 467 -225 q 229 -276 329 -276 q 107 -266 165 -276 q 3 -240 49 -256 l 33 -147 q 129 -172 75 -161 q 239 -182 183 -182 q 385 -143 335 -182 q 451 -29 435 -104 l 469 49 l 474 44 q 394 6 440 22 q 292 -10 347 -10 m 582 588 q 517 605 551 599 q 446 611 482 611 q 301 561 363 611 q 208 428 240 511 q 175 244 175 346 q 213 126 175 164 q 317 89 251 89 q 407 108 363 89 q 490 157 451 126 l 582 588 z "},"h":{"ha":757,"x_min":28,"x_max":707,"o":"m 146 0 l 28 0 l 243 1014 l 360 1014 l 292 688 q 378 705 333 699 q 463 711 422 711 q 598 687 540 711 q 681 608 656 663 q 688 458 707 553 l 590 0 l 472 0 l 568 456 q 567 550 582 515 q 518 599 553 585 q 435 614 483 614 q 351 607 394 614 q 271 589 307 600 l 146 0 z "},"i":{"ha":382,"x_min":42,"x_max":357,"o":"m 175 696 l 293 696 l 182 178 q 185 106 172 128 q 235 83 197 83 q 274 87 254 83 q 311 97 293 90 l 292 0 q 246 -12 269 -8 q 199 -17 222 -17 q 82 29 122 -17 q 64 176 42 75 l 175 696 m 294 979 q 340 967 324 979 q 357 928 357 954 q 331 867 357 889 q 267 844 306 844 q 221 858 238 844 q 204 897 204 872 q 230 958 204 938 q 294 979 256 979 z "},"j":{"ha":322,"x_min":-154,"x_max":357,"o":"m 176 696 l 294 696 l 163 82 q 131 -27 150 21 q 83 -115 113 -75 q 7 -192 53 -154 q -108 -274 -39 -231 l -154 -199 q -70 -134 -104 -165 q -14 -70 -36 -103 q 22 1 8 -37 q 46 85 36 39 l 176 696 m 294 979 q 340 967 324 979 q 357 928 357 954 q 331 867 357 889 q 267 844 306 844 q 221 858 238 844 q 204 897 204 872 q 230 958 204 938 q 294 979 256 979 z "},"k":{"ha":700,"x_min":28,"x_max":726,"o":"m 243 1014 l 361 1014 l 219 353 l 599 696 l 726 696 l 413 406 q 515 329 481 382 q 567 192 550 276 l 607 0 l 490 0 l 453 171 q 408 285 438 244 q 322 340 379 325 l 196 235 l 146 0 l 28 0 l 243 1014 z "},"l":{"ha":422,"x_min":51,"x_max":360,"o":"m 243 1014 l 360 1014 l 183 188 q 192 107 172 131 q 251 83 213 83 q 306 88 279 83 q 353 99 332 93 l 335 3 q 277 -12 307 -7 q 217 -17 247 -17 q 122 5 161 -17 q 67 72 83 26 q 67 188 51 117 l 243 1014 z "},"m":{"ha":1140,"x_min":28,"x_max":1092,"o":"m 144 0 l 28 0 l 168 663 q 305 699 238 686 q 439 711 372 711 q 578 688 522 711 q 656 612 633 665 q 658 467 678 558 l 558 0 l 440 0 l 539 463 q 527 581 557 549 q 425 614 497 614 q 343 607 383 614 q 271 589 303 600 l 144 0 m 658 569 l 578 640 q 718 692 650 674 q 858 711 786 711 q 994 688 939 711 q 1070 612 1049 665 q 1074 467 1092 558 l 974 0 l 856 0 l 953 463 q 942 581 972 549 q 839 614 913 614 q 744 601 792 614 q 658 569 697 589 z "},"n":{"ha":757,"x_min":28,"x_max":708,"o":"m 146 0 l 28 0 l 168 663 q 312 699 242 686 q 450 711 382 711 q 593 688 532 711 q 681 609 654 664 q 689 460 708 554 l 590 0 l 472 0 l 568 456 q 567 550 582 515 q 519 599 553 585 q 436 614 485 614 q 352 607 396 614 q 272 589 308 600 l 146 0 z "},"o":{"ha":751,"x_min":53,"x_max":700,"o":"m 436 711 q 631 649 563 711 q 700 461 700 588 q 676 288 700 372 q 603 134 651 203 q 483 24 556 65 q 315 -17 411 -17 q 121 47 189 -17 q 53 236 53 110 q 76 408 53 324 q 148 562 100 493 q 268 671 196 631 q 436 711 340 711 m 319 82 q 431 112 382 82 q 514 195 481 142 q 565 317 547 249 q 582 463 582 386 q 544 576 582 539 q 432 614 507 614 q 320 584 369 614 q 237 501 271 554 q 185 379 203 447 q 168 233 168 311 q 206 119 168 157 q 319 82 244 82 z "},"p":{"ha":751,"x_min":-28,"x_max":694,"o":"m 438 711 q 572 684 514 711 q 662 601 629 657 q 694 456 694 544 q 647 214 694 321 q 513 45 600 107 q 306 -17 425 -17 q 179 2 242 -17 q 60 49 117 21 l 161 110 q 231 90 194 97 q 306 83 267 83 q 450 133 389 83 q 544 267 511 183 q 578 451 578 351 q 538 573 578 535 q 426 611 497 611 q 349 606 389 611 q 269 589 310 600 l 89 -261 l -28 -261 l 168 664 q 306 698 238 685 q 438 711 374 711 z "},"q":{"ha":747,"x_min":56,"x_max":714,"o":"m 518 -261 l 400 -261 l 463 38 q 387 1 432 18 q 289 -17 342 -17 q 168 11 221 -17 q 85 96 115 39 q 56 240 56 153 q 103 483 56 376 q 240 650 151 589 q 451 711 329 711 q 584 698 517 711 q 714 663 651 685 l 518 -261 m 581 588 q 515 605 550 599 q 444 611 481 611 q 300 561 361 611 q 206 428 239 511 q 174 244 174 346 q 210 122 174 161 q 314 83 247 83 q 404 101 360 83 q 488 150 449 119 l 581 588 z "},"r":{"ha":467,"x_min":26,"x_max":519,"o":"m 519 711 l 499 615 q 375 608 433 615 q 268 590 317 601 l 144 0 l 26 0 l 167 663 q 343 700 256 689 q 519 711 431 711 z "},"s":{"ha":585,"x_min":-7,"x_max":576,"o":"m 576 689 l 547 597 q 467 614 508 608 q 375 619 425 619 q 255 594 294 619 q 215 525 215 569 q 244 461 215 488 q 316 412 274 435 q 401 360 358 389 q 474 291 444 332 q 503 188 503 250 q 470 78 503 124 q 374 8 438 32 q 218 -17 310 -17 q 96 -4 158 -17 q -7 24 33 8 l 25 114 q 117 89 64 100 q 219 78 169 78 q 341 108 306 78 q 376 185 376 138 q 356 244 376 219 q 303 288 336 268 q 235 328 271 308 q 167 374 200 349 q 115 436 135 400 q 94 524 94 472 q 128 628 94 588 q 224 690 161 669 q 378 711 288 711 q 480 706 431 711 q 576 689 529 700 z "},"t":{"ha":499,"x_min":82,"x_max":517,"o":"m 265 854 l 358 854 l 324 696 l 517 696 l 496 603 l 304 603 l 217 189 q 227 107 204 131 q 294 83 250 83 q 350 89 319 83 q 403 100 381 94 l 388 4 q 324 -11 357 -6 q 260 -17 292 -17 q 160 5 201 -17 q 101 72 118 26 q 99 188 83 118 l 186 603 l 82 603 l 103 696 l 207 696 l 265 854 z "},"u":{"ha":807,"x_min":53,"x_max":736,"o":"m 721 4 q 619 -17 669 -17 q 540 3 572 -17 q 496 61 507 22 q 407 7 461 31 q 283 -17 353 -17 q 156 12 211 -17 q 77 99 101 40 q 71 247 53 158 l 167 696 l 285 696 l 189 244 q 190 151 175 186 q 236 99 204 115 q 308 83 268 83 q 398 103 356 83 q 478 154 440 122 l 593 696 l 711 696 l 601 179 q 606 106 592 129 q 656 83 621 83 q 694 87 674 83 q 736 99 715 90 l 721 4 z "},"v":{"ha":693,"x_min":103,"x_max":729,"o":"m 222 696 l 301 111 q 409 285 354 193 q 516 479 464 376 q 611 696 568 582 l 729 696 q 559 343 661 519 q 338 0 457 167 l 206 0 l 103 696 l 222 696 z "},"w":{"ha":1033,"x_min":113,"x_max":1058,"o":"m 647 696 l 708 126 q 835 392 774 250 q 943 696 896 533 l 1058 696 q 976 462 1021 575 q 877 235 932 349 q 751 0 822 122 l 626 0 l 567 571 l 264 0 l 126 0 l 113 696 l 233 696 l 232 131 l 531 696 l 647 696 z "},"x":{"ha":671,"x_min":-46,"x_max":708,"o":"m 244 696 l 365 425 l 399 365 l 558 0 l 438 0 l 307 297 l 278 346 l 122 696 l 244 696 m 406 344 l 356 425 l 588 696 l 708 696 l 406 344 m 274 374 l 325 294 l 75 0 l -46 0 l 274 374 z "},"y":{"ha":739,"x_min":-7,"x_max":711,"o":"m 288 -7 q 158 22 214 -7 q 78 106 103 50 q 71 246 53 161 l 167 696 l 285 696 l 190 253 q 192 160 178 196 q 238 108 206 124 q 311 92 271 92 q 401 110 358 92 q 481 163 443 129 l 593 696 l 711 696 l 558 -24 q 497 -169 540 -114 q 384 -251 454 -225 q 213 -276 314 -276 q 95 -266 153 -276 q -7 -240 38 -256 l 24 -151 q 118 -177 67 -167 q 219 -187 169 -187 q 333 -168 289 -187 q 402 -113 376 -149 q 440 -29 428 -78 l 463 61 l 486 65 q 406 16 456 39 q 288 -7 357 -7 z "},"z":{"ha":631,"x_min":-31,"x_max":651,"o":"m 129 696 l 651 696 l 635 613 l 142 93 l 536 93 l 515 0 l -31 0 l -14 82 l 482 603 l 108 603 l 129 696 z "},"æ":{"ha":1071,"x_min":14,"x_max":1049,"o":"m 561 311 l 575 400 q 624 394 596 397 q 681 390 651 392 q 736 389 710 389 q 878 422 829 389 q 928 519 928 456 q 894 592 928 568 q 808 615 861 615 q 684 572 739 615 q 598 446 629 529 q 567 243 567 363 q 606 128 567 169 q 747 86 646 86 q 853 95 799 86 q 947 115 908 104 l 938 15 q 840 -6 892 4 q 728 -15 789 -15 q 578 13 642 -15 q 481 99 515 42 q 447 243 447 157 q 472 427 447 342 q 543 576 496 513 q 659 676 590 640 q 817 711 728 711 q 987 661 925 711 q 1049 528 1049 611 q 1010 397 1049 447 q 903 322 972 346 q 739 297 833 297 q 646 302 694 297 q 561 311 597 307 m 458 311 q 388 322 425 318 q 318 326 350 326 q 177 288 228 326 q 126 181 126 250 q 161 101 126 125 q 260 78 196 78 q 372 95 321 78 q 471 138 424 113 l 533 65 q 448 23 493 42 q 355 -6 403 4 q 260 -15 307 -15 q 79 29 144 -15 q 14 175 14 74 q 36 281 14 236 q 99 356 58 326 q 193 401 139 386 q 313 415 247 415 q 390 410 353 415 q 464 399 426 406 l 482 486 q 465 585 497 554 q 353 617 433 617 q 258 610 307 617 q 167 596 210 604 l 178 689 q 273 704 222 699 q 375 710 324 710 q 508 681 460 710 q 571 592 557 653 l 458 311 z "},"œ":{"ha":1186,"x_min":53,"x_max":1154,"o":"m 429 711 q 613 649 549 711 q 676 461 676 588 q 653 288 676 372 q 585 134 631 203 q 470 25 539 65 q 308 -15 401 -15 q 119 47 186 -15 q 53 235 53 108 q 76 408 53 324 q 147 562 100 493 q 264 671 193 631 q 429 711 335 711 m 313 82 q 422 113 374 82 q 502 196 469 143 q 552 317 535 249 q 569 463 569 386 q 533 576 569 539 q 426 614 497 614 q 317 583 365 614 q 236 500 269 553 q 185 378 203 447 q 168 233 168 310 q 204 119 168 157 q 313 82 240 82 m 667 311 l 679 400 q 729 394 701 397 q 786 390 757 392 q 842 389 815 389 q 983 422 933 389 q 1032 519 1032 456 q 999 592 1032 568 q 914 615 967 615 q 789 572 844 615 q 702 446 733 529 q 671 243 671 363 q 711 128 671 169 q 851 86 751 86 q 959 95 904 86 q 1053 115 1014 104 l 1042 15 q 945 -6 997 4 q 832 -15 893 -15 q 688 13 749 -15 q 593 99 626 42 q 560 243 560 157 q 583 427 560 342 q 653 576 607 513 q 767 676 700 640 q 921 711 835 711 q 1092 661 1031 711 q 1154 528 1154 611 q 1115 397 1154 447 q 1007 322 1076 346 q 844 297 938 297 q 751 302 800 297 q 667 311 701 307 z "},"ł":{"ha":457,"x_min":42,"x_max":450,"o":"m 65 490 l 450 632 l 428 531 l 42 388 l 65 490 m 276 1014 l 393 1014 l 217 188 q 225 106 206 131 q 286 82 244 82 q 339 88 313 82 q 386 99 365 93 l 368 3 q 310 -10 340 -6 q 251 -15 281 -15 q 157 6 196 -15 q 102 72 118 26 q 101 188 86 117 l 276 1014 z "},"ø":{"ha":747,"x_min":-18,"x_max":765,"o":"m 56 -110 l -18 -65 l 693 806 l 765 760 l 56 -110 m 435 711 q 629 649 561 711 q 697 461 697 588 q 674 288 697 372 q 602 134 650 203 q 482 25 554 65 q 314 -15 410 -15 q 120 47 189 -15 q 51 235 51 108 q 75 408 51 324 q 147 562 99 493 q 267 671 194 631 q 435 711 339 711 m 318 81 q 431 111 382 81 q 515 194 481 142 q 566 317 549 247 q 583 463 583 386 q 545 577 583 539 q 431 615 507 615 q 317 585 367 615 q 234 501 268 554 q 183 379 200 449 q 165 233 165 310 q 203 119 165 157 q 318 81 242 81 z "},"ð":{"ha":739,"x_min":56,"x_max":790,"o":"m 790 947 l 774 864 l 342 765 l 358 847 l 790 947 m 588 1014 q 665 835 636 933 q 694 614 694 738 q 681 429 694 521 q 640 258 668 338 q 566 116 613 178 q 453 19 519 54 q 299 -15 388 -15 q 119 47 183 -15 q 56 231 56 108 q 78 410 56 325 q 147 562 101 496 q 258 665 192 628 q 414 703 325 703 q 527 681 481 703 q 596 614 574 658 q 584 718 594 664 q 556 826 574 772 q 516 929 539 881 q 467 1014 493 978 l 588 1014 m 557 467 q 540 553 557 522 q 491 598 522 585 q 419 611 460 611 q 326 587 367 611 q 256 521 286 563 q 207 428 226 479 q 178 324 188 378 q 169 221 169 269 q 187 136 169 167 q 235 93 204 106 q 306 81 265 81 q 398 106 357 81 q 469 172 439 131 q 518 265 499 214 q 547 368 538 315 q 557 467 557 421 z "},"þ":{"ha":739,"x_min":-28,"x_max":694,"o":"m 436 711 q 571 684 513 711 q 662 600 629 657 q 694 456 694 543 q 647 214 694 321 q 513 46 600 107 q 306 -15 425 -15 q 180 2 242 -15 q 60 49 118 19 l 161 108 q 230 90 193 97 q 304 83 267 83 q 450 133 389 83 q 544 267 511 183 q 578 451 578 351 q 538 572 578 533 q 426 611 497 611 q 349 606 389 611 q 269 589 310 600 l 89 -261 l -28 -261 l 243 1014 l 358 1014 l 290 694 q 367 707 332 703 q 436 711 403 711 z "},"ß":{"ha":731,"x_min":-158,"x_max":707,"o":"m 381 481 q 401 559 381 525 q 453 622 422 593 q 514 681 483 651 q 565 747 544 711 q 586 829 586 782 q 559 906 586 878 q 474 935 532 935 q 365 896 407 935 q 308 783 324 857 l 158 82 q 127 -28 146 19 q 78 -115 108 -75 q 3 -193 49 -156 q -112 -274 -43 -231 l -158 -199 q -74 -134 -108 -165 q -17 -70 -39 -103 q 19 0 6 -37 q 43 85 33 38 l 193 790 q 290 971 218 913 q 481 1029 363 1029 q 649 976 592 1029 q 707 838 707 924 q 685 742 707 782 q 633 669 664 701 q 570 611 601 638 q 517 557 539 585 q 496 496 496 529 q 512 441 496 467 q 551 389 528 415 q 599 333 575 363 q 638 268 622 303 q 654 190 654 233 q 588 40 654 94 q 393 -15 522 -15 q 316 -10 358 -15 q 244 1 274 -6 l 267 90 q 328 80 294 85 q 389 75 363 75 q 499 104 460 75 q 539 185 539 133 q 523 247 539 219 q 483 300 507 275 q 436 351 460 325 q 397 409 413 378 q 381 481 381 440 z "},"ı":{"ha":382,"x_min":42,"x_max":311,"o":"m 176 696 l 293 696 l 181 176 q 184 104 171 126 q 235 82 197 82 q 274 85 254 82 q 311 96 293 89 l 292 0 q 246 -12 269 -8 q 199 -15 222 -15 q 82 30 122 -15 q 64 176 42 75 l 176 696 z "},"ȷ":{"ha":321,"x_min":-154,"x_max":293,"o":"m 176 696 l 293 696 l 163 82 q 131 -28 150 19 q 83 -115 113 -75 q 6 -193 53 -156 q -110 -274 -40 -231 l -154 -199 q -70 -134 -104 -165 q -14 -70 -36 -103 q 23 0 8 -37 q 47 85 38 38 l 176 696 z "},"Á":{"ha":883,"x_min":33,"x_max":850,"o":"m 231 342 l 157 0 l 33 0 l 161 600 q 233 785 185 710 q 360 899 281 860 q 554 939 440 939 q 707 915 646 939 q 802 845 768 890 q 843 738 836 800 q 833 597 850 675 l 706 0 l 579 0 l 653 342 l 231 342 m 253 447 l 675 447 l 708 607 q 697 771 732 713 q 547 829 661 829 q 288 607 335 829 l 253 447 m 657 1239 l 789 1239 l 590 1015 l 492 1015 l 657 1239 z "},"Â":{"ha":883,"x_min":33,"x_max":850,"o":"m 231 342 l 157 0 l 33 0 l 161 600 q 233 785 185 710 q 360 899 281 860 q 554 939 440 939 q 707 915 646 939 q 802 845 768 890 q 843 738 836 800 q 833 597 850 675 l 706 0 l 579 0 l 653 342 l 231 342 m 253 447 l 675 447 l 708 607 q 697 771 732 713 q 547 829 661 829 q 288 607 335 829 l 253 447 m 583 1239 l 689 1239 l 778 1015 l 676 1015 l 625 1172 l 510 1015 l 400 1015 l 583 1239 z "},"Ä":{"ha":883,"x_min":33,"x_max":850,"o":"m 231 342 l 157 0 l 33 0 l 161 600 q 233 785 185 710 q 360 899 281 860 q 554 939 440 939 q 707 915 646 939 q 802 845 768 890 q 843 738 836 800 q 833 597 850 675 l 706 0 l 579 0 l 653 342 l 231 342 m 253 447 l 675 447 l 708 607 q 697 771 732 713 q 547 829 661 829 q 288 607 335 829 l 253 447 m 517 1200 q 556 1187 542 1200 q 571 1150 571 1174 q 548 1092 571 1115 q 489 1069 525 1069 q 450 1083 464 1069 q 436 1119 436 1096 q 459 1178 436 1156 q 517 1200 482 1200 m 739 1200 q 778 1187 764 1200 q 793 1150 793 1174 q 770 1092 793 1115 q 711 1069 747 1069 q 672 1083 686 1069 q 658 1119 658 1096 q 681 1178 658 1156 q 739 1200 704 1200 z "},"À":{"ha":883,"x_min":33,"x_max":850,"o":"m 231 342 l 157 0 l 33 0 l 161 600 q 233 785 185 710 q 360 899 281 860 q 554 939 440 939 q 707 915 646 939 q 802 845 768 890 q 843 738 836 800 q 833 597 850 675 l 706 0 l 579 0 l 653 342 l 231 342 m 253 447 l 675 447 l 708 607 q 697 771 732 713 q 547 829 661 829 q 288 607 335 829 l 253 447 m 450 1239 l 576 1239 l 643 1015 l 554 1015 l 450 1239 z "},"Å":{"ha":883,"x_min":33,"x_max":850,"o":"m 231 342 l 157 0 l 33 0 l 161 600 q 233 785 185 710 q 360 899 281 860 q 554 939 440 939 q 707 915 646 939 q 802 845 768 890 q 843 738 836 800 q 833 597 850 675 l 706 0 l 579 0 l 653 342 l 231 342 m 253 447 l 675 447 l 708 607 q 697 771 732 713 q 547 829 661 829 q 288 607 335 829 l 253 447 m 599 1068 q 654 1088 632 1068 q 676 1143 676 1108 q 663 1180 676 1169 q 625 1190 649 1190 q 569 1171 592 1190 q 547 1115 547 1151 q 561 1078 547 1089 q 599 1068 575 1068 m 628 1251 q 718 1224 683 1251 q 753 1144 753 1197 q 709 1044 753 1081 q 594 1007 665 1007 q 505 1035 540 1007 q 469 1114 469 1063 q 514 1214 469 1176 q 628 1251 558 1251 z "},"Ã":{"ha":883,"x_min":33,"x_max":850,"o":"m 231 342 l 157 0 l 33 0 l 161 600 q 233 785 185 710 q 360 899 281 860 q 554 939 440 939 q 707 915 646 939 q 802 845 768 890 q 843 738 836 800 q 833 597 850 675 l 706 0 l 579 0 l 653 342 l 231 342 m 253 447 l 675 447 l 708 607 q 697 771 732 713 q 547 829 661 829 q 288 607 335 829 l 253 447 m 467 1054 l 390 1085 q 442 1161 411 1129 q 524 1193 474 1193 q 585 1179 556 1193 q 642 1151 615 1165 q 689 1138 668 1138 q 731 1154 717 1138 q 757 1194 744 1171 l 832 1165 q 776 1086 808 1118 q 696 1054 744 1054 q 637 1069 667 1054 q 581 1098 607 1083 q 535 1113 556 1113 q 493 1094 508 1113 q 467 1054 478 1076 z "},"Ă":{"ha":883,"x_min":33,"x_max":850,"o":"m 231 342 l 157 0 l 33 0 l 161 600 q 233 785 185 710 q 360 899 281 860 q 554 939 440 939 q 707 915 646 939 q 802 845 768 890 q 843 738 836 800 q 833 597 850 675 l 706 0 l 579 0 l 653 342 l 231 342 m 253 447 l 675 447 l 708 607 q 697 771 732 713 q 547 829 661 829 q 288 607 335 829 l 253 447 m 436 1215 l 531 1215 q 542 1137 521 1160 q 610 1114 563 1114 q 688 1137 658 1114 q 731 1215 718 1160 l 826 1215 q 750 1078 804 1121 q 606 1036 696 1036 q 504 1055 547 1036 q 443 1113 461 1074 q 436 1215 425 1153 z "},"Ā":{"ha":883,"x_min":33,"x_max":850,"o":"m 231 342 l 157 0 l 33 0 l 161 600 q 233 785 185 710 q 360 899 281 860 q 554 939 440 939 q 707 915 646 939 q 802 845 768 890 q 843 738 836 800 q 833 597 850 675 l 706 0 l 579 0 l 653 342 l 231 342 m 253 447 l 675 447 l 708 607 q 697 771 732 713 q 547 829 661 829 q 288 607 335 829 l 253 447 m 447 1158 l 792 1158 l 774 1076 l 431 1076 l 447 1158 z "},"Ą":{"ha":883,"x_min":33,"x_max":850,"o":"m 231 342 l 157 0 l 33 0 l 161 600 q 233 785 185 710 q 360 899 281 860 q 554 939 440 939 q 707 915 646 939 q 802 845 768 890 q 843 738 836 800 q 833 597 850 675 l 706 0 l 579 0 l 653 342 l 231 342 m 253 447 l 675 447 l 708 607 q 697 771 732 713 q 547 829 661 829 q 288 607 335 829 l 253 447 m 669 -162 l 667 -231 q 624 -242 647 -237 q 578 -247 601 -247 q 494 -224 524 -247 q 464 -158 464 -201 q 489 -90 464 -122 q 550 -32 514 -58 q 619 11 586 -6 l 704 0 q 640 -38 674 -15 q 583 -87 607 -61 q 560 -139 560 -112 q 572 -166 560 -158 q 604 -174 583 -174 q 637 -171 621 -174 q 669 -162 653 -168 z "},"Ǻ":{"ha":883,"x_min":33,"x_max":850,"o":"m 229 342 l 156 0 l 33 0 l 161 600 q 233 785 185 710 q 360 899 282 860 q 554 939 439 939 q 707 915 646 939 q 802 847 768 892 q 843 739 836 801 q 833 599 850 676 l 704 0 l 579 0 l 653 342 l 229 342 m 253 449 l 675 449 l 710 607 q 697 770 733 711 q 546 829 661 829 q 288 607 338 829 l 253 449 m 599 1064 q 654 1085 632 1064 q 676 1140 676 1106 q 663 1177 676 1167 q 625 1188 649 1188 q 569 1167 592 1188 q 547 1111 547 1147 q 561 1075 547 1086 q 599 1064 575 1064 m 628 1249 q 718 1221 683 1249 q 753 1142 753 1193 q 709 1041 753 1078 q 596 1004 665 1004 q 505 1031 540 1004 q 469 1110 469 1058 q 514 1211 469 1174 q 628 1249 558 1249 m 686 1372 l 819 1372 l 653 1190 l 554 1190 l 686 1372 z "},"Ç":{"ha":747,"x_min":85,"x_max":803,"o":"m 803 915 l 774 804 q 686 822 731 815 q 588 829 642 829 q 425 786 494 829 q 308 668 356 743 q 238 497 261 593 q 214 297 214 401 q 262 144 214 194 q 417 94 310 94 q 527 103 474 94 q 628 122 581 113 l 617 15 q 513 -8 569 1 q 396 -17 457 -17 q 165 63 244 -17 q 85 296 85 143 q 116 538 85 422 q 210 744 147 654 q 369 887 274 835 q 592 939 464 939 q 707 932 656 939 q 803 915 758 925 m 321 -58 l 407 -58 q 423 -105 417 -78 q 429 -158 429 -132 q 393 -247 429 -217 q 286 -276 357 -276 q 235 -273 263 -276 q 186 -260 207 -269 l 214 -192 q 244 -199 225 -196 q 276 -203 263 -203 q 324 -187 308 -203 q 339 -139 339 -171 q 333 -98 339 -119 q 321 -58 328 -76 z "},"Ć":{"ha":747,"x_min":85,"x_max":814,"o":"m 803 915 l 774 804 q 686 822 731 815 q 588 829 642 829 q 425 786 494 829 q 308 668 356 743 q 238 497 261 593 q 214 297 214 401 q 262 144 214 194 q 417 94 310 94 q 527 103 474 94 q 628 122 581 113 l 617 15 q 513 -8 569 1 q 396 -17 457 -17 q 165 63 244 -17 q 85 296 85 143 q 116 538 85 422 q 210 744 147 654 q 369 887 274 835 q 592 939 464 939 q 707 932 656 939 q 803 915 758 925 m 682 1239 l 814 1239 l 615 1015 l 517 1015 l 682 1239 z "},"Č":{"ha":747,"x_min":85,"x_max":840,"o":"m 803 915 l 774 804 q 686 822 731 815 q 588 829 642 829 q 425 786 494 829 q 308 668 356 743 q 238 497 261 593 q 214 297 214 401 q 262 144 214 194 q 417 94 310 94 q 527 103 474 94 q 628 122 581 113 l 617 15 q 513 -8 569 1 q 396 -17 457 -17 q 165 63 244 -17 q 85 296 85 143 q 116 538 85 422 q 210 744 147 654 q 369 887 274 835 q 592 939 464 939 q 707 932 656 939 q 803 915 758 925 m 551 1035 l 463 1258 l 564 1258 l 614 1101 l 731 1258 l 840 1258 l 657 1035 l 551 1035 z "},"Ĉ":{"ha":747,"x_min":85,"x_max":803,"o":"m 803 915 l 774 804 q 686 822 731 815 q 588 829 642 829 q 425 786 494 829 q 308 668 356 743 q 238 497 261 593 q 214 297 214 401 q 262 144 214 194 q 417 94 310 94 q 527 103 474 94 q 628 122 581 113 l 617 15 q 513 -8 569 1 q 396 -17 457 -17 q 165 63 244 -17 q 85 296 85 143 q 116 538 85 422 q 210 744 147 654 q 369 887 274 835 q 592 939 464 939 q 707 932 656 939 q 803 915 758 925 m 606 1239 l 711 1239 l 800 1015 l 699 1015 l 647 1172 l 532 1015 l 422 1015 l 606 1239 z "},"Ċ":{"ha":747,"x_min":85,"x_max":803,"o":"m 803 915 l 774 804 q 686 822 731 815 q 588 829 642 829 q 425 786 494 829 q 308 668 356 743 q 238 497 261 593 q 214 297 214 401 q 262 144 214 194 q 417 94 310 94 q 527 103 474 94 q 628 122 581 113 l 617 15 q 513 -8 569 1 q 396 -17 457 -17 q 165 63 244 -17 q 85 296 85 143 q 116 538 85 422 q 210 744 147 654 q 369 887 274 835 q 592 939 464 939 q 707 932 656 939 q 803 915 758 925 m 649 1200 q 694 1186 678 1200 q 711 1146 711 1172 q 688 1087 711 1107 q 624 1067 664 1067 q 578 1081 594 1067 q 561 1122 561 1096 q 585 1181 561 1163 q 649 1200 610 1200 z "},"Ď":{"ha":894,"x_min":50,"x_max":860,"o":"m 244 924 l 522 924 q 771 844 682 924 q 860 610 860 765 q 842 435 860 524 q 787 265 825 346 q 689 121 749 185 q 546 20 629 57 q 351 -17 463 -17 q 206 -8 283 -17 q 50 19 129 1 l 244 924 m 349 817 l 194 110 q 273 97 229 101 q 361 93 317 93 q 530 140 460 93 q 644 263 600 186 q 710 430 689 339 q 731 610 731 521 q 675 769 731 722 q 508 817 619 817 l 349 817 m 506 1015 l 417 1239 l 518 1239 l 568 1082 l 685 1239 l 794 1239 l 611 1015 l 506 1015 z "},"Đ":{"ha":928,"x_min":60,"x_max":894,"o":"m 60 425 l 82 526 l 547 526 l 526 425 l 60 425 m 279 924 l 557 924 q 806 844 717 924 q 894 608 894 765 q 877 434 894 522 q 822 265 860 346 q 724 122 783 185 q 581 22 665 58 q 388 -15 497 -15 q 242 -7 319 -15 q 83 19 164 1 l 279 924 m 382 817 l 228 110 q 306 97 263 101 q 394 93 350 93 q 564 140 493 93 q 679 263 635 186 q 745 430 724 339 q 767 610 767 521 q 710 769 767 722 q 543 817 654 817 l 382 817 z "},"É":{"ha":708,"x_min":71,"x_max":758,"o":"m 236 924 l 758 924 l 735 817 l 339 817 l 278 529 l 638 529 l 614 421 l 256 421 l 211 214 q 225 133 199 158 q 311 107 251 107 l 603 107 l 581 0 l 289 0 q 160 23 211 0 q 90 94 110 46 q 86 215 71 142 l 236 924 m 614 1239 l 746 1239 l 547 1015 l 449 1015 l 614 1239 z "},"Ê":{"ha":708,"x_min":71,"x_max":758,"o":"m 236 924 l 758 924 l 735 817 l 339 817 l 278 529 l 638 529 l 614 421 l 256 421 l 211 214 q 225 133 199 158 q 311 107 251 107 l 603 107 l 581 0 l 289 0 q 160 23 211 0 q 90 94 110 46 q 86 215 71 142 l 236 924 m 538 1239 l 643 1239 l 732 1015 l 631 1015 l 579 1172 l 464 1015 l 354 1015 l 538 1239 z "},"Ë":{"ha":708,"x_min":71,"x_max":758,"o":"m 236 924 l 758 924 l 735 817 l 339 817 l 278 529 l 638 529 l 614 421 l 256 421 l 211 214 q 225 133 199 158 q 311 107 251 107 l 603 107 l 581 0 l 289 0 q 160 23 211 0 q 90 94 110 46 q 86 215 71 142 l 236 924 m 471 1200 q 510 1187 496 1200 q 525 1150 525 1174 q 502 1092 525 1115 q 443 1069 479 1069 q 404 1083 418 1069 q 390 1119 390 1096 q 413 1178 390 1156 q 471 1200 436 1200 m 693 1200 q 733 1187 718 1200 q 747 1150 747 1174 q 724 1092 747 1115 q 665 1069 701 1069 q 626 1083 640 1069 q 613 1119 613 1096 q 635 1178 613 1156 q 693 1200 658 1200 z "},"È":{"ha":708,"x_min":71,"x_max":758,"o":"m 236 924 l 758 924 l 735 817 l 339 817 l 278 529 l 638 529 l 614 421 l 256 421 l 211 214 q 225 133 199 158 q 311 107 251 107 l 603 107 l 581 0 l 289 0 q 160 23 211 0 q 90 94 110 46 q 86 215 71 142 l 236 924 m 404 1239 l 531 1239 l 597 1015 l 508 1015 l 404 1239 z "},"Ĕ":{"ha":708,"x_min":71,"x_max":781,"o":"m 236 924 l 758 924 l 735 817 l 339 817 l 278 529 l 638 529 l 614 421 l 256 421 l 211 214 q 225 133 199 158 q 311 107 251 107 l 603 107 l 581 0 l 289 0 q 160 23 211 0 q 90 94 110 46 q 86 215 71 142 l 236 924 m 390 1215 l 485 1215 q 496 1137 475 1160 q 564 1114 517 1114 q 642 1137 613 1114 q 685 1215 672 1160 l 781 1215 q 704 1078 758 1121 q 560 1036 650 1036 q 458 1055 501 1036 q 397 1113 415 1074 q 390 1215 379 1153 z "},"Ě":{"ha":708,"x_min":71,"x_max":779,"o":"m 236 924 l 758 924 l 735 817 l 339 817 l 278 529 l 638 529 l 614 421 l 256 421 l 211 214 q 225 133 199 158 q 311 107 251 107 l 603 107 l 581 0 l 289 0 q 160 23 211 0 q 90 94 110 46 q 86 215 71 142 l 236 924 m 490 1015 l 401 1239 l 503 1239 l 553 1082 l 669 1239 l 779 1239 l 596 1015 l 490 1015 z "},"Ė":{"ha":708,"x_min":71,"x_max":758,"o":"m 236 924 l 758 924 l 735 817 l 339 817 l 278 529 l 638 529 l 614 421 l 256 421 l 211 214 q 225 133 199 158 q 311 107 251 107 l 603 107 l 581 0 l 289 0 q 160 23 211 0 q 90 94 110 46 q 86 215 71 142 l 236 924 m 581 1200 q 626 1186 610 1200 q 643 1146 643 1172 q 619 1087 643 1107 q 556 1067 596 1067 q 510 1081 526 1067 q 493 1122 493 1096 q 517 1181 493 1163 q 581 1200 542 1200 z "},"Ē":{"ha":708,"x_min":71,"x_max":758,"o":"m 236 924 l 758 924 l 735 817 l 339 817 l 278 529 l 638 529 l 614 421 l 256 421 l 211 214 q 225 133 199 158 q 311 107 251 107 l 603 107 l 581 0 l 289 0 q 160 23 211 0 q 90 94 110 46 q 86 215 71 142 l 236 924 m 401 1158 l 746 1158 l 728 1076 l 385 1076 l 401 1158 z "},"Ę":{"ha":708,"x_min":71,"x_max":758,"o":"m 236 924 l 758 924 l 735 817 l 339 817 l 278 529 l 638 529 l 614 421 l 256 421 l 211 214 q 225 133 199 158 q 311 107 251 107 l 603 107 l 581 0 l 289 0 q 160 23 211 0 q 90 94 110 46 q 86 215 71 142 l 236 924 m 546 -162 l 543 -231 q 501 -242 524 -237 q 454 -247 478 -247 q 370 -224 400 -247 q 340 -158 340 -201 q 365 -90 340 -122 q 426 -32 390 -58 q 496 11 463 -6 l 581 0 q 517 -38 550 -15 q 460 -87 483 -61 q 436 -139 436 -112 q 448 -166 436 -158 q 481 -174 460 -174 q 513 -171 497 -174 q 546 -162 529 -168 z "},"Ǽ":{"ha":1240,"x_min":33,"x_max":1290,"o":"m 990 1239 l 1122 1239 l 924 1015 l 825 1015 l 990 1239 m 776 924 l 1290 924 l 1268 817 l 874 817 l 810 528 l 1168 528 l 1146 419 l 788 419 l 743 214 q 758 132 731 157 q 842 107 785 107 l 1133 107 l 1111 0 l 828 0 q 697 22 750 0 q 623 91 644 44 q 617 211 601 138 l 663 419 l 246 419 l 156 0 l 33 0 l 163 608 q 288 856 197 772 q 539 939 378 939 q 683 910 626 939 q 756 825 739 882 l 776 924 m 268 528 l 685 528 l 701 607 q 687 774 725 718 q 542 829 649 829 q 372 774 436 829 q 285 607 308 718 l 268 528 z "},"Ğ":{"ha":857,"x_min":85,"x_max":867,"o":"m 867 914 l 840 806 q 738 823 796 817 q 618 829 679 829 q 435 786 511 829 q 310 670 358 743 q 238 504 261 597 q 215 311 215 411 q 267 143 215 193 q 431 93 319 93 q 517 98 475 93 q 599 113 560 103 l 660 397 l 460 397 l 481 501 l 801 501 l 700 29 q 569 -3 642 11 q 424 -17 497 -17 q 240 17 317 -17 q 124 124 164 51 q 85 310 85 196 q 119 551 85 438 q 220 751 153 664 q 388 889 288 839 q 619 939 488 939 q 750 933 689 939 q 867 914 811 926 m 476 1215 l 571 1215 q 582 1137 561 1160 q 650 1114 603 1114 q 728 1137 699 1114 q 771 1215 758 1160 l 867 1215 q 790 1078 844 1121 q 646 1036 736 1036 q 544 1055 588 1036 q 483 1113 501 1074 q 476 1215 465 1153 z "},"Ĝ":{"ha":857,"x_min":85,"x_max":867,"o":"m 867 914 l 840 806 q 738 823 796 817 q 618 829 679 829 q 435 786 511 829 q 310 670 358 743 q 238 504 261 597 q 215 311 215 411 q 267 143 215 193 q 431 93 319 93 q 517 98 475 93 q 599 113 560 103 l 660 397 l 460 397 l 481 501 l 801 501 l 700 29 q 569 -3 642 11 q 424 -17 497 -17 q 240 17 317 -17 q 124 124 164 51 q 85 310 85 196 q 119 551 85 438 q 220 751 153 664 q 388 889 288 839 q 619 939 488 939 q 750 933 689 939 q 867 914 811 926 m 624 1239 l 729 1239 l 818 1015 l 717 1015 l 665 1172 l 550 1015 l 440 1015 l 624 1239 z "},"Ģ":{"ha":857,"x_min":85,"x_max":867,"o":"m 867 914 l 840 806 q 738 823 796 817 q 618 829 679 829 q 435 786 511 829 q 310 670 358 743 q 238 504 261 597 q 215 311 215 411 q 267 143 215 193 q 431 93 319 93 q 517 98 475 93 q 599 113 560 103 l 660 397 l 460 397 l 481 501 l 801 501 l 700 29 q 569 -3 642 11 q 424 -17 497 -17 q 240 17 317 -17 q 124 124 164 51 q 85 310 85 196 q 119 551 85 438 q 220 751 153 664 q 388 889 288 839 q 619 939 488 939 q 750 933 689 939 q 867 914 811 926 m 324 -64 l 447 -64 l 281 -261 l 186 -261 l 324 -64 z "},"Ġ":{"ha":857,"x_min":85,"x_max":867,"o":"m 867 914 l 840 806 q 738 823 796 817 q 618 829 679 829 q 435 786 511 829 q 310 670 358 743 q 238 504 261 597 q 215 311 215 411 q 267 143 215 193 q 431 93 319 93 q 517 98 475 93 q 599 113 560 103 l 660 397 l 460 397 l 481 501 l 801 501 l 700 29 q 569 -3 642 11 q 424 -17 497 -17 q 240 17 317 -17 q 124 124 164 51 q 85 310 85 196 q 119 551 85 438 q 220 751 153 664 q 388 889 288 839 q 619 939 488 939 q 750 933 689 939 q 867 914 811 926 m 667 1200 q 713 1186 696 1200 q 729 1146 729 1172 q 706 1087 729 1107 q 642 1067 682 1067 q 596 1081 613 1067 q 579 1122 579 1096 q 603 1181 579 1163 q 667 1200 628 1200 z "},"Ħ":{"ha":951,"x_min":46,"x_max":1038,"o":"m 242 924 l 365 924 l 278 513 l 738 513 l 825 924 l 950 924 l 754 0 l 629 0 l 715 407 l 256 407 l 169 0 l 46 0 l 242 924 m 79 686 l 99 778 l 1038 778 l 1018 686 l 79 686 z "},"Ĥ":{"ha":951,"x_min":47,"x_max":954,"o":"m 243 924 l 368 924 l 285 531 l 746 531 l 829 924 l 954 924 l 758 0 l 633 0 l 722 419 l 263 419 l 172 0 l 47 0 l 243 924 m 618 1239 l 724 1239 l 813 1015 l 711 1015 l 660 1172 l 544 1015 l 435 1015 l 618 1239 z "},"Í":{"ha":363,"x_min":44,"x_max":556,"o":"m 242 924 l 367 924 l 171 0 l 44 0 l 242 924 m 424 1239 l 556 1239 l 357 1015 l 258 1015 l 424 1239 z "},"Î":{"ha":363,"x_min":44,"x_max":526,"o":"m 242 924 l 367 924 l 171 0 l 44 0 l 242 924 m 332 1239 l 438 1239 l 526 1015 l 425 1015 l 374 1172 l 258 1015 l 149 1015 l 332 1239 z "},"Ï":{"ha":363,"x_min":44,"x_max":542,"o":"m 242 924 l 367 924 l 171 0 l 44 0 l 242 924 m 265 1200 q 305 1187 290 1200 q 319 1150 319 1174 q 297 1092 319 1115 q 238 1069 274 1069 q 199 1083 213 1069 q 185 1119 185 1096 q 208 1178 185 1156 q 265 1200 231 1200 m 488 1200 q 527 1187 513 1200 q 542 1150 542 1174 q 519 1092 542 1115 q 460 1069 496 1069 q 421 1083 435 1069 q 407 1119 407 1096 q 430 1178 407 1156 q 488 1200 453 1200 z "},"Ì":{"ha":363,"x_min":44,"x_max":392,"o":"m 242 924 l 367 924 l 171 0 l 44 0 l 242 924 m 199 1239 l 325 1239 l 392 1015 l 303 1015 l 199 1239 z "},"Ĭ":{"ha":363,"x_min":44,"x_max":575,"o":"m 242 924 l 367 924 l 171 0 l 44 0 l 242 924 m 185 1215 l 279 1215 q 290 1137 269 1160 q 358 1114 311 1114 q 437 1137 407 1114 q 479 1215 467 1160 l 575 1215 q 499 1078 553 1121 q 354 1036 444 1036 q 253 1055 296 1036 q 192 1113 210 1074 q 185 1215 174 1153 z "},"İ":{"ha":363,"x_min":44,"x_max":438,"o":"m 242 924 l 367 924 l 171 0 l 44 0 l 242 924 m 375 1200 q 421 1186 404 1200 q 438 1146 438 1172 q 414 1087 438 1107 q 350 1067 390 1067 q 304 1081 321 1067 q 288 1122 288 1096 q 312 1181 288 1163 q 375 1200 336 1200 z "},"Ī":{"ha":363,"x_min":44,"x_max":540,"o":"m 242 924 l 367 924 l 171 0 l 44 0 l 242 924 m 196 1158 l 540 1158 l 522 1076 l 179 1076 l 196 1158 z "},"Į":{"ha":363,"x_min":-71,"x_max":367,"o":"m 242 924 l 367 924 l 171 0 l 44 0 l 242 924 m 135 -162 l 132 -231 q 90 -242 113 -237 q 43 -247 67 -247 q -41 -224 -11 -247 q -71 -158 -71 -201 q -46 -90 -71 -122 q 15 -32 -21 -58 q 85 11 51 -6 l 169 0 q 106 -38 139 -15 q 49 -87 72 -61 q 25 -139 25 -112 q 37 -166 25 -158 q 69 -174 49 -174 q 102 -171 86 -174 q 135 -162 118 -168 z "},"Ĩ":{"ha":363,"x_min":44,"x_max":581,"o":"m 242 924 l 367 924 l 171 0 l 44 0 l 242 924 m 215 1054 l 139 1085 q 191 1161 160 1129 q 272 1193 222 1193 q 334 1179 304 1193 q 390 1151 364 1165 q 438 1138 417 1138 q 479 1154 465 1138 q 506 1194 493 1171 l 581 1165 q 525 1086 557 1118 q 444 1054 493 1054 q 385 1069 415 1054 q 330 1098 356 1083 q 283 1113 304 1113 q 242 1094 257 1113 q 215 1054 226 1076 z "},"Ĵ":{"ha":364,"x_min":-175,"x_max":531,"o":"m 243 924 l 368 924 l 194 101 q 160 -5 182 42 q 103 -94 139 -51 q 13 -178 68 -136 q -121 -272 -42 -221 l -175 -185 q -34 -76 -83 -122 q 38 16 15 -29 q 72 119 61 61 l 243 924 m 336 1258 l 442 1258 l 531 1035 l 429 1035 l 378 1192 l 263 1035 l 153 1035 l 336 1258 z "},"Ķ":{"ha":842,"x_min":43,"x_max":917,"o":"m 239 924 l 365 924 l 263 440 l 769 924 l 917 924 l 496 524 q 583 481 549 508 q 639 402 617 453 q 676 267 661 351 l 722 0 l 593 0 l 553 232 q 523 348 540 306 q 476 410 506 390 q 397 438 446 431 l 229 283 l 168 0 l 43 0 l 239 924 m 311 -64 l 435 -64 l 268 -261 l 174 -261 l 311 -64 z "},"Ĺ":{"ha":671,"x_min":47,"x_max":579,"o":"m 244 924 l 369 924 l 196 107 l 579 107 l 557 0 l 47 0 l 244 924 m 447 1246 l 579 1246 l 381 1022 l 282 1022 l 447 1246 z "},"Ľ":{"ha":671,"x_min":47,"x_max":715,"o":"m 244 924 l 369 924 l 196 107 l 579 107 l 557 0 l 47 0 l 244 924 m 586 924 l 715 924 l 546 628 l 449 628 l 586 924 z "},"Ļ":{"ha":671,"x_min":47,"x_max":579,"o":"m 244 924 l 369 924 l 196 107 l 579 107 l 557 0 l 47 0 l 244 924 m 235 -64 l 358 -64 l 192 -261 l 97 -261 l 235 -64 z "},"Ŀ":{"ha":671,"x_min":47,"x_max":626,"o":"m 244 924 l 369 924 l 196 107 l 579 107 l 557 0 l 47 0 l 244 924 m 564 543 q 610 528 593 543 q 626 489 626 514 q 603 430 626 450 q 539 410 579 410 q 493 424 510 410 q 476 464 476 439 q 501 524 476 504 q 564 543 525 543 z "},"Ñ":{"ha":954,"x_min":47,"x_max":957,"o":"m 244 924 l 342 924 l 713 349 l 833 924 l 957 924 l 761 0 l 638 0 l 679 197 l 326 743 l 169 0 l 47 0 l 244 924 m 501 1054 l 425 1085 q 477 1161 446 1129 q 558 1193 508 1193 q 620 1179 590 1193 q 676 1151 650 1165 q 724 1138 703 1138 q 765 1154 751 1138 q 792 1194 779 1171 l 867 1165 q 811 1086 843 1118 q 731 1054 779 1054 q 672 1069 701 1054 q 616 1098 642 1083 q 569 1113 590 1113 q 528 1094 543 1113 q 501 1054 513 1076 z "},"Ń":{"ha":954,"x_min":47,"x_max":957,"o":"m 244 924 l 342 924 l 713 349 l 833 924 l 957 924 l 761 0 l 638 0 l 679 197 l 326 743 l 169 0 l 47 0 l 244 924 m 694 1239 l 826 1239 l 628 1015 l 529 1015 l 694 1239 z "},"Ň":{"ha":954,"x_min":47,"x_max":957,"o":"m 244 924 l 342 924 l 713 349 l 833 924 l 957 924 l 761 0 l 638 0 l 679 197 l 326 743 l 169 0 l 47 0 l 244 924 m 571 1015 l 482 1239 l 583 1239 l 633 1082 l 750 1239 l 860 1239 l 676 1015 l 571 1015 z "},"Ņ":{"ha":954,"x_min":47,"x_max":957,"o":"m 244 924 l 342 924 l 713 349 l 833 924 l 957 924 l 761 0 l 638 0 l 679 197 l 326 743 l 169 0 l 47 0 l 244 924 m 342 -64 l 465 -64 l 299 -261 l 204 -261 l 342 -64 z "},"Ŋ":{"ha":954,"x_min":46,"x_max":951,"o":"m 242 924 l 343 924 l 708 358 l 829 924 l 951 924 l 813 263 l 689 263 l 675 196 l 324 743 l 167 0 l 46 0 l 242 924 m 828 924 l 951 924 l 776 101 q 742 -5 764 42 q 686 -94 721 -51 q 597 -178 651 -136 q 463 -272 542 -221 l 410 -185 q 523 -101 479 -137 q 593 -31 567 -64 q 634 38 619 3 q 658 118 649 74 l 828 924 z "},"Ó":{"ha":926,"x_min":90,"x_max":888,"o":"m 579 939 q 808 861 728 939 q 888 618 888 783 q 856 385 888 499 q 763 181 825 272 q 610 37 701 90 q 399 -17 519 -17 q 171 62 251 -17 q 90 306 90 140 q 122 538 90 425 q 215 741 153 650 q 367 885 276 832 q 579 939 458 939 m 408 93 q 555 138 490 93 q 665 259 619 183 q 733 428 710 335 q 757 615 757 521 q 710 781 757 732 q 571 829 664 829 q 424 784 489 829 q 313 663 358 739 q 244 495 268 588 q 221 308 221 403 q 268 142 221 192 q 408 93 315 93 m 683 1239 l 815 1239 l 617 1015 l 518 1015 l 683 1239 z "},"Ô":{"ha":926,"x_min":90,"x_max":888,"o":"m 579 939 q 808 861 728 939 q 888 618 888 783 q 856 385 888 499 q 763 181 825 272 q 610 37 701 90 q 399 -17 519 -17 q 171 62 251 -17 q 90 306 90 140 q 122 538 90 425 q 215 741 153 650 q 367 885 276 832 q 579 939 458 939 m 408 93 q 555 138 490 93 q 665 259 619 183 q 733 428 710 335 q 757 615 757 521 q 710 781 757 732 q 571 829 664 829 q 424 784 489 829 q 313 663 358 739 q 244 495 268 588 q 221 308 221 403 q 268 142 221 192 q 408 93 315 93 m 607 1239 l 713 1239 l 801 1015 l 700 1015 l 649 1172 l 533 1015 l 424 1015 l 607 1239 z "},"Ö":{"ha":926,"x_min":90,"x_max":888,"o":"m 579 939 q 808 861 728 939 q 888 618 888 783 q 856 385 888 499 q 763 181 825 272 q 610 37 701 90 q 399 -17 519 -17 q 171 62 251 -17 q 90 306 90 140 q 122 538 90 425 q 215 741 153 650 q 367 885 276 832 q 579 939 458 939 m 408 93 q 555 138 490 93 q 665 259 619 183 q 733 428 710 335 q 757 615 757 521 q 710 781 757 732 q 571 829 664 829 q 424 784 489 829 q 313 663 358 739 q 244 495 268 588 q 221 308 221 403 q 268 142 221 192 q 408 93 315 93 m 540 1200 q 580 1187 565 1200 q 594 1150 594 1174 q 572 1092 594 1115 q 513 1069 549 1069 q 474 1083 488 1069 q 460 1119 460 1096 q 483 1178 460 1156 q 540 1200 506 1200 m 763 1200 q 802 1187 788 1200 q 817 1150 817 1174 q 794 1092 817 1115 q 735 1069 771 1069 q 696 1083 710 1069 q 682 1119 682 1096 q 705 1178 682 1156 q 763 1200 728 1200 z "},"Ò":{"ha":926,"x_min":90,"x_max":888,"o":"m 579 939 q 808 861 728 939 q 888 618 888 783 q 856 385 888 499 q 763 181 825 272 q 610 37 701 90 q 399 -17 519 -17 q 171 62 251 -17 q 90 306 90 140 q 122 538 90 425 q 215 741 153 650 q 367 885 276 832 q 579 939 458 939 m 408 93 q 555 138 490 93 q 665 259 619 183 q 733 428 710 335 q 757 615 757 521 q 710 781 757 732 q 571 829 664 829 q 424 784 489 829 q 313 663 358 739 q 244 495 268 588 q 221 308 221 403 q 268 142 221 192 q 408 93 315 93 m 474 1239 l 600 1239 l 667 1015 l 578 1015 l 474 1239 z "},"Õ":{"ha":926,"x_min":90,"x_max":888,"o":"m 579 939 q 808 861 728 939 q 888 618 888 783 q 856 385 888 499 q 763 181 825 272 q 610 37 701 90 q 399 -17 519 -17 q 171 62 251 -17 q 90 306 90 140 q 122 538 90 425 q 215 741 153 650 q 367 885 276 832 q 579 939 458 939 m 408 93 q 555 138 490 93 q 665 259 619 183 q 733 428 710 335 q 757 615 757 521 q 710 781 757 732 q 571 829 664 829 q 424 784 489 829 q 313 663 358 739 q 244 495 268 588 q 221 308 221 403 q 268 142 221 192 q 408 93 315 93 m 490 1054 l 414 1085 q 466 1161 435 1129 q 547 1193 497 1193 q 609 1179 579 1193 q 665 1151 639 1165 q 713 1138 692 1138 q 754 1154 740 1138 q 781 1194 768 1171 l 856 1165 q 800 1086 832 1118 q 719 1054 768 1054 q 660 1069 690 1054 q 605 1098 631 1083 q 558 1113 579 1113 q 517 1094 532 1113 q 490 1054 501 1076 z "},"Ŏ":{"ha":926,"x_min":90,"x_max":888,"o":"m 579 939 q 808 861 728 939 q 888 618 888 783 q 856 385 888 499 q 763 181 825 272 q 610 37 701 90 q 399 -17 519 -17 q 171 62 251 -17 q 90 306 90 140 q 122 538 90 425 q 215 741 153 650 q 367 885 276 832 q 579 939 458 939 m 408 93 q 555 138 490 93 q 665 259 619 183 q 733 428 710 335 q 757 615 757 521 q 710 781 757 732 q 571 829 664 829 q 424 784 489 829 q 313 663 358 739 q 244 495 268 588 q 221 308 221 403 q 268 142 221 192 q 408 93 315 93 m 460 1215 l 554 1215 q 565 1137 544 1160 q 633 1114 586 1114 q 712 1137 682 1114 q 754 1215 742 1160 l 850 1215 q 774 1078 828 1121 q 629 1036 719 1036 q 528 1055 571 1036 q 467 1113 485 1074 q 460 1215 449 1153 z "},"Ő":{"ha":926,"x_min":90,"x_max":888,"o":"m 579 939 q 808 861 728 939 q 888 618 888 783 q 856 385 888 499 q 763 181 825 272 q 610 37 701 90 q 399 -17 519 -17 q 171 62 251 -17 q 90 306 90 140 q 122 538 90 425 q 215 741 153 650 q 367 885 276 832 q 579 939 458 939 m 408 93 q 555 138 490 93 q 665 259 619 183 q 733 428 710 335 q 757 615 757 521 q 710 781 757 732 q 571 829 664 829 q 424 784 489 829 q 313 663 358 739 q 244 495 268 588 q 221 308 221 403 q 268 142 221 192 q 408 93 315 93 m 558 1239 l 665 1239 l 535 1015 l 453 1015 l 558 1239 m 744 1239 l 858 1239 l 704 1015 l 619 1015 l 744 1239 z "},"Ō":{"ha":926,"x_min":90,"x_max":888,"o":"m 579 939 q 808 861 728 939 q 888 618 888 783 q 856 385 888 499 q 763 181 825 272 q 610 37 701 90 q 399 -17 519 -17 q 171 62 251 -17 q 90 306 90 140 q 122 538 90 425 q 215 741 153 650 q 367 885 276 832 q 579 939 458 939 m 408 93 q 555 138 490 93 q 665 259 619 183 q 733 428 710 335 q 757 615 757 521 q 710 781 757 732 q 571 829 664 829 q 424 784 489 829 q 313 663 358 739 q 244 495 268 588 q 221 308 221 403 q 268 142 221 192 q 408 93 315 93 m 471 1158 l 815 1158 l 797 1076 l 454 1076 l 471 1158 z "},"Ǿ":{"ha":926,"x_min":4,"x_max":957,"o":"m 957 950 l 79 -87 l 4 -32 l 883 1007 l 957 950 m 572 939 q 801 861 721 939 q 881 618 881 783 q 849 385 881 499 q 756 182 818 272 q 603 38 694 92 q 392 -15 513 -15 q 164 63 244 -15 q 83 306 83 142 q 115 538 83 425 q 208 742 146 651 q 360 885 269 832 q 572 939 451 939 m 400 90 q 549 136 483 90 q 660 258 614 182 q 729 426 706 333 q 753 615 753 519 q 706 783 753 733 q 564 832 658 832 q 416 786 481 832 q 306 665 351 740 q 236 496 260 589 q 213 308 213 403 q 260 140 213 190 q 400 90 307 90 m 683 1239 l 815 1239 l 617 1015 l 518 1015 l 683 1239 z "},"Ŕ":{"ha":829,"x_min":47,"x_max":810,"o":"m 243 924 l 522 924 q 737 869 664 924 q 810 700 810 815 q 779 564 810 625 q 695 462 749 503 q 572 406 642 421 q 634 351 611 392 q 668 228 657 310 l 703 0 l 576 0 l 547 200 q 522 301 538 267 q 477 349 506 336 q 400 363 449 363 l 249 363 l 172 0 l 47 0 l 243 924 m 685 690 q 641 787 685 757 q 510 817 597 817 l 344 817 l 271 469 l 428 469 q 569 498 513 469 q 656 576 626 526 q 685 690 685 626 m 636 1239 l 768 1239 l 569 1015 l 471 1015 l 636 1239 z "},"Ř":{"ha":829,"x_min":47,"x_max":810,"o":"m 243 924 l 522 924 q 737 869 664 924 q 810 700 810 815 q 779 564 810 625 q 695 462 749 503 q 572 406 642 421 q 634 351 611 392 q 668 228 657 310 l 703 0 l 576 0 l 547 200 q 522 301 538 267 q 477 349 506 336 q 400 363 449 363 l 249 363 l 172 0 l 47 0 l 243 924 m 685 690 q 641 787 685 757 q 510 817 597 817 l 344 817 l 271 469 l 428 469 q 569 498 513 469 q 656 576 626 526 q 685 690 685 626 m 501 1015 l 413 1239 l 514 1239 l 564 1082 l 681 1239 l 790 1239 l 607 1015 l 501 1015 z "},"Ŗ":{"ha":829,"x_min":47,"x_max":810,"o":"m 243 924 l 522 924 q 737 869 664 924 q 810 700 810 815 q 779 564 810 625 q 695 462 749 503 q 572 406 642 421 q 634 351 611 392 q 668 228 657 310 l 703 0 l 576 0 l 547 200 q 522 301 538 267 q 477 349 506 336 q 400 363 449 363 l 249 363 l 172 0 l 47 0 l 243 924 m 685 690 q 641 787 685 757 q 510 817 597 817 l 344 817 l 271 469 l 428 469 q 569 498 513 469 q 656 576 626 526 q 685 690 685 626 m 296 -64 l 419 -64 l 253 -261 l 158 -261 l 296 -64 z "},"Š":{"ha":701,"x_min":14,"x_max":763,"o":"m 718 914 l 686 813 q 594 828 643 822 q 494 835 544 835 q 331 797 385 835 q 278 700 278 760 q 302 624 278 658 q 365 560 326 590 q 448 500 404 531 q 531 434 492 469 q 594 353 569 399 q 618 246 618 307 q 578 99 618 157 q 465 12 539 40 q 286 -17 390 -17 q 138 -3 206 -17 q 14 31 71 11 l 46 133 q 161 101 103 114 q 289 89 219 89 q 443 128 396 89 q 490 233 490 167 q 466 313 490 278 q 403 380 442 349 q 320 442 364 411 q 238 510 276 474 q 174 590 199 546 q 150 693 150 635 q 192 826 150 771 q 310 910 233 881 q 494 939 388 939 q 612 932 554 939 q 718 914 669 925 m 474 1015 l 385 1239 l 486 1239 l 536 1082 l 653 1239 l 763 1239 l 579 1015 l 474 1015 z "},"Ś":{"ha":701,"x_min":14,"x_max":729,"o":"m 718 914 l 686 813 q 594 828 643 822 q 494 835 544 835 q 331 797 385 835 q 278 700 278 760 q 302 624 278 658 q 365 560 326 590 q 448 500 404 531 q 531 434 492 469 q 594 353 569 399 q 618 246 618 307 q 578 99 618 157 q 465 12 539 40 q 286 -17 390 -17 q 138 -3 206 -17 q 14 31 71 11 l 46 133 q 161 101 103 114 q 289 89 219 89 q 443 128 396 89 q 490 233 490 167 q 466 313 490 278 q 403 380 442 349 q 320 442 364 411 q 238 510 276 474 q 174 590 199 546 q 150 693 150 635 q 192 826 150 771 q 310 910 233 881 q 494 939 388 939 q 612 932 554 939 q 718 914 669 925 m 597 1239 l 729 1239 l 531 1015 l 432 1015 l 597 1239 z "},"Ş":{"ha":701,"x_min":14,"x_max":718,"o":"m 718 914 l 686 813 q 594 828 643 822 q 494 835 544 835 q 331 797 385 835 q 278 700 278 760 q 302 624 278 658 q 365 560 326 590 q 448 500 404 531 q 531 434 492 469 q 594 353 569 399 q 618 246 618 307 q 578 99 618 157 q 465 12 539 40 q 286 -17 390 -17 q 138 -3 206 -17 q 14 31 71 11 l 46 133 q 161 101 103 114 q 289 89 219 89 q 443 128 396 89 q 490 233 490 167 q 466 313 490 278 q 403 380 442 349 q 320 442 364 411 q 238 510 276 474 q 174 590 199 546 q 150 693 150 635 q 192 826 150 771 q 310 910 233 881 q 494 939 388 939 q 612 932 554 939 q 718 914 669 925 m 235 -58 l 321 -58 q 337 -105 331 -78 q 343 -158 343 -132 q 307 -247 343 -217 q 200 -276 271 -276 q 149 -273 176 -276 q 100 -260 121 -269 l 128 -192 q 158 -199 139 -196 q 190 -203 176 -203 q 238 -187 222 -203 q 253 -139 253 -171 q 247 -98 253 -119 q 235 -58 242 -76 z "},"Ŝ":{"ha":701,"x_min":14,"x_max":718,"o":"m 718 914 l 686 813 q 594 828 643 822 q 494 835 544 835 q 331 797 385 835 q 278 700 278 760 q 302 624 278 658 q 365 560 326 590 q 448 500 404 531 q 531 434 492 469 q 594 353 569 399 q 618 246 618 307 q 578 99 618 157 q 465 12 539 40 q 286 -17 390 -17 q 138 -3 206 -17 q 14 31 71 11 l 46 133 q 161 101 103 114 q 289 89 219 89 q 443 128 396 89 q 490 233 490 167 q 466 313 490 278 q 403 380 442 349 q 320 442 364 411 q 238 510 276 474 q 174 590 199 546 q 150 693 150 635 q 192 826 150 771 q 310 910 233 881 q 494 939 388 939 q 612 932 554 939 q 718 914 669 925 m 521 1239 l 626 1239 l 715 1015 l 614 1015 l 563 1172 l 447 1015 l 338 1015 l 521 1239 z "},"Ș":{"ha":701,"x_min":14,"x_max":718,"o":"m 718 914 l 686 813 q 594 828 643 822 q 494 835 544 835 q 331 797 385 835 q 278 700 278 760 q 302 624 278 658 q 365 560 326 590 q 448 500 404 531 q 531 434 492 469 q 594 353 569 399 q 618 246 618 307 q 578 99 618 157 q 465 12 539 40 q 286 -17 390 -17 q 138 -3 206 -17 q 14 31 71 11 l 46 133 q 161 101 103 114 q 289 89 219 89 q 443 128 396 89 q 490 233 490 167 q 466 313 490 278 q 403 380 442 349 q 320 442 364 411 q 238 510 276 474 q 174 590 199 546 q 150 693 150 635 q 192 826 150 771 q 310 910 233 881 q 494 939 388 939 q 612 932 554 939 q 718 914 669 925 m 196 -64 l 319 -64 l 153 -261 l 58 -261 l 196 -64 z "},"Ţ":{"ha":794,"x_min":104,"x_max":878,"o":"m 164 924 l 878 924 l 854 817 l 563 817 l 389 0 l 263 0 l 436 817 l 140 817 l 164 924 m 242 -64 l 365 -64 l 199 -261 l 104 -261 l 242 -64 z "},"Ŧ":{"ha":794,"x_min":115,"x_max":878,"o":"m 164 924 l 878 924 l 854 817 l 565 817 l 392 0 l 256 0 l 429 817 l 140 817 l 164 924 m 708 413 l 115 413 l 136 508 l 728 508 l 708 413 z "},"Ť":{"ha":794,"x_min":140,"x_max":878,"o":"m 164 924 l 878 924 l 854 817 l 563 817 l 389 0 l 263 0 l 436 817 l 140 817 l 164 924 m 500 1024 l 411 1247 l 513 1247 l 563 1090 l 679 1247 l 789 1247 l 606 1024 l 500 1024 z "},"Ú":{"ha":907,"x_min":88,"x_max":911,"o":"m 228 924 l 354 924 l 228 326 q 222 203 213 257 q 276 121 232 150 q 408 92 321 92 q 522 100 469 92 q 615 122 575 108 l 786 924 l 911 924 l 724 39 q 565 -2 643 13 q 396 -17 486 -17 q 228 10 293 -17 q 131 84 164 36 q 93 195 99 132 q 103 333 88 258 l 228 924 m 672 1239 l 804 1239 l 606 1015 l 507 1015 l 672 1239 z "},"Û":{"ha":907,"x_min":88,"x_max":911,"o":"m 228 924 l 354 924 l 228 326 q 222 203 213 257 q 276 121 232 150 q 408 92 321 92 q 522 100 469 92 q 615 122 575 108 l 786 924 l 911 924 l 724 39 q 565 -2 643 13 q 396 -17 486 -17 q 228 10 293 -17 q 131 84 164 36 q 93 195 99 132 q 103 333 88 258 l 228 924 m 596 1239 l 701 1239 l 790 1015 l 689 1015 l 638 1172 l 522 1015 l 413 1015 l 596 1239 z "},"Ü":{"ha":907,"x_min":88,"x_max":911,"o":"m 228 924 l 354 924 l 228 326 q 222 203 213 257 q 276 121 232 150 q 408 92 321 92 q 522 100 469 92 q 615 122 575 108 l 786 924 l 911 924 l 724 39 q 565 -2 643 13 q 396 -17 486 -17 q 228 10 293 -17 q 131 84 164 36 q 93 195 99 132 q 103 333 88 258 l 228 924 m 529 1200 q 569 1187 554 1200 q 583 1150 583 1174 q 560 1092 583 1115 q 501 1069 538 1069 q 463 1083 476 1069 q 449 1119 449 1096 q 472 1178 449 1156 q 529 1200 494 1200 m 751 1200 q 791 1187 776 1200 q 806 1150 806 1174 q 783 1092 806 1115 q 724 1069 760 1069 q 685 1083 699 1069 q 671 1119 671 1096 q 694 1178 671 1156 q 751 1200 717 1200 z "},"Ù":{"ha":907,"x_min":88,"x_max":911,"o":"m 228 924 l 354 924 l 228 326 q 222 203 213 257 q 276 121 232 150 q 408 92 321 92 q 522 100 469 92 q 615 122 575 108 l 786 924 l 911 924 l 724 39 q 565 -2 643 13 q 396 -17 486 -17 q 228 10 293 -17 q 131 84 164 36 q 93 195 99 132 q 103 333 88 258 l 228 924 m 463 1239 l 589 1239 l 656 1015 l 567 1015 l 463 1239 z "},"Ŭ":{"ha":907,"x_min":88,"x_max":911,"o":"m 228 924 l 354 924 l 228 326 q 222 203 213 257 q 276 121 232 150 q 408 92 321 92 q 522 100 469 92 q 615 122 575 108 l 786 924 l 911 924 l 724 39 q 565 -2 643 13 q 396 -17 486 -17 q 228 10 293 -17 q 131 84 164 36 q 93 195 99 132 q 103 333 88 258 l 228 924 m 449 1215 l 543 1215 q 554 1137 533 1160 q 622 1114 575 1114 q 701 1137 671 1114 q 743 1215 731 1160 l 839 1215 q 763 1078 817 1121 q 618 1036 708 1036 q 517 1055 560 1036 q 456 1113 474 1074 q 449 1215 438 1153 z "},"Ű":{"ha":907,"x_min":88,"x_max":911,"o":"m 228 924 l 354 924 l 228 326 q 222 203 213 257 q 276 121 232 150 q 408 92 321 92 q 522 100 469 92 q 615 122 575 108 l 786 924 l 911 924 l 724 39 q 565 -2 643 13 q 396 -17 486 -17 q 228 10 293 -17 q 131 84 164 36 q 93 195 99 132 q 103 333 88 258 l 228 924 m 547 1239 l 654 1239 l 524 1015 l 442 1015 l 547 1239 m 733 1239 l 847 1239 l 693 1015 l 608 1015 l 733 1239 z "},"Ū":{"ha":907,"x_min":88,"x_max":911,"o":"m 228 924 l 354 924 l 228 326 q 222 203 213 257 q 276 121 232 150 q 408 92 321 92 q 522 100 469 92 q 615 122 575 108 l 786 924 l 911 924 l 724 39 q 565 -2 643 13 q 396 -17 486 -17 q 228 10 293 -17 q 131 84 164 36 q 93 195 99 132 q 103 333 88 258 l 228 924 m 460 1158 l 804 1158 l 786 1076 l 443 1076 l 460 1158 z "},"Ų":{"ha":907,"x_min":88,"x_max":911,"o":"m 228 924 l 354 924 l 228 326 q 222 203 213 257 q 276 121 232 150 q 407 92 321 92 q 522 99 468 92 q 615 121 575 107 l 786 924 l 911 924 l 724 38 q 565 -2 643 11 q 396 -15 486 -15 q 228 11 293 -15 q 131 85 164 38 q 93 195 99 132 q 103 332 88 258 l 228 924 m 681 -162 l 676 -231 q 635 -242 658 -237 q 589 -247 613 -247 q 503 -224 533 -247 q 474 -158 474 -201 q 499 -80 474 -117 q 562 -13 525 -43 q 633 36 599 17 l 724 38 q 653 -15 689 14 q 594 -74 618 -43 q 571 -139 571 -106 q 583 -166 571 -158 q 615 -174 594 -174 q 681 -162 649 -174 z "},"Ů":{"ha":907,"x_min":88,"x_max":911,"o":"m 228 924 l 354 924 l 228 326 q 222 203 213 257 q 276 121 232 150 q 408 92 321 92 q 522 100 469 92 q 615 122 575 108 l 786 924 l 911 924 l 724 39 q 565 -2 643 13 q 396 -17 486 -17 q 228 10 293 -17 q 131 84 164 36 q 93 195 99 132 q 103 333 88 258 l 228 924 m 611 1068 q 667 1088 644 1068 q 689 1143 689 1108 q 675 1180 689 1169 q 638 1190 661 1190 q 582 1171 604 1190 q 560 1115 560 1151 q 574 1078 560 1089 q 611 1068 588 1068 m 640 1251 q 731 1224 696 1251 q 765 1144 765 1197 q 722 1044 765 1081 q 607 1007 678 1007 q 517 1035 553 1007 q 482 1114 482 1063 q 526 1214 482 1176 q 640 1251 571 1251 z "},"Ũ":{"ha":907,"x_min":88,"x_max":911,"o":"m 228 924 l 354 924 l 228 326 q 222 203 213 257 q 276 121 232 150 q 408 92 321 92 q 522 100 469 92 q 615 122 575 108 l 786 924 l 911 924 l 724 39 q 565 -2 643 13 q 396 -17 486 -17 q 228 10 293 -17 q 131 84 164 36 q 93 195 99 132 q 103 333 88 258 l 228 924 m 479 1054 l 403 1085 q 455 1161 424 1129 q 536 1193 486 1193 q 598 1179 568 1193 q 654 1151 628 1165 q 701 1138 681 1138 q 743 1154 729 1138 q 769 1194 757 1171 l 844 1165 q 789 1086 821 1118 q 708 1054 757 1054 q 649 1069 679 1054 q 594 1098 619 1083 q 547 1113 568 1113 q 506 1094 521 1113 q 479 1054 490 1076 z "},"Ẃ":{"ha":1225,"x_min":171,"x_max":1289,"o":"m 314 0 l 189 0 l 171 924 l 294 924 l 297 160 l 639 739 l 749 739 l 844 153 q 1020 515 939 325 q 1171 924 1101 704 l 1289 924 q 1201 672 1246 790 q 1106 442 1156 553 q 1001 222 1057 331 q 878 0 944 114 l 760 0 l 669 603 l 314 0 m 835 1239 l 967 1239 l 768 1015 l 669 1015 l 835 1239 z "},"Ŵ":{"ha":1225,"x_min":171,"x_max":1289,"o":"m 314 0 l 189 0 l 171 924 l 294 924 l 297 160 l 639 739 l 749 739 l 844 153 q 1020 515 939 325 q 1171 924 1101 704 l 1289 924 q 1201 672 1246 790 q 1106 442 1156 553 q 1001 222 1057 331 q 878 0 944 114 l 760 0 l 669 603 l 314 0 m 758 1239 l 864 1239 l 953 1015 l 851 1015 l 800 1172 l 685 1015 l 575 1015 l 758 1239 z "},"Ẅ":{"ha":1225,"x_min":171,"x_max":1289,"o":"m 314 0 l 189 0 l 171 924 l 294 924 l 297 160 l 639 739 l 749 739 l 844 153 q 1020 515 939 325 q 1171 924 1101 704 l 1289 924 q 1201 672 1246 790 q 1106 442 1156 553 q 1001 222 1057 331 q 878 0 944 114 l 760 0 l 669 603 l 314 0 m 692 1200 q 731 1187 717 1200 q 746 1150 746 1174 q 723 1092 746 1115 q 664 1069 700 1069 q 625 1083 639 1069 q 611 1119 611 1096 q 634 1178 611 1156 q 692 1200 657 1200 m 914 1200 q 953 1187 939 1200 q 968 1150 968 1174 q 945 1092 968 1115 q 886 1069 922 1069 q 847 1083 861 1069 q 833 1119 833 1096 q 856 1178 833 1156 q 914 1200 879 1200 z "},"Ẁ":{"ha":1225,"x_min":171,"x_max":1289,"o":"m 314 0 l 189 0 l 171 924 l 294 924 l 297 160 l 639 739 l 749 739 l 844 153 q 1020 515 939 325 q 1171 924 1101 704 l 1289 924 q 1201 672 1246 790 q 1106 442 1156 553 q 1001 222 1057 331 q 878 0 944 114 l 760 0 l 669 603 l 314 0 m 625 1239 l 751 1239 l 818 1015 l 729 1015 l 625 1239 z "},"Ý":{"ha":811,"x_min":157,"x_max":892,"o":"m 268 0 l 338 329 l 157 924 l 282 924 l 425 439 q 518 534 469 479 q 613 654 567 589 q 699 788 660 719 q 761 924 738 857 l 892 924 q 777 703 844 813 q 630 499 710 594 q 464 332 550 404 l 393 0 l 268 0 m 628 1239 l 760 1239 l 561 1015 l 463 1015 l 628 1239 z "},"Ÿ":{"ha":811,"x_min":157,"x_max":892,"o":"m 268 0 l 338 329 l 157 924 l 282 924 l 425 439 q 518 534 469 479 q 613 654 567 589 q 699 788 660 719 q 761 924 738 857 l 892 924 q 777 703 844 813 q 630 499 710 594 q 464 332 550 404 l 393 0 l 268 0 m 485 1200 q 524 1187 510 1200 q 539 1150 539 1174 q 516 1092 539 1115 q 457 1069 493 1069 q 418 1083 432 1069 q 404 1119 404 1096 q 427 1178 404 1156 q 485 1200 450 1200 m 707 1200 q 747 1187 732 1200 q 761 1150 761 1174 q 738 1092 761 1115 q 679 1069 715 1069 q 640 1083 654 1069 q 626 1119 626 1096 q 649 1178 626 1156 q 707 1200 672 1200 z "},"Ŷ":{"ha":811,"x_min":157,"x_max":892,"o":"m 268 0 l 338 329 l 157 924 l 282 924 l 425 439 q 518 534 469 479 q 613 654 567 589 q 699 788 660 719 q 761 924 738 857 l 892 924 q 777 703 844 813 q 630 499 710 594 q 464 332 550 404 l 393 0 l 268 0 m 551 1239 l 657 1239 l 746 1015 l 644 1015 l 593 1172 l 478 1015 l 368 1015 l 551 1239 z "},"Ỳ":{"ha":811,"x_min":157,"x_max":892,"o":"m 268 0 l 338 329 l 157 924 l 282 924 l 425 439 q 518 534 469 479 q 613 654 567 589 q 699 788 660 719 q 761 924 738 857 l 892 924 q 777 703 844 813 q 630 499 710 594 q 464 332 550 404 l 393 0 l 268 0 m 418 1239 l 544 1239 l 611 1015 l 522 1015 l 418 1239 z "},"Ž":{"ha":781,"x_min":-19,"x_max":839,"o":"m 193 924 l 839 924 l 817 825 l 161 108 l 678 108 l 654 0 l -19 0 l 0 100 l 657 817 l 169 817 l 193 924 m 492 1015 l 403 1239 l 504 1239 l 554 1082 l 671 1239 l 781 1239 l 597 1015 l 492 1015 z "},"Ź":{"ha":781,"x_min":-19,"x_max":839,"o":"m 193 924 l 839 924 l 817 825 l 161 108 l 678 108 l 654 0 l -19 0 l 0 100 l 657 817 l 169 817 l 193 924 m 615 1239 l 747 1239 l 549 1015 l 450 1015 l 615 1239 z "},"Ż":{"ha":781,"x_min":-19,"x_max":839,"o":"m 193 924 l 839 924 l 817 825 l 161 108 l 678 108 l 654 0 l -19 0 l 0 100 l 657 817 l 169 817 l 193 924 m 582 1200 q 628 1186 611 1200 q 644 1146 644 1172 q 621 1087 644 1107 q 557 1067 597 1067 q 511 1081 528 1067 q 494 1122 494 1096 q 519 1181 494 1163 q 582 1200 543 1200 z "},"á":{"ha":815,"x_min":54,"x_max":744,"o":"m 290 -17 q 169 10 222 -17 q 85 94 115 38 q 54 242 54 151 q 102 481 54 375 q 240 649 150 588 q 456 711 329 711 q 585 697 519 711 q 713 660 650 683 l 611 185 q 606 142 606 161 q 622 97 606 110 q 665 83 638 83 q 703 87 683 83 q 744 99 724 90 l 729 4 q 678 -11 703 -6 q 628 -17 653 -17 q 548 3 581 -17 q 504 64 515 22 q 414 8 468 33 q 290 -17 360 -17 m 579 589 q 515 606 549 600 q 444 611 481 611 q 300 561 361 611 q 206 428 239 511 q 172 244 172 346 q 210 122 172 161 q 311 83 247 83 q 403 101 358 83 q 486 150 447 119 l 579 589 m 544 1014 l 676 1014 l 478 790 l 379 790 l 544 1014 z "},"â":{"ha":815,"x_min":54,"x_max":744,"o":"m 290 -17 q 169 10 222 -17 q 85 94 115 38 q 54 242 54 151 q 102 481 54 375 q 240 649 150 588 q 456 711 329 711 q 585 697 519 711 q 713 660 650 683 l 611 185 q 606 142 606 161 q 622 97 606 110 q 665 83 638 83 q 703 87 683 83 q 744 99 724 90 l 729 4 q 678 -11 703 -6 q 628 -17 653 -17 q 548 3 581 -17 q 504 64 515 22 q 414 8 468 33 q 290 -17 360 -17 m 579 589 q 515 606 549 600 q 444 611 481 611 q 300 561 361 611 q 206 428 239 511 q 172 244 172 346 q 210 122 172 161 q 311 83 247 83 q 403 101 358 83 q 486 150 447 119 l 579 589 m 468 1014 l 574 1014 l 663 790 l 561 790 l 510 947 l 394 790 l 285 790 l 468 1014 z "},"ä":{"ha":815,"x_min":54,"x_max":744,"o":"m 290 -17 q 169 10 222 -17 q 85 94 115 38 q 54 242 54 151 q 102 481 54 375 q 240 649 150 588 q 456 711 329 711 q 585 697 519 711 q 713 660 650 683 l 611 185 q 606 142 606 161 q 622 97 606 110 q 665 83 638 83 q 703 87 683 83 q 744 99 724 90 l 729 4 q 678 -11 703 -6 q 628 -17 653 -17 q 548 3 581 -17 q 504 64 515 22 q 414 8 468 33 q 290 -17 360 -17 m 579 589 q 515 606 549 600 q 444 611 481 611 q 300 561 361 611 q 206 428 239 511 q 172 244 172 346 q 210 122 172 161 q 311 83 247 83 q 403 101 358 83 q 486 150 447 119 l 579 589 m 401 975 q 441 962 426 975 q 456 925 456 949 q 433 867 456 890 q 374 844 410 844 q 335 858 349 844 q 321 894 321 871 q 344 953 321 931 q 401 975 367 975 m 624 975 q 663 962 649 975 q 678 925 678 949 q 655 867 678 890 q 596 844 632 844 q 557 858 571 844 q 543 894 543 871 q 566 953 543 931 q 624 975 589 975 z "},"à":{"ha":815,"x_min":54,"x_max":744,"o":"m 290 -17 q 169 10 222 -17 q 85 94 115 38 q 54 242 54 151 q 102 481 54 375 q 240 649 150 588 q 456 711 329 711 q 585 697 519 711 q 713 660 650 683 l 611 185 q 606 142 606 161 q 622 97 606 110 q 665 83 638 83 q 703 87 683 83 q 744 99 724 90 l 729 4 q 678 -11 703 -6 q 628 -17 653 -17 q 548 3 581 -17 q 504 64 515 22 q 414 8 468 33 q 290 -17 360 -17 m 579 589 q 515 606 549 600 q 444 611 481 611 q 300 561 361 611 q 206 428 239 511 q 172 244 172 346 q 210 122 172 161 q 311 83 247 83 q 403 101 358 83 q 486 150 447 119 l 579 589 m 335 1014 l 461 1014 l 528 790 l 439 790 l 335 1014 z "},"å":{"ha":815,"x_min":54,"x_max":744,"o":"m 290 -17 q 169 10 222 -17 q 85 94 115 38 q 54 242 54 151 q 102 481 54 375 q 240 649 150 588 q 456 711 329 711 q 585 697 519 711 q 713 660 650 683 l 611 185 q 606 142 606 161 q 622 97 606 110 q 665 83 638 83 q 703 87 683 83 q 744 99 724 90 l 729 4 q 678 -11 703 -6 q 628 -17 653 -17 q 548 3 581 -17 q 504 64 515 22 q 414 8 468 33 q 290 -17 360 -17 m 579 589 q 515 606 549 600 q 444 611 481 611 q 300 561 361 611 q 206 428 239 511 q 172 244 172 346 q 210 122 172 161 q 311 83 247 83 q 403 101 358 83 q 486 150 447 119 l 579 589 m 483 843 q 539 863 517 843 q 561 918 561 883 q 547 955 561 944 q 510 965 533 965 q 454 946 476 965 q 432 890 432 926 q 446 853 432 864 q 483 843 460 843 m 513 1026 q 603 999 568 1026 q 638 919 638 972 q 594 819 638 856 q 479 782 550 782 q 390 810 425 782 q 354 889 354 838 q 399 989 354 951 q 513 1026 443 1026 z "},"ã":{"ha":815,"x_min":54,"x_max":744,"o":"m 290 -17 q 169 10 222 -17 q 85 94 115 38 q 54 242 54 151 q 102 481 54 375 q 240 649 150 588 q 456 711 329 711 q 585 697 519 711 q 713 660 650 683 l 611 185 q 606 142 606 161 q 622 97 606 110 q 665 83 638 83 q 703 87 683 83 q 744 99 724 90 l 729 4 q 678 -11 703 -6 q 628 -17 653 -17 q 548 3 581 -17 q 504 64 515 22 q 414 8 468 33 q 290 -17 360 -17 m 579 589 q 515 606 549 600 q 444 611 481 611 q 300 561 361 611 q 206 428 239 511 q 172 244 172 346 q 210 122 172 161 q 311 83 247 83 q 403 101 358 83 q 486 150 447 119 l 579 589 m 351 829 l 275 860 q 327 936 296 904 q 408 968 358 968 q 470 954 440 968 q 526 926 500 940 q 574 913 553 913 q 615 929 601 913 q 642 969 629 946 l 717 940 q 661 861 693 893 q 581 829 629 829 q 522 844 551 829 q 466 873 492 858 q 419 888 440 888 q 378 869 393 888 q 351 829 363 851 z "},"ă":{"ha":815,"x_min":54,"x_max":744,"o":"m 290 -17 q 169 10 222 -17 q 85 94 115 38 q 54 242 54 151 q 102 481 54 375 q 240 649 150 588 q 456 711 329 711 q 585 697 519 711 q 713 660 650 683 l 611 185 q 606 142 606 161 q 622 97 606 110 q 665 83 638 83 q 703 87 683 83 q 744 99 724 90 l 729 4 q 678 -11 703 -6 q 628 -17 653 -17 q 548 3 581 -17 q 504 64 515 22 q 414 8 468 33 q 290 -17 360 -17 m 579 589 q 515 606 549 600 q 444 611 481 611 q 300 561 361 611 q 206 428 239 511 q 172 244 172 346 q 210 122 172 161 q 311 83 247 83 q 403 101 358 83 q 486 150 447 119 l 579 589 m 321 990 l 415 990 q 426 912 406 935 q 494 889 447 889 q 573 912 543 889 q 615 990 603 935 l 711 990 q 635 853 689 896 q 490 811 581 811 q 389 830 432 811 q 328 888 346 849 q 321 990 310 928 z "},"ā":{"ha":815,"x_min":54,"x_max":744,"o":"m 290 -17 q 169 10 222 -17 q 85 94 115 38 q 54 242 54 151 q 102 481 54 375 q 240 649 150 588 q 456 711 329 711 q 585 697 519 711 q 713 660 650 683 l 611 185 q 606 142 606 161 q 622 97 606 110 q 665 83 638 83 q 703 87 683 83 q 744 99 724 90 l 729 4 q 678 -11 703 -6 q 628 -17 653 -17 q 548 3 581 -17 q 504 64 515 22 q 414 8 468 33 q 290 -17 360 -17 m 579 589 q 515 606 549 600 q 444 611 481 611 q 300 561 361 611 q 206 428 239 511 q 172 244 172 346 q 210 122 172 161 q 311 83 247 83 q 403 101 358 83 q 486 150 447 119 l 579 589 m 332 933 l 676 933 l 658 851 l 315 851 l 332 933 z "},"ą":{"ha":815,"x_min":54,"x_max":744,"o":"m 693 -162 l 690 -231 q 649 -242 672 -237 q 601 -247 625 -247 q 517 -224 547 -247 q 488 -158 488 -201 q 513 -88 488 -121 q 574 -28 538 -56 q 643 15 610 -1 l 729 4 q 665 -35 699 -12 q 607 -85 631 -58 q 583 -139 583 -111 q 595 -166 583 -158 q 628 -174 607 -174 q 660 -171 644 -174 q 693 -162 676 -168 m 290 -17 q 169 10 222 -17 q 85 94 115 38 q 54 242 54 151 q 102 481 54 375 q 240 649 150 588 q 456 711 329 711 q 585 697 519 711 q 713 660 650 683 l 611 185 q 606 142 606 161 q 622 97 606 110 q 665 83 638 83 q 703 87 683 83 q 744 99 724 90 l 729 4 q 678 -11 703 -6 q 628 -17 653 -17 q 548 3 581 -17 q 504 64 515 22 q 414 8 468 33 q 290 -17 360 -17 m 579 589 q 515 606 549 600 q 444 611 481 611 q 300 561 361 611 q 206 428 239 511 q 172 244 172 346 q 210 122 172 161 q 311 83 247 83 q 403 101 358 83 q 486 150 447 119 l 579 589 z "},"ǻ":{"ha":815,"x_min":54,"x_max":744,"o":"m 508 844 q 563 865 540 844 q 586 921 586 886 q 572 958 586 947 q 533 968 557 968 q 478 949 501 968 q 456 893 456 929 q 470 856 456 867 q 508 844 485 844 m 538 1029 q 628 1001 593 1029 q 663 922 663 974 q 618 822 663 858 q 504 785 574 785 q 414 813 449 785 q 379 892 379 840 q 424 992 379 954 q 538 1029 468 1029 m 596 1153 l 728 1153 l 561 972 l 464 972 l 596 1153 m 290 -17 q 169 10 222 -17 q 85 94 115 38 q 54 242 54 151 q 102 481 54 375 q 240 649 150 588 q 456 711 329 711 q 585 697 519 711 q 713 660 650 683 l 611 185 q 606 142 606 161 q 622 97 606 110 q 665 83 638 83 q 703 87 683 83 q 744 99 724 90 l 729 4 q 678 -11 703 -6 q 628 -17 653 -17 q 548 3 581 -17 q 504 64 515 22 q 414 8 468 33 q 290 -17 360 -17 m 579 589 q 515 606 549 600 q 444 611 481 611 q 300 561 361 611 q 206 428 239 511 q 172 244 172 346 q 210 122 172 161 q 311 83 247 83 q 403 101 358 83 q 486 150 447 119 l 579 589 z "},"ç":{"ha":596,"x_min":54,"x_max":628,"o":"m 628 689 l 596 597 q 526 611 561 607 q 453 615 490 615 q 329 585 382 615 q 241 503 276 556 q 188 385 206 451 q 171 243 171 318 q 210 118 171 158 q 343 78 250 78 q 416 84 376 78 q 497 100 456 90 l 488 6 q 404 -10 444 -4 q 324 -17 364 -17 q 122 47 189 -17 q 54 240 54 110 q 81 423 54 338 q 158 573 107 508 q 283 674 208 638 q 453 711 357 711 q 544 706 499 711 q 628 689 589 701 m 217 -54 l 303 -54 q 319 -101 313 -74 q 325 -154 325 -128 q 289 -242 325 -212 q 182 -272 253 -272 q 131 -269 158 -272 q 82 -256 103 -265 l 110 -187 q 140 -195 121 -192 q 172 -199 158 -199 q 219 -183 204 -199 q 235 -135 235 -167 q 229 -94 235 -115 q 217 -54 224 -72 z "},"ć":{"ha":596,"x_min":54,"x_max":667,"o":"m 628 689 l 596 597 q 526 611 561 607 q 453 615 490 615 q 329 585 382 615 q 241 503 276 556 q 188 385 206 451 q 171 243 171 318 q 210 118 171 158 q 343 78 250 78 q 416 84 376 78 q 497 100 456 90 l 488 6 q 404 -10 444 -4 q 324 -17 364 -17 q 122 47 189 -17 q 54 240 54 110 q 81 423 54 338 q 158 573 107 508 q 283 674 208 638 q 453 711 357 711 q 544 706 499 711 q 628 689 589 701 m 535 1014 l 667 1014 l 468 790 l 369 790 l 535 1014 z "},"č":{"ha":596,"x_min":54,"x_max":700,"o":"m 628 689 l 596 597 q 526 611 561 607 q 453 615 490 615 q 329 585 382 615 q 241 503 276 556 q 188 385 206 451 q 171 243 171 318 q 210 118 171 158 q 343 78 250 78 q 416 84 376 78 q 497 100 456 90 l 488 6 q 404 -10 444 -4 q 324 -17 364 -17 q 122 47 189 -17 q 54 240 54 110 q 81 423 54 338 q 158 573 107 508 q 283 674 208 638 q 453 711 357 711 q 544 706 499 711 q 628 689 589 701 m 411 790 l 322 1014 l 424 1014 l 474 857 l 590 1014 l 700 1014 l 517 790 l 411 790 z "},"ĉ":{"ha":596,"x_min":54,"x_max":653,"o":"m 628 689 l 596 597 q 526 611 561 607 q 453 615 490 615 q 329 585 382 615 q 241 503 276 556 q 188 385 206 451 q 171 243 171 318 q 210 118 171 158 q 343 78 250 78 q 416 84 376 78 q 497 100 456 90 l 488 6 q 404 -10 444 -4 q 324 -17 364 -17 q 122 47 189 -17 q 54 240 54 110 q 81 423 54 338 q 158 573 107 508 q 283 674 208 638 q 453 711 357 711 q 544 706 499 711 q 628 689 589 701 m 458 1014 l 564 1014 l 653 790 l 551 790 l 500 947 l 385 790 l 275 790 l 458 1014 z "},"ċ":{"ha":596,"x_min":54,"x_max":628,"o":"m 628 689 l 596 597 q 526 611 561 607 q 453 615 490 615 q 329 585 382 615 q 241 503 276 556 q 188 385 206 451 q 171 243 171 318 q 210 118 171 158 q 343 78 250 78 q 416 84 376 78 q 497 100 456 90 l 488 6 q 404 -10 444 -4 q 324 -17 364 -17 q 122 47 189 -17 q 54 240 54 110 q 81 423 54 338 q 158 573 107 508 q 283 674 208 638 q 453 711 357 711 q 544 706 499 711 q 628 689 589 701 m 501 975 q 547 961 531 975 q 564 921 564 947 q 540 862 564 882 q 476 842 517 842 q 431 856 447 842 q 414 897 414 871 q 438 956 414 938 q 501 975 463 975 z "},"ď":{"ha":907,"x_min":56,"x_max":1058,"o":"m 292 -17 q 170 10 224 -17 q 86 94 117 38 q 56 242 56 151 q 103 481 56 375 q 240 649 150 588 q 454 711 329 711 q 527 706 490 711 q 600 689 564 700 l 669 1014 l 789 1014 l 613 185 q 607 142 607 161 q 623 97 607 110 q 667 83 639 83 q 706 87 685 83 q 746 99 726 90 l 731 4 q 680 -11 706 -6 q 629 -17 654 -17 q 550 3 582 -17 q 507 64 518 22 q 415 8 469 33 q 292 -17 361 -17 m 581 589 q 516 606 550 600 q 446 611 482 611 q 301 561 363 611 q 207 428 240 511 q 174 244 174 346 q 210 122 174 161 q 314 83 247 83 q 404 101 360 83 q 488 150 449 119 l 581 589 m 929 1014 l 1058 1014 l 889 718 l 792 718 l 929 1014 z "},"đ":{"ha":813,"x_min":53,"x_max":869,"o":"m 414 829 l 431 907 l 869 907 l 854 829 l 414 829 m 289 -15 q 166 11 219 -15 q 83 94 113 38 q 53 242 53 151 q 100 481 53 375 q 236 649 147 588 q 450 711 325 711 q 523 706 486 711 q 597 689 560 700 l 667 1014 l 785 1014 l 608 185 q 604 160 606 171 q 603 140 603 150 q 619 96 603 110 q 663 82 635 82 q 701 86 681 82 q 743 99 722 90 l 726 4 q 676 -10 701 -6 q 625 -15 650 -15 q 546 4 578 -15 q 503 64 514 24 q 412 9 465 33 q 289 -15 358 -15 m 576 588 q 512 605 546 599 q 442 611 478 611 q 296 561 357 611 q 202 428 235 511 q 169 244 169 344 q 207 122 169 161 q 310 83 244 83 q 400 101 356 83 q 483 150 444 119 l 576 588 z "},"é":{"ha":699,"x_min":53,"x_max":657,"o":"m 168 310 l 181 400 q 231 394 203 397 q 288 390 258 392 q 343 389 318 389 q 485 422 436 389 q 533 519 533 456 q 501 592 533 568 q 415 615 468 615 q 289 572 344 615 q 201 446 233 529 q 169 243 169 363 q 211 128 169 171 q 354 86 253 86 q 461 96 406 86 q 556 115 517 106 l 544 14 q 447 -6 499 4 q 335 -17 396 -17 q 184 12 247 -17 q 87 99 121 40 q 53 243 53 157 q 77 427 53 342 q 149 576 101 513 q 266 676 197 640 q 424 711 335 711 q 595 661 533 711 q 657 528 657 611 q 618 396 657 447 q 510 321 579 344 q 346 297 440 297 q 253 301 303 297 q 168 310 203 306 m 521 1014 l 653 1014 l 454 790 l 356 790 l 521 1014 z "},"ê":{"ha":699,"x_min":53,"x_max":657,"o":"m 168 310 l 181 400 q 231 394 203 397 q 288 390 258 392 q 343 389 318 389 q 485 422 436 389 q 533 519 533 456 q 501 592 533 568 q 415 615 468 615 q 289 572 344 615 q 201 446 233 529 q 169 243 169 363 q 211 128 169 171 q 354 86 253 86 q 461 96 406 86 q 556 115 517 106 l 544 14 q 447 -6 499 4 q 335 -17 396 -17 q 184 12 247 -17 q 87 99 121 40 q 53 243 53 157 q 77 427 53 342 q 149 576 101 513 q 266 676 197 640 q 424 711 335 711 q 595 661 533 711 q 657 528 657 611 q 618 396 657 447 q 510 321 579 344 q 346 297 440 297 q 253 301 303 297 q 168 310 203 306 m 444 1014 l 550 1014 l 639 790 l 538 790 l 486 947 l 371 790 l 261 790 l 444 1014 z "},"ë":{"ha":699,"x_min":53,"x_max":657,"o":"m 168 310 l 181 400 q 231 394 203 397 q 288 390 258 392 q 343 389 318 389 q 485 422 436 389 q 533 519 533 456 q 501 592 533 568 q 415 615 468 615 q 289 572 344 615 q 201 446 233 529 q 169 243 169 363 q 211 128 169 171 q 354 86 253 86 q 461 96 406 86 q 556 115 517 106 l 544 14 q 447 -6 499 4 q 335 -17 396 -17 q 184 12 247 -17 q 87 99 121 40 q 53 243 53 157 q 77 427 53 342 q 149 576 101 513 q 266 676 197 640 q 424 711 335 711 q 595 661 533 711 q 657 528 657 611 q 618 396 657 447 q 510 321 579 344 q 346 297 440 297 q 253 301 303 297 q 168 310 203 306 m 378 975 q 417 962 403 975 q 432 925 432 949 q 409 867 432 890 q 350 844 386 844 q 311 858 325 844 q 297 894 297 871 q 320 953 297 931 q 378 975 343 975 m 600 975 q 640 962 625 975 q 654 925 654 949 q 631 867 654 890 q 572 844 608 844 q 533 858 547 844 q 519 894 519 871 q 542 953 519 931 q 600 975 565 975 z "},"è":{"ha":699,"x_min":53,"x_max":657,"o":"m 168 310 l 181 400 q 231 394 203 397 q 288 390 258 392 q 343 389 318 389 q 485 422 436 389 q 533 519 533 456 q 501 592 533 568 q 415 615 468 615 q 289 572 344 615 q 201 446 233 529 q 169 243 169 363 q 211 128 169 171 q 354 86 253 86 q 461 96 406 86 q 556 115 517 106 l 544 14 q 447 -6 499 4 q 335 -17 396 -17 q 184 12 247 -17 q 87 99 121 40 q 53 243 53 157 q 77 427 53 342 q 149 576 101 513 q 266 676 197 640 q 424 711 335 711 q 595 661 533 711 q 657 528 657 611 q 618 396 657 447 q 510 321 579 344 q 346 297 440 297 q 253 301 303 297 q 168 310 203 306 m 311 1014 l 438 1014 l 504 790 l 415 790 l 311 1014 z "},"ĕ":{"ha":699,"x_min":53,"x_max":688,"o":"m 168 310 l 181 400 q 231 394 203 397 q 288 390 258 392 q 343 389 318 389 q 485 422 436 389 q 533 519 533 456 q 501 592 533 568 q 415 615 468 615 q 289 572 344 615 q 201 446 233 529 q 169 243 169 363 q 211 128 169 171 q 354 86 253 86 q 461 96 406 86 q 556 115 517 106 l 544 14 q 447 -6 499 4 q 335 -17 396 -17 q 184 12 247 -17 q 87 99 121 40 q 53 243 53 157 q 77 427 53 342 q 149 576 101 513 q 266 676 197 640 q 424 711 335 711 q 595 661 533 711 q 657 528 657 611 q 618 396 657 447 q 510 321 579 344 q 346 297 440 297 q 253 301 303 297 q 168 310 203 306 m 297 990 l 392 990 q 403 912 382 935 q 471 889 424 889 q 549 912 519 889 q 592 990 579 935 l 688 990 q 611 853 665 896 q 467 811 557 811 q 365 830 408 811 q 304 888 322 849 q 297 990 286 928 z "},"ě":{"ha":699,"x_min":53,"x_max":686,"o":"m 168 310 l 181 400 q 231 394 203 397 q 288 390 258 392 q 343 389 318 389 q 485 422 436 389 q 533 519 533 456 q 501 592 533 568 q 415 615 468 615 q 289 572 344 615 q 201 446 233 529 q 169 243 169 363 q 211 128 169 171 q 354 86 253 86 q 461 96 406 86 q 556 115 517 106 l 544 14 q 447 -6 499 4 q 335 -17 396 -17 q 184 12 247 -17 q 87 99 121 40 q 53 243 53 157 q 77 427 53 342 q 149 576 101 513 q 266 676 197 640 q 424 711 335 711 q 595 661 533 711 q 657 528 657 611 q 618 396 657 447 q 510 321 579 344 q 346 297 440 297 q 253 301 303 297 q 168 310 203 306 m 397 790 l 308 1014 l 410 1014 l 460 857 l 576 1014 l 686 1014 l 503 790 l 397 790 z "},"ė":{"ha":699,"x_min":53,"x_max":657,"o":"m 168 310 l 181 400 q 231 394 203 397 q 288 390 258 392 q 343 389 318 389 q 485 422 436 389 q 533 519 533 456 q 501 592 533 568 q 415 615 468 615 q 289 572 344 615 q 201 446 233 529 q 169 243 169 363 q 211 128 169 171 q 354 86 253 86 q 461 96 406 86 q 556 115 517 106 l 544 14 q 447 -6 499 4 q 335 -17 396 -17 q 184 12 247 -17 q 87 99 121 40 q 53 243 53 157 q 77 427 53 342 q 149 576 101 513 q 266 676 197 640 q 424 711 335 711 q 595 661 533 711 q 657 528 657 611 q 618 396 657 447 q 510 321 579 344 q 346 297 440 297 q 253 301 303 297 q 168 310 203 306 m 488 975 q 533 961 517 975 q 550 921 550 947 q 526 862 550 882 q 463 842 503 842 q 417 856 433 842 q 400 897 400 871 q 424 956 400 938 q 488 975 449 975 z "},"ē":{"ha":699,"x_min":53,"x_max":657,"o":"m 168 310 l 181 400 q 231 394 203 397 q 288 390 258 392 q 343 389 318 389 q 485 422 436 389 q 533 519 533 456 q 501 592 533 568 q 415 615 468 615 q 289 572 344 615 q 201 446 233 529 q 169 243 169 363 q 211 128 169 171 q 354 86 253 86 q 461 96 406 86 q 556 115 517 106 l 544 14 q 447 -6 499 4 q 335 -17 396 -17 q 184 12 247 -17 q 87 99 121 40 q 53 243 53 157 q 77 427 53 342 q 149 576 101 513 q 266 676 197 640 q 424 711 335 711 q 595 661 533 711 q 657 528 657 611 q 618 396 657 447 q 510 321 579 344 q 346 297 440 297 q 253 301 303 297 q 168 310 203 306 m 308 933 l 653 933 l 635 851 l 292 851 l 308 933 z "},"ę":{"ha":699,"x_min":53,"x_max":657,"o":"m 168 310 l 182 400 q 231 394 203 397 q 288 390 258 392 q 343 389 317 389 q 484 422 435 389 q 533 519 533 456 q 501 592 533 568 q 415 615 468 615 q 289 572 344 615 q 201 446 233 529 q 169 243 169 363 q 210 128 169 169 q 354 86 251 86 q 460 95 406 86 q 554 115 515 104 l 544 15 q 447 -6 499 4 q 335 -15 396 -15 q 184 13 247 -15 q 87 99 121 42 q 53 243 53 157 q 78 427 53 342 q 150 576 103 513 q 266 676 197 640 q 424 711 335 711 q 595 661 533 711 q 657 528 657 611 q 619 396 657 447 q 510 320 581 344 q 346 296 440 296 q 253 301 301 296 q 168 310 204 306 m 507 -162 l 503 -231 q 461 -242 485 -237 q 414 -247 438 -247 q 330 -224 360 -247 q 300 -158 300 -201 q 325 -87 300 -121 q 387 -26 350 -53 q 457 19 424 1 l 544 15 q 478 -28 513 -3 q 419 -81 443 -53 q 396 -139 396 -110 q 408 -166 396 -158 q 440 -174 421 -174 q 473 -171 457 -174 q 507 -162 489 -168 z "},"ǽ":{"ha":1072,"x_min":14,"x_max":1049,"o":"m 561 311 l 575 400 q 624 394 596 397 q 681 390 651 392 q 736 389 710 389 q 878 422 829 389 q 928 519 928 456 q 894 592 928 568 q 808 615 861 615 q 684 572 739 615 q 598 446 629 529 q 567 243 567 363 q 606 128 567 169 q 747 86 646 86 q 853 95 799 86 q 947 115 908 104 l 938 15 q 840 -6 892 4 q 728 -15 789 -15 q 578 13 642 -15 q 481 99 515 42 q 447 243 447 157 q 472 427 447 342 q 543 576 496 513 q 659 676 590 640 q 817 711 728 711 q 987 661 925 711 q 1049 528 1049 611 q 1010 397 1049 447 q 903 322 972 346 q 739 297 833 297 q 646 302 694 297 q 561 311 597 307 m 458 311 q 388 322 425 318 q 318 326 350 326 q 177 288 228 326 q 126 181 126 250 q 161 101 126 125 q 260 78 196 78 q 372 95 321 78 q 471 138 424 113 l 533 65 q 448 23 493 42 q 355 -6 403 4 q 260 -15 307 -15 q 79 29 144 -15 q 14 175 14 74 q 36 281 14 236 q 99 356 58 326 q 193 401 139 386 q 313 415 247 415 q 390 410 353 415 q 464 399 426 406 l 482 486 q 465 585 497 554 q 353 617 433 617 q 258 610 307 617 q 167 596 210 604 l 178 689 q 273 704 222 699 q 375 710 324 710 q 508 681 460 710 q 571 592 557 653 l 458 311 m 722 1014 l 854 1014 l 656 790 l 557 790 l 722 1014 z "},"ğ":{"ha":747,"x_min":3,"x_max":717,"o":"m 292 -10 q 171 17 224 -10 q 88 100 118 44 q 57 240 57 156 q 105 483 57 376 q 242 650 153 589 q 453 711 331 711 q 585 698 518 711 q 714 663 653 685 l 571 -15 q 509 -167 551 -110 q 398 -251 467 -225 q 229 -276 329 -276 q 107 -266 165 -276 q 3 -240 49 -256 l 33 -147 q 129 -172 75 -161 q 239 -182 183 -182 q 385 -143 335 -182 q 451 -29 435 -104 l 469 49 l 474 44 q 394 6 440 22 q 292 -10 347 -10 m 582 588 q 517 605 551 599 q 446 611 482 611 q 301 561 363 611 q 208 428 240 511 q 175 244 175 346 q 213 126 175 164 q 317 89 251 89 q 407 108 363 89 q 490 157 451 126 l 582 588 m 326 990 l 421 990 q 432 912 411 935 q 500 889 453 889 q 578 912 549 889 q 621 990 608 935 l 717 990 q 640 853 694 896 q 496 811 586 811 q 394 830 438 811 q 333 888 351 849 q 326 990 315 928 z "},"ĝ":{"ha":747,"x_min":3,"x_max":714,"o":"m 292 -10 q 171 17 224 -10 q 88 100 118 44 q 57 240 57 156 q 105 483 57 376 q 242 650 153 589 q 453 711 331 711 q 585 698 518 711 q 714 663 653 685 l 571 -15 q 509 -167 551 -110 q 398 -251 467 -225 q 229 -276 329 -276 q 107 -266 165 -276 q 3 -240 49 -256 l 33 -147 q 129 -172 75 -161 q 239 -182 183 -182 q 385 -143 335 -182 q 451 -29 435 -104 l 469 49 l 474 44 q 394 6 440 22 q 292 -10 347 -10 m 582 588 q 517 605 551 599 q 446 611 482 611 q 301 561 363 611 q 208 428 240 511 q 175 244 175 346 q 213 126 175 164 q 317 89 251 89 q 407 108 363 89 q 490 157 451 126 l 582 588 m 474 1014 l 579 1014 l 668 790 l 567 790 l 515 947 l 400 790 l 290 790 l 474 1014 z "},"ģ":{"ha":747,"x_min":3,"x_max":714,"o":"m 292 -10 q 171 17 224 -10 q 88 100 118 44 q 57 240 57 156 q 105 483 57 376 q 242 650 153 589 q 453 711 331 711 q 585 698 518 711 q 714 663 653 685 l 571 -15 q 509 -167 551 -110 q 398 -251 467 -225 q 229 -276 329 -276 q 107 -266 165 -276 q 3 -240 49 -256 l 33 -147 q 129 -172 75 -161 q 239 -182 183 -182 q 385 -143 335 -182 q 451 -29 435 -104 l 469 49 l 474 44 q 394 6 440 22 q 292 -10 347 -10 m 582 588 q 517 605 551 599 q 446 611 482 611 q 301 561 363 611 q 208 428 240 511 q 175 244 175 346 q 213 126 175 164 q 317 89 251 89 q 407 108 363 89 q 490 157 451 126 l 582 588 m 579 1006 l 703 1006 l 536 808 l 442 808 l 579 1006 z "},"ġ":{"ha":747,"x_min":3,"x_max":714,"o":"m 292 -10 q 171 17 224 -10 q 88 100 118 44 q 57 240 57 156 q 105 483 57 376 q 242 650 153 589 q 453 711 331 711 q 585 698 518 711 q 714 663 653 685 l 571 -15 q 509 -167 551 -110 q 398 -251 467 -225 q 229 -276 329 -276 q 107 -266 165 -276 q 3 -240 49 -256 l 33 -147 q 129 -172 75 -161 q 239 -182 183 -182 q 385 -143 335 -182 q 451 -29 435 -104 l 469 49 l 474 44 q 394 6 440 22 q 292 -10 347 -10 m 582 588 q 517 605 551 599 q 446 611 482 611 q 301 561 363 611 q 208 428 240 511 q 175 244 175 346 q 213 126 175 164 q 317 89 251 89 q 407 108 363 89 q 490 157 451 126 l 582 588 m 517 975 q 563 961 546 975 q 579 921 579 947 q 556 862 579 882 q 492 842 532 842 q 446 856 463 842 q 429 897 429 871 q 453 956 429 938 q 517 975 478 975 z "},"ħ":{"ha":775,"x_min":47,"x_max":725,"o":"m 543 829 l 110 829 l 126 907 l 560 907 l 543 829 m 164 0 l 47 0 l 263 1014 l 378 1014 l 310 688 q 396 705 351 699 q 482 711 440 711 q 617 687 560 711 q 699 608 674 663 q 706 458 725 553 l 608 0 l 492 0 l 588 456 q 587 550 601 515 q 538 599 572 585 q 454 614 503 614 q 370 608 414 614 q 290 590 326 601 l 164 0 z "},"ĥ":{"ha":757,"x_min":28,"x_max":738,"o":"m 146 0 l 28 0 l 243 1014 l 360 1014 l 292 688 q 378 705 333 699 q 463 711 422 711 q 598 687 540 711 q 681 608 656 663 q 688 458 707 553 l 590 0 l 472 0 l 568 456 q 567 550 582 515 q 518 599 553 585 q 435 614 483 614 q 351 607 394 614 q 271 589 307 600 l 146 0 m 543 1296 l 649 1296 l 738 1072 l 636 1072 l 585 1229 l 469 1072 l 360 1072 l 543 1296 z "},"í":{"ha":382,"x_min":42,"x_max":485,"o":"m 176 696 l 293 696 l 181 176 q 184 104 171 126 q 235 82 197 82 q 274 85 254 82 q 311 96 293 89 l 292 0 q 246 -12 269 -8 q 199 -15 222 -15 q 82 30 122 -15 q 64 176 42 75 l 176 696 m 353 1014 l 485 1014 l 286 790 l 188 790 l 353 1014 z "},"î":{"ha":382,"x_min":43,"x_max":444,"o":"m 178 696 l 294 696 l 182 176 q 185 104 172 126 q 236 82 199 82 q 275 85 256 82 q 313 96 294 89 l 293 0 q 247 -12 271 -8 q 200 -15 224 -15 q 83 30 124 -15 q 65 176 43 75 l 178 696 m 250 1014 l 356 1014 l 444 790 l 343 790 l 292 947 l 176 790 l 67 790 l 250 1014 z "},"ï":{"ha":382,"x_min":42,"x_max":460,"o":"m 176 696 l 293 696 l 181 176 q 184 104 171 126 q 235 82 197 82 q 274 85 254 82 q 311 96 293 89 l 292 0 q 246 -12 269 -8 q 199 -15 222 -15 q 82 30 122 -15 q 64 176 42 75 l 176 696 m 183 975 q 223 962 208 975 q 238 925 238 949 q 215 867 238 890 q 156 844 192 844 q 117 858 131 844 q 103 894 103 871 q 126 953 103 931 q 183 975 149 975 m 406 975 q 445 962 431 975 q 460 925 460 949 q 437 867 460 890 q 378 844 414 844 q 339 858 353 844 q 325 894 325 871 q 348 953 325 931 q 406 975 371 975 z "},"ì":{"ha":382,"x_min":42,"x_max":311,"o":"m 176 696 l 293 696 l 181 176 q 184 104 171 126 q 235 82 197 82 q 274 85 254 82 q 311 96 293 89 l 292 0 q 246 -12 269 -8 q 199 -15 222 -15 q 82 30 122 -15 q 64 176 42 75 l 176 696 m 117 1014 l 243 1014 l 310 790 l 221 790 l 117 1014 z "},"ĭ":{"ha":382,"x_min":42,"x_max":493,"o":"m 176 696 l 293 696 l 181 176 q 184 104 171 126 q 235 82 197 82 q 274 85 254 82 q 311 96 293 89 l 292 0 q 246 -12 269 -8 q 199 -15 222 -15 q 82 30 122 -15 q 64 176 42 75 l 176 696 m 103 990 l 197 990 q 208 912 188 935 q 276 889 229 889 q 355 912 325 889 q 397 990 385 935 l 493 990 q 417 853 471 896 q 272 811 363 811 q 171 830 214 811 q 110 888 128 849 q 103 990 92 928 z "},"ī":{"ha":382,"x_min":42,"x_max":458,"o":"m 176 696 l 293 696 l 181 176 q 184 104 171 126 q 235 82 197 82 q 274 85 254 82 q 311 96 293 89 l 292 0 q 246 -12 269 -8 q 199 -15 222 -15 q 82 30 122 -15 q 64 176 42 75 l 176 696 m 114 933 l 458 933 l 440 851 l 97 851 l 114 933 z "},"į":{"ha":382,"x_min":42,"x_max":357,"o":"m 258 -162 l 254 -231 q 213 -242 236 -237 q 165 -247 189 -247 q 81 -224 111 -247 q 51 -158 51 -201 q 76 -90 51 -122 q 137 -30 101 -57 q 207 14 172 -3 l 292 0 q 228 -38 261 -15 q 171 -87 194 -61 q 147 -139 147 -112 q 159 -166 147 -158 q 192 -174 171 -174 q 224 -171 208 -174 q 258 -162 240 -168 m 175 696 l 293 696 l 182 178 q 185 106 172 128 q 235 83 197 83 q 274 87 254 83 q 311 97 293 90 l 292 0 q 246 -12 269 -8 q 199 -17 222 -17 q 82 29 122 -17 q 64 176 42 75 l 175 696 m 294 979 q 340 967 324 979 q 357 928 357 954 q 331 867 357 889 q 267 844 306 844 q 221 858 238 844 q 204 897 204 872 q 230 958 204 938 q 294 979 256 979 z "},"ĩ":{"ha":382,"x_min":42,"x_max":499,"o":"m 176 696 l 293 696 l 181 176 q 184 104 171 126 q 235 82 197 82 q 274 85 254 82 q 311 96 293 89 l 292 0 q 246 -12 269 -8 q 199 -15 222 -15 q 82 30 122 -15 q 64 176 42 75 l 176 696 m 133 829 l 57 860 q 109 936 78 904 q 190 968 140 968 q 252 954 222 968 q 308 926 282 940 q 356 913 335 913 q 397 929 383 913 q 424 969 411 946 l 499 940 q 443 861 475 893 q 363 829 411 829 q 303 844 333 829 q 248 873 274 858 q 201 888 222 888 q 160 869 175 888 q 133 829 144 851 z "},"ĵ":{"ha":321,"x_min":-154,"x_max":438,"o":"m 176 696 l 293 696 l 163 82 q 131 -28 150 19 q 83 -115 113 -75 q 6 -193 53 -156 q -110 -274 -40 -231 l -154 -199 q -70 -134 -104 -165 q -14 -70 -36 -103 q 23 0 8 -37 q 47 85 38 38 l 176 696 m 243 1014 l 349 1014 l 438 790 l 336 790 l 285 947 l 169 790 l 60 790 l 243 1014 z "},"ķ":{"ha":700,"x_min":28,"x_max":726,"o":"m 243 1014 l 361 1014 l 219 353 l 599 696 l 726 696 l 413 406 q 515 329 481 382 q 567 192 550 276 l 607 0 l 490 0 l 453 171 q 408 285 438 244 q 322 340 379 325 l 196 235 l 146 0 l 28 0 l 243 1014 m 235 -64 l 358 -64 l 192 -261 l 97 -261 l 235 -64 z "},"ĸ":{"ha":700,"x_min":28,"x_max":726,"o":"m 176 696 l 293 696 l 219 351 l 599 696 l 726 696 l 413 406 q 515 330 479 383 q 567 193 550 276 l 606 0 l 490 0 l 453 171 q 408 284 438 244 q 322 340 379 324 l 194 235 l 146 0 l 28 0 l 176 696 z "},"ĺ":{"ha":424,"x_min":51,"x_max":581,"o":"m 243 1014 l 360 1014 l 183 188 q 192 107 172 131 q 251 83 213 83 q 306 88 279 83 q 353 99 332 93 l 335 3 q 277 -12 307 -7 q 217 -17 247 -17 q 122 5 161 -17 q 67 72 83 26 q 67 188 51 117 l 243 1014 m 449 1289 l 581 1289 l 382 1065 l 283 1065 l 449 1289 z "},"ľ":{"ha":504,"x_min":51,"x_max":632,"o":"m 243 1014 l 360 1014 l 183 188 q 192 107 172 131 q 251 83 213 83 q 306 88 279 83 q 353 99 332 93 l 335 3 q 277 -12 307 -7 q 217 -17 247 -17 q 122 5 161 -17 q 67 72 83 26 q 67 188 51 117 l 243 1014 m 503 1014 l 632 1014 l 463 718 l 365 718 l 503 1014 z "},"ļ":{"ha":424,"x_min":-132,"x_max":360,"o":"m 243 1014 l 360 1014 l 183 188 q 192 107 172 131 q 251 83 213 83 q 306 88 279 83 q 353 99 332 93 l 335 3 q 277 -12 307 -7 q 217 -17 247 -17 q 122 5 161 -17 q 67 72 83 26 q 67 188 51 117 l 243 1014 m 6 -64 l 129 -64 l -37 -261 l -132 -261 l 6 -64 z "},"ŀ":{"ha":494,"x_min":51,"x_max":514,"o":"m 243 1014 l 360 1014 l 183 188 q 192 107 172 131 q 251 83 213 83 q 306 88 279 83 q 353 99 332 93 l 335 3 q 277 -12 307 -7 q 217 -17 247 -17 q 122 5 161 -17 q 67 72 83 26 q 67 188 51 117 l 243 1014 m 451 546 q 497 531 481 546 q 514 492 514 517 q 490 433 514 453 q 426 413 467 413 q 381 427 397 413 q 364 467 364 442 q 388 526 364 507 q 451 546 413 546 z "},"ñ":{"ha":757,"x_min":28,"x_max":708,"o":"m 146 0 l 28 0 l 168 663 q 312 699 242 686 q 450 711 382 711 q 593 688 532 711 q 681 609 654 664 q 689 460 708 554 l 590 0 l 472 0 l 568 456 q 567 550 582 515 q 519 599 553 585 q 436 614 485 614 q 352 607 396 614 q 272 589 308 600 l 146 0 m 343 829 l 267 860 q 319 936 288 904 q 400 968 350 968 q 462 954 432 968 q 518 926 492 940 q 565 913 544 913 q 607 929 593 913 q 633 969 621 946 l 708 940 q 653 861 685 893 q 572 829 621 829 q 513 844 543 829 q 458 873 483 858 q 411 888 432 888 q 369 869 385 888 q 343 829 354 851 z "},"ń":{"ha":757,"x_min":28,"x_max":708,"o":"m 146 0 l 28 0 l 168 663 q 312 699 242 686 q 450 711 382 711 q 593 688 532 711 q 681 609 654 664 q 689 460 708 554 l 590 0 l 472 0 l 568 456 q 567 550 582 515 q 519 599 553 585 q 436 614 485 614 q 352 607 396 614 q 272 589 308 600 l 146 0 m 536 1014 l 668 1014 l 469 790 l 371 790 l 536 1014 z "},"ň":{"ha":757,"x_min":28,"x_max":708,"o":"m 146 0 l 28 0 l 168 663 q 312 699 242 686 q 450 711 382 711 q 593 688 532 711 q 681 609 654 664 q 689 460 708 554 l 590 0 l 472 0 l 568 456 q 567 550 582 515 q 519 599 553 585 q 436 614 485 614 q 352 607 396 614 q 272 589 308 600 l 146 0 m 413 790 l 324 1014 l 425 1014 l 475 857 l 592 1014 l 701 1014 l 518 790 l 413 790 z "},"ņ":{"ha":757,"x_min":28,"x_max":708,"o":"m 146 0 l 28 0 l 168 663 q 312 699 242 686 q 450 711 382 711 q 593 688 532 711 q 681 609 654 664 q 689 460 708 554 l 590 0 l 472 0 l 568 456 q 567 550 582 515 q 519 599 553 585 q 436 614 485 614 q 352 607 396 614 q 272 589 308 600 l 146 0 m 244 -64 l 368 -64 l 201 -261 l 107 -261 l 244 -64 z "},"ŋ":{"ha":757,"x_min":26,"x_max":706,"o":"m 143 0 l 26 0 l 167 663 q 310 699 240 686 q 449 711 381 711 q 591 688 531 711 q 678 609 651 664 q 686 461 706 554 l 604 82 q 573 -28 592 19 q 524 -115 554 -75 q 448 -193 494 -156 q 332 -274 401 -231 l 288 -199 q 372 -134 338 -165 q 429 -70 407 -103 q 465 1 451 -37 q 489 85 479 39 l 568 456 q 566 550 581 515 q 517 599 551 585 q 433 614 482 614 q 349 608 393 614 q 269 590 306 601 l 143 0 z "},"ó":{"ha":750,"x_min":53,"x_max":700,"o":"m 436 711 q 631 649 563 711 q 700 461 700 588 q 676 288 700 372 q 603 134 651 203 q 483 24 556 65 q 315 -17 411 -17 q 121 47 189 -17 q 53 236 53 110 q 76 408 53 324 q 148 562 100 493 q 268 671 196 631 q 436 711 340 711 m 319 82 q 431 112 382 82 q 514 195 481 142 q 565 317 547 249 q 582 463 582 386 q 544 576 582 539 q 432 614 507 614 q 320 584 369 614 q 237 501 271 554 q 185 379 203 447 q 168 233 168 311 q 206 119 168 157 q 319 82 244 82 m 564 1014 l 696 1014 l 497 790 l 399 790 l 564 1014 z "},"ô":{"ha":750,"x_min":53,"x_max":700,"o":"m 436 711 q 631 649 563 711 q 700 461 700 588 q 676 288 700 372 q 603 134 651 203 q 483 24 556 65 q 315 -17 411 -17 q 121 47 189 -17 q 53 236 53 110 q 76 408 53 324 q 148 562 100 493 q 268 671 196 631 q 436 711 340 711 m 319 82 q 431 112 382 82 q 514 195 481 142 q 565 317 547 249 q 582 463 582 386 q 544 576 582 539 q 432 614 507 614 q 320 584 369 614 q 237 501 271 554 q 185 379 203 447 q 168 233 168 311 q 206 119 168 157 q 319 82 244 82 m 458 1014 l 564 1014 l 653 790 l 551 790 l 500 947 l 385 790 l 275 790 l 458 1014 z "},"ö":{"ha":750,"x_min":53,"x_max":700,"o":"m 436 711 q 631 649 563 711 q 700 461 700 588 q 676 288 700 372 q 603 134 651 203 q 483 24 556 65 q 315 -17 411 -17 q 121 47 189 -17 q 53 236 53 110 q 76 408 53 324 q 148 562 100 493 q 268 671 196 631 q 436 711 340 711 m 319 82 q 431 112 382 82 q 514 195 481 142 q 565 317 547 249 q 582 463 582 386 q 544 576 582 539 q 432 614 507 614 q 320 584 369 614 q 237 501 271 554 q 185 379 203 447 q 168 233 168 311 q 206 119 168 157 q 319 82 244 82 m 389 975 q 428 962 414 975 q 443 925 443 949 q 420 867 443 890 q 361 844 397 844 q 322 858 336 844 q 308 894 308 871 q 331 953 308 931 q 389 975 354 975 m 611 975 q 651 962 636 975 q 665 925 665 949 q 642 867 665 890 q 583 844 619 844 q 544 858 558 844 q 531 894 531 871 q 553 953 531 931 q 611 975 576 975 z "},"ò":{"ha":750,"x_min":53,"x_max":700,"o":"m 436 711 q 631 649 563 711 q 700 461 700 588 q 676 288 700 372 q 603 134 651 203 q 483 24 556 65 q 315 -17 411 -17 q 121 47 189 -17 q 53 236 53 110 q 76 408 53 324 q 148 562 100 493 q 268 671 196 631 q 436 711 340 711 m 319 82 q 431 112 382 82 q 514 195 481 142 q 565 317 547 249 q 582 463 582 386 q 544 576 582 539 q 432 614 507 614 q 320 584 369 614 q 237 501 271 554 q 185 379 203 447 q 168 233 168 311 q 206 119 168 157 q 319 82 244 82 m 333 1014 l 460 1014 l 526 790 l 438 790 l 333 1014 z "},"õ":{"ha":750,"x_min":53,"x_max":703,"o":"m 436 711 q 631 649 563 711 q 700 461 700 588 q 676 288 700 372 q 603 134 651 203 q 483 24 556 65 q 315 -17 411 -17 q 121 47 189 -17 q 53 236 53 110 q 76 408 53 324 q 148 562 100 493 q 268 671 196 631 q 436 711 340 711 m 319 82 q 431 112 382 82 q 514 195 481 142 q 565 317 547 249 q 582 463 582 386 q 544 576 582 539 q 432 614 507 614 q 320 584 369 614 q 237 501 271 554 q 185 379 203 447 q 168 233 168 311 q 206 119 168 157 q 319 82 244 82 m 338 829 l 261 860 q 313 936 282 904 q 394 968 344 968 q 456 954 426 968 q 513 926 486 940 q 560 913 539 913 q 601 929 588 913 q 628 969 615 946 l 703 940 q 647 861 679 893 q 567 829 615 829 q 508 844 538 829 q 452 873 478 858 q 406 888 426 888 q 364 869 379 888 q 338 829 349 851 z "},"ŏ":{"ha":750,"x_min":53,"x_max":700,"o":"m 436 711 q 631 649 563 711 q 700 461 700 588 q 676 288 700 372 q 603 134 651 203 q 483 24 556 65 q 315 -17 411 -17 q 121 47 189 -17 q 53 236 53 110 q 76 408 53 324 q 148 562 100 493 q 268 671 196 631 q 436 711 340 711 m 319 82 q 431 112 382 82 q 514 195 481 142 q 565 317 547 249 q 582 463 582 386 q 544 576 582 539 q 432 614 507 614 q 320 584 369 614 q 237 501 271 554 q 185 379 203 447 q 168 233 168 311 q 206 119 168 157 q 319 82 244 82 m 307 990 l 401 990 q 413 912 392 935 q 481 889 433 889 q 559 912 529 889 q 601 990 589 935 l 697 990 q 621 853 675 896 q 476 811 567 811 q 375 830 418 811 q 314 888 332 849 q 307 990 296 928 z "},"ő":{"ha":750,"x_min":53,"x_max":735,"o":"m 436 711 q 631 649 563 711 q 700 461 700 588 q 676 288 700 372 q 603 134 651 203 q 483 24 556 65 q 315 -17 411 -17 q 121 47 189 -17 q 53 236 53 110 q 76 408 53 324 q 148 562 100 493 q 268 671 196 631 q 436 711 340 711 m 319 82 q 431 112 382 82 q 514 195 481 142 q 565 317 547 249 q 582 463 582 386 q 544 576 582 539 q 432 614 507 614 q 320 584 369 614 q 237 501 271 554 q 185 379 203 447 q 168 233 168 311 q 206 119 168 157 q 319 82 244 82 m 435 1014 l 542 1014 l 411 790 l 329 790 l 435 1014 m 621 1014 l 735 1014 l 581 790 l 496 790 l 621 1014 z "},"ō":{"ha":750,"x_min":53,"x_max":700,"o":"m 436 711 q 631 649 563 711 q 700 461 700 588 q 676 288 700 372 q 603 134 651 203 q 483 24 556 65 q 315 -17 411 -17 q 121 47 189 -17 q 53 236 53 110 q 76 408 53 324 q 148 562 100 493 q 268 671 196 631 q 436 711 340 711 m 319 82 q 431 112 382 82 q 514 195 481 142 q 565 317 547 249 q 582 463 582 386 q 544 576 582 539 q 432 614 507 614 q 320 584 369 614 q 237 501 271 554 q 185 379 203 447 q 168 233 168 311 q 206 119 168 157 q 319 82 244 82 m 318 933 l 663 933 l 644 851 l 301 851 l 318 933 z "},"ǿ":{"ha":751,"x_min":-18,"x_max":765,"o":"m 56 -110 l -18 -65 l 693 806 l 765 760 l 56 -110 m 435 711 q 629 649 561 711 q 697 461 697 588 q 674 288 697 372 q 602 134 650 203 q 482 25 554 65 q 314 -15 410 -15 q 120 47 189 -15 q 51 235 51 108 q 75 408 51 324 q 147 562 99 493 q 267 671 194 631 q 435 711 339 711 m 318 81 q 431 111 382 81 q 515 194 481 142 q 566 317 549 247 q 583 463 583 386 q 545 577 583 539 q 431 615 507 615 q 317 585 367 615 q 234 501 268 554 q 183 379 200 449 q 165 233 165 310 q 203 119 165 157 q 318 81 242 81 m 569 1014 l 701 1014 l 503 790 l 404 790 l 569 1014 z "},"ŕ":{"ha":467,"x_min":26,"x_max":579,"o":"m 519 711 l 499 615 q 375 608 433 615 q 268 590 317 601 l 144 0 l 26 0 l 167 663 q 343 700 256 689 q 519 711 431 711 m 447 1014 l 579 1014 l 381 790 l 282 790 l 447 1014 z "},"ř":{"ha":467,"x_min":26,"x_max":613,"o":"m 519 711 l 499 615 q 375 608 433 615 q 268 590 317 601 l 144 0 l 26 0 l 167 663 q 343 700 256 689 q 519 711 431 711 m 324 790 l 235 1014 l 336 1014 l 386 857 l 503 1014 l 613 1014 l 429 790 l 324 790 z "},"ŗ":{"ha":467,"x_min":-135,"x_max":519,"o":"m 519 711 l 499 615 q 375 608 433 615 q 268 590 317 601 l 144 0 l 26 0 l 167 663 q 343 700 256 689 q 519 711 431 711 m 3 -64 l 126 -64 l -40 -261 l -135 -261 l 3 -64 z "},"š":{"ha":585,"x_min":-7,"x_max":631,"o":"m 576 689 l 547 597 q 467 614 508 608 q 375 619 425 619 q 255 594 294 619 q 215 525 215 569 q 244 461 215 488 q 316 412 274 435 q 401 360 358 389 q 474 291 444 332 q 503 188 503 250 q 470 78 503 124 q 374 8 438 32 q 218 -17 310 -17 q 96 -4 158 -17 q -7 24 33 8 l 25 114 q 117 89 64 100 q 219 78 169 78 q 341 108 306 78 q 376 185 376 138 q 356 244 376 219 q 303 288 336 268 q 235 328 271 308 q 167 374 200 349 q 115 436 135 400 q 94 524 94 472 q 128 628 94 588 q 224 690 161 669 q 378 711 288 711 q 480 706 431 711 q 576 689 529 700 m 342 790 l 253 1014 l 354 1014 l 404 857 l 521 1014 l 631 1014 l 447 790 l 342 790 z "},"ś":{"ha":585,"x_min":-7,"x_max":597,"o":"m 576 689 l 547 597 q 467 614 508 608 q 375 619 425 619 q 255 594 294 619 q 215 525 215 569 q 244 461 215 488 q 316 412 274 435 q 401 360 358 389 q 474 291 444 332 q 503 188 503 250 q 470 78 503 124 q 374 8 438 32 q 218 -17 310 -17 q 96 -4 158 -17 q -7 24 33 8 l 25 114 q 117 89 64 100 q 219 78 169 78 q 341 108 306 78 q 376 185 376 138 q 356 244 376 219 q 303 288 336 268 q 235 328 271 308 q 167 374 200 349 q 115 436 135 400 q 94 524 94 472 q 128 628 94 588 q 224 690 161 669 q 378 711 288 711 q 480 706 431 711 q 576 689 529 700 m 465 1014 l 597 1014 l 399 790 l 300 790 l 465 1014 z "},"ş":{"ha":585,"x_min":-7,"x_max":576,"o":"m 576 689 l 547 597 q 467 614 508 608 q 375 619 425 619 q 255 594 294 619 q 215 525 215 569 q 244 461 215 488 q 316 412 274 435 q 401 360 358 389 q 474 291 444 332 q 503 188 503 250 q 470 78 503 124 q 374 8 438 32 q 218 -17 310 -17 q 96 -4 158 -17 q -7 24 33 8 l 25 114 q 117 89 64 100 q 219 78 169 78 q 341 108 306 78 q 376 185 376 138 q 356 244 376 219 q 303 288 336 268 q 235 328 271 308 q 167 374 200 349 q 115 436 135 400 q 94 524 94 472 q 128 628 94 588 q 224 690 161 669 q 378 711 288 711 q 480 706 431 711 q 576 689 529 700 m 169 -61 l 256 -61 q 272 -108 265 -81 q 278 -161 278 -135 q 242 -249 278 -219 q 135 -279 206 -279 q 83 -276 111 -279 q 35 -262 56 -272 l 63 -194 q 92 -202 74 -199 q 125 -206 111 -206 q 172 -190 157 -206 q 188 -142 188 -174 q 182 -101 188 -122 q 169 -61 176 -79 z "},"ŝ":{"ha":585,"x_min":-7,"x_max":583,"o":"m 576 689 l 547 597 q 467 614 508 608 q 375 619 425 619 q 255 594 294 619 q 215 525 215 569 q 244 461 215 488 q 316 412 274 435 q 401 360 358 389 q 474 291 444 332 q 503 188 503 250 q 470 78 503 124 q 374 8 438 32 q 218 -17 310 -17 q 96 -4 158 -17 q -7 24 33 8 l 25 114 q 117 89 64 100 q 219 78 169 78 q 341 108 306 78 q 376 185 376 138 q 356 244 376 219 q 303 288 336 268 q 235 328 271 308 q 167 374 200 349 q 115 436 135 400 q 94 524 94 472 q 128 628 94 588 q 224 690 161 669 q 378 711 288 711 q 480 706 431 711 q 576 689 529 700 m 389 1014 l 494 1014 l 583 790 l 482 790 l 431 947 l 315 790 l 206 790 l 389 1014 z "},"ș":{"ha":585,"x_min":-7,"x_max":576,"o":"m 576 689 l 547 597 q 467 614 508 608 q 375 619 425 619 q 255 594 294 619 q 215 525 215 569 q 244 461 215 488 q 316 412 274 435 q 401 360 358 389 q 474 291 444 332 q 503 188 503 250 q 470 78 503 124 q 374 8 438 32 q 218 -17 310 -17 q 96 -4 158 -17 q -7 24 33 8 l 25 114 q 117 89 64 100 q 219 78 169 78 q 341 108 306 78 q 376 185 376 138 q 356 244 376 219 q 303 288 336 268 q 235 328 271 308 q 167 374 200 349 q 115 436 135 400 q 94 524 94 472 q 128 628 94 588 q 224 690 161 669 q 378 711 288 711 q 480 706 431 711 q 576 689 529 700 m 138 -64 l 261 -64 l 94 -261 l 0 -261 l 138 -64 z "},"ţ":{"ha":499,"x_min":-14,"x_max":517,"o":"m 265 854 l 358 854 l 324 696 l 517 696 l 496 603 l 304 603 l 217 189 q 227 107 204 131 q 294 83 250 83 q 350 89 319 83 q 403 100 381 94 l 388 4 q 324 -11 357 -6 q 260 -17 292 -17 q 160 5 201 -17 q 101 72 118 26 q 99 188 83 118 l 186 603 l 82 603 l 103 696 l 207 696 l 265 854 m 124 -64 l 247 -64 l 81 -261 l -14 -261 l 124 -64 z "},"ț":{"ha":499,"x_min":-14,"x_max":517,"o":"m 265 854 l 358 854 l 324 696 l 517 696 l 496 603 l 304 603 l 217 189 q 227 107 204 131 q 294 83 250 83 q 350 89 319 83 q 403 100 381 94 l 388 4 q 324 -11 357 -6 q 260 -17 292 -17 q 160 5 201 -17 q 101 72 118 26 q 99 188 83 118 l 186 603 l 82 603 l 103 696 l 207 696 l 265 854 m 124 -64 l 247 -64 l 81 -261 l -14 -261 l 124 -64 z "},"ŧ":{"ha":499,"x_min":25,"x_max":515,"o":"m 25 336 l 43 419 l 426 419 l 408 336 l 25 336 m 264 854 l 356 854 l 322 696 l 515 696 l 494 603 l 303 603 l 215 189 q 225 106 203 131 q 292 82 247 82 q 349 88 318 82 q 403 100 379 93 l 386 6 q 322 -10 356 -6 q 258 -15 289 -15 q 158 6 200 -15 q 99 72 117 26 q 97 188 82 117 l 186 603 l 82 603 l 101 696 l 206 696 l 264 854 z "},"ť":{"ha":511,"x_min":83,"x_max":642,"o":"m 532 1014 l 642 1014 l 496 781 l 417 781 l 532 1014 m 265 854 l 357 854 l 324 696 l 517 696 l 496 603 l 304 603 l 215 189 q 226 106 204 131 q 293 82 249 82 q 349 88 318 82 q 404 100 381 93 l 388 6 q 324 -10 357 -6 q 260 -15 290 -15 q 160 6 201 -15 q 101 72 118 26 q 99 188 83 117 l 188 603 l 83 603 l 103 696 l 207 696 l 265 854 z "},"ú":{"ha":807,"x_min":53,"x_max":736,"o":"m 721 4 q 619 -17 669 -17 q 540 3 572 -17 q 496 61 507 22 q 407 7 461 31 q 283 -17 353 -17 q 156 12 211 -17 q 77 99 101 40 q 71 247 53 158 l 167 696 l 285 696 l 189 244 q 190 151 175 186 q 236 99 204 115 q 308 83 268 83 q 398 103 356 83 q 478 154 440 122 l 593 696 l 711 696 l 601 179 q 606 106 592 129 q 656 83 621 83 q 694 87 674 83 q 736 99 715 90 l 721 4 m 536 1014 l 668 1014 l 469 790 l 371 790 l 536 1014 z "},"û":{"ha":807,"x_min":53,"x_max":736,"o":"m 721 4 q 619 -17 669 -17 q 540 3 572 -17 q 496 61 507 22 q 407 7 461 31 q 283 -17 353 -17 q 156 12 211 -17 q 77 99 101 40 q 71 247 53 158 l 167 696 l 285 696 l 189 244 q 190 151 175 186 q 236 99 204 115 q 308 83 268 83 q 398 103 356 83 q 478 154 440 122 l 593 696 l 711 696 l 601 179 q 606 106 592 129 q 656 83 621 83 q 694 87 674 83 q 736 99 715 90 l 721 4 m 456 1014 l 561 1014 l 650 790 l 549 790 l 497 947 l 382 790 l 272 790 l 456 1014 z "},"ü":{"ha":807,"x_min":53,"x_max":736,"o":"m 721 4 q 619 -17 669 -17 q 540 3 572 -17 q 496 61 507 22 q 407 7 461 31 q 283 -17 353 -17 q 156 12 211 -17 q 77 99 101 40 q 71 247 53 158 l 167 696 l 285 696 l 189 244 q 190 151 175 186 q 236 99 204 115 q 308 83 268 83 q 398 103 356 83 q 478 154 440 122 l 593 696 l 711 696 l 601 179 q 606 106 592 129 q 656 83 621 83 q 694 87 674 83 q 736 99 715 90 l 721 4 m 393 975 q 433 962 418 975 q 447 925 447 949 q 424 867 447 890 q 365 844 401 844 q 326 858 340 844 q 313 894 313 871 q 335 953 313 931 q 393 975 358 975 m 615 975 q 655 962 640 975 q 669 925 669 949 q 647 867 669 890 q 588 844 624 844 q 549 858 563 844 q 535 894 535 871 q 558 953 535 931 q 615 975 581 975 z "},"ù":{"ha":807,"x_min":53,"x_max":736,"o":"m 721 4 q 619 -17 669 -17 q 540 3 572 -17 q 496 61 507 22 q 407 7 461 31 q 283 -17 353 -17 q 156 12 211 -17 q 77 99 101 40 q 71 247 53 158 l 167 696 l 285 696 l 189 244 q 190 151 175 186 q 236 99 204 115 q 308 83 268 83 q 398 103 356 83 q 478 154 440 122 l 593 696 l 711 696 l 601 179 q 606 106 592 129 q 656 83 621 83 q 694 87 674 83 q 736 99 715 90 l 721 4 m 319 1014 l 446 1014 l 513 790 l 424 790 l 319 1014 z "},"ŭ":{"ha":807,"x_min":53,"x_max":736,"o":"m 721 4 q 619 -17 669 -17 q 540 3 572 -17 q 496 61 507 22 q 407 7 461 31 q 283 -17 353 -17 q 156 12 211 -17 q 77 99 101 40 q 71 247 53 158 l 167 696 l 285 696 l 189 244 q 190 151 175 186 q 236 99 204 115 q 308 83 268 83 q 398 103 356 83 q 478 154 440 122 l 593 696 l 711 696 l 601 179 q 606 106 592 129 q 656 83 621 83 q 694 87 674 83 q 736 99 715 90 l 721 4 m 310 990 l 404 990 q 415 912 394 935 q 483 889 436 889 q 562 912 532 889 q 604 990 592 935 l 700 990 q 624 853 678 896 q 479 811 569 811 q 378 830 421 811 q 317 888 335 849 q 310 990 299 928 z "},"ű":{"ha":807,"x_min":53,"x_max":736,"o":"m 721 4 q 619 -17 669 -17 q 540 3 572 -17 q 496 61 507 22 q 407 7 461 31 q 283 -17 353 -17 q 156 12 211 -17 q 77 99 101 40 q 71 247 53 158 l 167 696 l 285 696 l 189 244 q 190 151 175 186 q 236 99 204 115 q 308 83 268 83 q 398 103 356 83 q 478 154 440 122 l 593 696 l 711 696 l 601 179 q 606 106 592 129 q 656 83 621 83 q 694 87 674 83 q 736 99 715 90 l 721 4 m 436 1014 l 543 1014 l 413 790 l 331 790 l 436 1014 m 622 1014 l 736 1014 l 582 790 l 497 790 l 622 1014 z "},"ū":{"ha":807,"x_min":53,"x_max":736,"o":"m 721 4 q 619 -17 669 -17 q 540 3 572 -17 q 496 61 507 22 q 407 7 461 31 q 283 -17 353 -17 q 156 12 211 -17 q 77 99 101 40 q 71 247 53 158 l 167 696 l 285 696 l 189 244 q 190 151 175 186 q 236 99 204 115 q 308 83 268 83 q 398 103 356 83 q 478 154 440 122 l 593 696 l 711 696 l 601 179 q 606 106 592 129 q 656 83 621 83 q 694 87 674 83 q 736 99 715 90 l 721 4 m 321 933 l 665 933 l 647 851 l 304 851 l 321 933 z "},"ų":{"ha":817,"x_min":53,"x_max":736,"o":"m 721 4 q 669 -10 694 -6 q 618 -15 644 -15 q 540 3 571 -15 q 497 61 508 22 q 407 8 461 31 q 283 -15 353 -15 q 156 13 211 -15 q 77 100 101 42 q 72 247 53 158 l 168 696 l 285 696 l 188 243 q 189 151 175 186 q 235 99 203 115 q 308 83 268 83 q 399 103 356 83 q 478 154 442 122 l 594 696 l 711 696 l 601 179 q 606 105 592 128 q 656 82 621 82 q 694 86 674 82 q 736 99 715 90 l 721 4 m 685 -162 l 681 -231 q 639 -242 663 -237 q 592 -247 615 -247 q 508 -224 538 -247 q 478 -158 478 -201 q 503 -87 478 -121 q 565 -27 528 -54 q 635 17 601 0 l 721 4 q 656 -35 690 -11 q 597 -85 621 -58 q 574 -139 574 -111 q 586 -166 574 -158 q 618 -174 599 -174 q 651 -171 635 -174 q 685 -162 667 -168 z "},"ů":{"ha":807,"x_min":53,"x_max":736,"o":"m 721 4 q 619 -17 669 -17 q 540 3 572 -17 q 496 61 507 22 q 407 7 461 31 q 283 -17 353 -17 q 156 12 211 -17 q 77 99 101 40 q 71 247 53 158 l 167 696 l 285 696 l 189 244 q 190 151 175 186 q 236 99 204 115 q 308 83 268 83 q 398 103 356 83 q 478 154 440 122 l 593 696 l 711 696 l 601 179 q 606 106 592 129 q 656 83 621 83 q 694 87 674 83 q 736 99 715 90 l 721 4 m 468 843 q 524 863 501 843 q 546 918 546 883 q 532 955 546 944 q 494 965 518 965 q 439 946 461 965 q 417 890 417 926 q 431 853 417 864 q 468 843 444 843 m 497 1026 q 588 999 553 1026 q 622 919 622 972 q 578 819 622 856 q 464 782 535 782 q 374 810 410 782 q 339 889 339 838 q 383 989 339 951 q 497 1026 428 1026 z "},"ũ":{"ha":807,"x_min":53,"x_max":736,"o":"m 721 4 q 619 -17 669 -17 q 540 3 572 -17 q 496 61 507 22 q 407 7 461 31 q 283 -17 353 -17 q 156 12 211 -17 q 77 99 101 40 q 71 247 53 158 l 167 696 l 285 696 l 189 244 q 190 151 175 186 q 236 99 204 115 q 308 83 268 83 q 398 103 356 83 q 478 154 440 122 l 593 696 l 711 696 l 601 179 q 606 106 592 129 q 656 83 621 83 q 694 87 674 83 q 736 99 715 90 l 721 4 m 336 829 l 260 860 q 312 936 281 904 q 393 968 343 968 q 455 954 425 968 q 511 926 485 940 q 558 913 538 913 q 600 929 586 913 q 626 969 614 946 l 701 940 q 646 861 678 893 q 565 829 614 829 q 506 844 536 829 q 451 873 476 858 q 404 888 425 888 q 363 869 378 888 q 336 829 347 851 z "},"ẃ":{"ha":1032,"x_min":113,"x_max":1058,"o":"m 647 696 l 708 126 q 835 392 774 250 q 943 696 896 533 l 1058 696 q 976 462 1021 575 q 877 235 932 349 q 751 0 822 122 l 626 0 l 567 571 l 264 0 l 126 0 l 113 696 l 233 696 l 232 131 l 531 696 l 647 696 m 682 1014 l 814 1014 l 615 790 l 517 790 l 682 1014 z "},"ŵ":{"ha":1032,"x_min":113,"x_max":1058,"o":"m 647 696 l 708 126 q 835 392 774 250 q 943 696 896 533 l 1058 696 q 976 462 1021 575 q 877 235 932 349 q 751 0 822 122 l 626 0 l 567 571 l 264 0 l 126 0 l 113 696 l 233 696 l 232 131 l 531 696 l 647 696 m 606 1014 l 711 1014 l 800 790 l 699 790 l 647 947 l 532 790 l 422 790 l 606 1014 z "},"ẅ":{"ha":1026,"x_min":113,"x_max":1058,"o":"m 647 696 l 708 126 q 835 392 774 250 q 943 696 896 533 l 1058 696 q 976 462 1021 575 q 877 235 932 349 q 751 0 822 122 l 626 0 l 567 571 l 264 0 l 126 0 l 113 696 l 233 696 l 232 131 l 531 696 l 647 696 m 539 975 q 578 962 564 975 q 593 925 593 949 q 570 867 593 890 q 511 844 547 844 q 472 858 486 844 q 458 894 458 871 q 481 953 458 931 q 539 975 504 975 m 761 975 q 801 962 786 975 q 815 925 815 949 q 792 867 815 890 q 733 844 769 844 q 694 858 708 844 q 681 894 681 871 q 703 953 681 931 q 761 975 726 975 z "},"ẁ":{"ha":1026,"x_min":113,"x_max":1058,"o":"m 647 696 l 708 126 q 835 392 774 250 q 943 696 896 533 l 1058 696 q 976 462 1021 575 q 877 235 932 349 q 751 0 822 122 l 626 0 l 567 571 l 264 0 l 126 0 l 113 696 l 233 696 l 232 131 l 531 696 l 647 696 m 472 1014 l 599 1014 l 665 790 l 576 790 l 472 1014 z "},"ý":{"ha":738,"x_min":-7,"x_max":711,"o":"m 288 -7 q 158 22 214 -7 q 78 106 103 50 q 71 246 53 161 l 167 696 l 285 696 l 190 253 q 192 160 178 196 q 238 108 206 124 q 311 92 271 92 q 401 110 358 92 q 481 163 443 129 l 593 696 l 711 696 l 558 -24 q 497 -169 540 -114 q 384 -251 454 -225 q 213 -276 314 -276 q 95 -266 153 -276 q -7 -240 38 -256 l 24 -151 q 118 -177 67 -167 q 219 -187 169 -187 q 333 -168 289 -187 q 402 -113 376 -149 q 440 -29 428 -78 l 463 61 l 486 65 q 406 16 456 39 q 288 -7 357 -7 m 531 1014 l 663 1014 l 464 790 l 365 790 l 531 1014 z "},"ÿ":{"ha":738,"x_min":-7,"x_max":711,"o":"m 288 -7 q 158 22 214 -7 q 78 106 103 50 q 71 246 53 161 l 167 696 l 285 696 l 190 253 q 192 160 178 196 q 238 108 206 124 q 311 92 271 92 q 401 110 358 92 q 481 163 443 129 l 593 696 l 711 696 l 558 -24 q 497 -169 540 -114 q 384 -251 454 -225 q 213 -276 314 -276 q 95 -266 153 -276 q -7 -240 38 -256 l 24 -151 q 118 -177 67 -167 q 219 -187 169 -187 q 333 -168 289 -187 q 402 -113 376 -149 q 440 -29 428 -78 l 463 61 l 486 65 q 406 16 456 39 q 288 -7 357 -7 m 385 975 q 424 962 410 975 q 439 925 439 949 q 416 867 439 890 q 357 844 393 844 q 318 858 332 844 q 304 894 304 871 q 327 953 304 931 q 385 975 350 975 m 607 975 q 647 962 632 975 q 661 925 661 949 q 638 867 661 890 q 579 844 615 844 q 540 858 554 844 q 526 894 526 871 q 549 953 526 931 q 607 975 572 975 z "},"ŷ":{"ha":738,"x_min":-7,"x_max":711,"o":"m 288 -7 q 158 22 214 -7 q 78 106 103 50 q 71 246 53 161 l 167 696 l 285 696 l 190 253 q 192 160 178 196 q 238 108 206 124 q 311 92 271 92 q 401 110 358 92 q 481 163 443 129 l 593 696 l 711 696 l 558 -24 q 497 -169 540 -114 q 384 -251 454 -225 q 213 -276 314 -276 q 95 -266 153 -276 q -7 -240 38 -256 l 24 -151 q 118 -177 67 -167 q 219 -187 169 -187 q 333 -168 289 -187 q 402 -113 376 -149 q 440 -29 428 -78 l 463 61 l 486 65 q 406 16 456 39 q 288 -7 357 -7 m 451 1014 l 557 1014 l 646 790 l 544 790 l 493 947 l 378 790 l 268 790 l 451 1014 z "},"ỳ":{"ha":738,"x_min":-7,"x_max":711,"o":"m 288 -7 q 158 22 214 -7 q 78 106 103 50 q 71 246 53 161 l 167 696 l 285 696 l 190 253 q 192 160 178 196 q 238 108 206 124 q 311 92 271 92 q 401 110 358 92 q 481 163 443 129 l 593 696 l 711 696 l 558 -24 q 497 -169 540 -114 q 384 -251 454 -225 q 213 -276 314 -276 q 95 -266 153 -276 q -7 -240 38 -256 l 24 -151 q 118 -177 67 -167 q 219 -187 169 -187 q 333 -168 289 -187 q 402 -113 376 -149 q 440 -29 428 -78 l 463 61 l 486 65 q 406 16 456 39 q 288 -7 357 -7 m 315 1014 l 442 1014 l 508 790 l 419 790 l 315 1014 z "},"ž":{"ha":631,"x_min":-31,"x_max":651,"o":"m 129 696 l 651 696 l 635 613 l 142 93 l 536 93 l 515 0 l -31 0 l -14 82 l 482 603 l 108 603 l 129 696 m 354 790 l 265 1014 l 367 1014 l 417 857 l 533 1014 l 643 1014 l 460 790 l 354 790 z "},"ź":{"ha":631,"x_min":-31,"x_max":651,"o":"m 129 696 l 651 696 l 635 613 l 142 93 l 536 93 l 515 0 l -31 0 l -14 82 l 482 603 l 108 603 l 129 696 m 478 1014 l 610 1014 l 411 790 l 313 790 l 478 1014 z "},"ż":{"ha":631,"x_min":-31,"x_max":651,"o":"m 129 696 l 651 696 l 635 613 l 142 93 l 536 93 l 515 0 l -31 0 l -14 82 l 482 603 l 108 603 l 129 696 m 444 975 q 490 961 474 975 q 507 921 507 947 q 483 862 507 882 q 419 842 460 842 q 374 856 390 842 q 357 897 357 871 q 381 956 357 938 q 444 975 406 975 z "},"´":{"ha":728,"x_min":364,"x_max":661,"o":"m 529 1014 l 661 1014 l 463 790 l 364 790 l 529 1014 z "},"`":{"ha":728,"x_min":319,"x_max":513,"o":"m 319 1014 l 446 1014 l 513 790 l 424 790 l 319 1014 z "},"ˆ":{"ha":728,"x_min":269,"x_max":647,"o":"m 453 1014 l 558 1014 l 647 790 l 546 790 l 494 947 l 379 790 l 269 790 l 453 1014 z "},"ˇ":{"ha":728,"x_min":317,"x_max":694,"o":"m 406 790 l 317 1014 l 418 1014 l 468 857 l 585 1014 l 694 1014 l 511 790 l 406 790 z "},"˜":{"ha":728,"x_min":260,"x_max":701,"o":"m 336 829 l 260 860 q 312 936 281 904 q 393 968 343 968 q 455 954 425 968 q 511 926 485 940 q 558 913 538 913 q 600 929 586 913 q 626 969 614 946 l 701 940 q 646 861 678 893 q 565 829 614 829 q 506 844 536 829 q 451 873 476 858 q 404 888 425 888 q 363 869 378 888 q 336 829 347 851 z "},"¨":{"ha":728,"x_min":306,"x_max":663,"o":"m 386 975 q 426 962 411 975 q 440 925 440 949 q 417 867 440 890 q 358 844 394 844 q 319 858 333 844 q 306 894 306 871 q 328 953 306 931 q 386 975 351 975 m 608 975 q 648 962 633 975 q 663 925 663 949 q 640 867 663 890 q 581 844 617 844 q 542 858 556 844 q 528 894 528 871 q 551 953 528 931 q 608 975 574 975 z "},"˚":{"ha":728,"x_min":339,"x_max":622,"o":"m 468 843 q 524 863 501 843 q 546 918 546 883 q 532 955 546 944 q 494 965 518 965 q 439 946 461 965 q 417 890 417 926 q 431 853 417 864 q 468 843 444 843 m 497 1026 q 588 999 553 1026 q 622 919 622 972 q 578 819 622 856 q 464 782 535 782 q 374 810 410 782 q 339 889 339 838 q 383 989 339 951 q 497 1026 428 1026 z "},"¸":{"ha":728,"x_min":118,"x_max":361,"o":"m 253 -57 l 339 -57 q 355 -103 349 -76 q 361 -157 361 -131 q 325 -245 361 -215 q 218 -275 289 -275 q 167 -272 194 -275 q 118 -258 139 -268 l 146 -190 q 176 -198 157 -194 q 208 -201 194 -201 q 256 -185 240 -201 q 271 -137 271 -169 q 265 -97 271 -118 q 253 -57 260 -75 z "},"˝":{"ha":728,"x_min":299,"x_max":704,"o":"m 404 1014 l 511 1014 l 381 790 l 299 790 l 404 1014 m 590 1014 l 704 1014 l 550 790 l 465 790 l 590 1014 z "},"˘":{"ha":728,"x_min":294,"x_max":696,"o":"m 306 990 l 400 990 q 411 912 390 935 q 479 889 432 889 q 558 912 528 889 q 600 990 588 935 l 696 990 q 619 853 674 896 q 475 811 565 811 q 374 830 417 811 q 313 888 331 849 q 306 990 294 928 z "},"¯":{"ha":728,"x_min":300,"x_max":661,"o":"m 317 933 l 661 933 l 643 851 l 300 851 l 317 933 z "},"˙":{"ha":728,"x_min":408,"x_max":558,"o":"m 496 975 q 542 961 525 975 q 558 921 558 947 q 535 862 558 882 q 471 842 511 842 q 425 856 442 842 q 408 897 408 871 q 433 956 408 938 q 496 975 457 975 z "},"·":{"ha":510,"x_min":185,"x_max":335,"o":"m 272 442 q 318 427 301 442 q 335 388 335 413 q 311 328 335 349 q 247 308 288 308 q 201 323 218 308 q 185 363 185 338 q 209 422 185 403 q 272 442 233 442 z "},"˛":{"ha":728,"x_min":101,"x_max":342,"o":"m 307 -162 l 304 -231 q 262 -242 285 -237 q 215 -247 239 -247 q 131 -224 161 -247 q 101 -158 101 -201 q 126 -90 101 -122 q 188 -32 151 -58 q 257 11 224 -6 l 342 0 q 278 -38 311 -15 q 221 -87 244 -61 q 197 -139 197 -112 q 209 -166 197 -158 q 242 -174 221 -174 q 274 -171 258 -174 q 307 -162 290 -168 z "},".":{"ha":364,"x_min":42,"x_max":196,"o":"m 133 119 q 179 104 163 119 q 196 64 196 89 q 170 6 196 28 q 104 -15 144 -15 q 58 -1 75 -15 q 42 40 42 14 q 68 98 42 76 q 133 119 94 119 z "},",":{"ha":389,"x_min":-44,"x_max":247,"o":"m 121 124 l 247 124 l 47 -212 l -44 -212 l 121 124 z "},":":{"ha":364,"x_min":42,"x_max":322,"o":"m 133 119 q 179 104 163 119 q 196 64 196 89 q 170 6 196 28 q 104 -15 144 -15 q 58 -1 75 -15 q 42 40 42 14 q 68 98 42 76 q 133 119 94 119 m 260 711 q 306 697 289 711 q 322 656 322 682 q 297 598 322 619 q 231 576 271 576 q 185 591 201 576 q 168 632 168 606 q 194 690 168 668 q 260 711 221 711 z "},";":{"ha":364,"x_min":-104,"x_max":322,"o":"m 63 124 l 189 124 l -11 -212 l -104 -212 l 63 124 m 260 711 q 306 697 289 711 q 322 656 322 682 q 297 598 322 619 q 231 576 271 576 q 185 591 201 576 q 168 632 168 606 q 194 690 168 668 q 260 711 221 711 z "},"…":{"ha":1117,"x_min":42,"x_max":949,"o":"m 133 119 q 179 104 163 119 q 196 64 196 89 q 170 6 196 28 q 104 -15 144 -15 q 58 -1 75 -15 q 42 40 42 14 q 68 98 42 76 q 133 119 94 119 m 510 119 q 556 104 540 119 q 572 64 572 89 q 547 6 572 28 q 481 -15 521 -15 q 435 -1 451 -15 q 419 40 419 14 q 445 98 419 76 q 510 119 471 119 m 888 119 q 933 104 917 119 q 949 64 949 89 q 924 6 949 28 q 858 -15 899 -15 q 812 -1 828 -15 q 796 40 796 14 q 822 98 796 76 q 888 119 847 119 z "},"?":{"ha":567,"x_min":117,"x_max":613,"o":"m 613 756 q 593 651 613 694 q 542 576 574 608 q 475 518 511 544 q 403 463 439 492 q 341 395 368 433 q 303 301 314 357 l 286 225 l 172 225 l 193 322 q 242 442 208 394 q 317 522 276 489 q 397 585 358 556 q 460 650 435 615 q 485 736 485 685 q 450 815 485 790 q 346 839 415 839 q 250 831 299 839 q 161 814 201 824 l 169 914 q 265 932 214 925 q 369 939 317 939 q 499 919 444 939 q 583 860 553 900 q 613 756 613 819 m 208 119 q 254 104 238 119 q 271 64 271 89 q 245 6 271 28 q 179 -15 219 -15 q 133 -1 150 -15 q 117 40 117 14 q 143 98 117 76 q 208 119 169 119 z "},"!":{"ha":396,"x_min":60,"x_max":388,"o":"m 256 924 l 388 924 l 221 225 l 126 225 l 256 924 m 151 119 q 197 104 181 119 q 214 64 214 89 q 188 6 214 28 q 122 -15 163 -15 q 76 -1 93 -15 q 60 40 60 14 q 86 98 60 76 q 151 119 113 119 z "},"¿":{"ha":542,"x_min":-51,"x_max":444,"o":"m -51 -61 q -32 44 -51 1 q 19 118 -12 86 q 86 176 50 150 q 157 232 122 203 q 219 300 192 261 q 258 393 247 339 l 275 469 l 389 469 l 367 372 q 318 254 351 301 q 243 173 285 207 q 164 110 201 139 q 101 45 126 81 q 76 -42 76 10 q 112 -120 76 -96 q 215 -144 147 -144 q 311 -136 261 -144 q 400 -118 361 -128 l 392 -218 q 297 -236 349 -229 q 192 -243 244 -243 q 63 -224 118 -243 q -22 -164 8 -204 q -51 -61 -51 -124 m 353 576 q 307 591 324 576 q 290 632 290 606 q 317 690 290 668 q 382 711 343 711 q 428 697 411 711 q 444 656 444 682 q 419 598 444 619 q 353 576 393 576 z "},"¡":{"ha":396,"x_min":11,"x_max":338,"o":"m 143 -229 l 11 -229 l 176 469 l 271 469 l 143 -229 m 246 576 q 200 591 217 576 q 183 632 183 606 q 210 690 183 668 q 275 711 236 711 q 321 697 304 711 q 338 656 338 682 q 312 598 338 619 q 246 576 286 576 z "},"(":{"ha":443,"x_min":115,"x_max":565,"o":"m 178 -244 q 131 -70 147 -164 q 115 122 115 24 q 136 358 115 240 q 197 591 157 476 q 297 812 238 706 q 435 1014 357 918 l 565 1014 q 387 732 460 882 q 276 426 314 582 q 238 117 238 269 q 252 -70 238 21 q 297 -244 267 -161 l 178 -244 z "},")":{"ha":443,"x_min":-107,"x_max":343,"o":"m 281 1014 q 328 840 313 933 q 343 647 343 746 q 322 410 343 529 q 261 178 301 292 q 161 -42 221 64 q 24 -244 101 -149 l -107 -244 q 73 38 0 -111 q 184 344 146 188 q 222 653 222 501 q 207 840 222 749 q 161 1014 192 931 l 281 1014 z "},"{":{"ha":488,"x_min":50,"x_max":608,"o":"m 63 332 l 85 443 q 170 464 144 444 q 207 532 196 483 q 220 629 215 575 q 231 740 225 683 q 247 844 238 797 q 322 983 267 938 q 488 1029 376 1029 q 559 1026 524 1029 q 608 1021 594 1024 l 579 924 q 539 929 565 926 q 493 932 513 932 q 403 905 432 932 q 363 822 374 878 q 349 723 354 779 q 338 612 343 667 q 324 515 332 557 q 280 422 310 451 q 197 379 250 393 q 252 348 233 369 q 271 289 271 326 q 256 206 271 256 q 222 100 242 156 q 187 -6 201 44 q 172 -89 172 -56 q 193 -140 172 -124 q 261 -157 214 -157 q 309 -153 281 -157 q 351 -149 338 -150 l 340 -246 q 294 -251 325 -249 q 229 -254 263 -254 q 94 -218 138 -254 q 50 -114 50 -182 q 65 -20 50 -74 q 100 89 81 33 q 135 194 119 144 q 150 278 150 244 q 130 319 150 307 q 63 332 110 331 z "},"}":{"ha":488,"x_min":-103,"x_max":454,"o":"m 442 443 l 419 332 q 335 311 360 331 q 299 243 310 292 q 285 146 290 201 q 274 34 279 90 q 258 -69 268 -22 q 184 -208 239 -162 q 17 -254 129 -254 q -53 -251 -18 -254 q -103 -246 -89 -247 l -75 -149 q -33 -154 -60 -151 q 13 -157 -7 -157 q 102 -130 74 -157 q 142 -47 131 -103 q 157 53 151 -3 q 168 164 163 108 q 182 260 174 219 q 226 353 196 325 q 307 396 256 382 q 253 428 272 407 q 235 486 235 449 q 249 569 235 519 q 283 675 264 619 q 317 781 303 731 q 332 864 332 831 q 313 915 332 899 q 244 932 293 932 q 197 929 225 932 q 153 924 168 926 l 165 1021 q 211 1026 181 1024 q 275 1029 242 1029 q 411 994 368 1029 q 454 889 454 958 q 440 795 454 849 q 405 686 425 742 q 370 581 385 631 q 356 497 356 531 q 375 457 356 468 q 442 443 394 446 z "},"[":{"ha":443,"x_min":22,"x_max":561,"o":"m 290 1014 l 561 1014 l 539 910 l 386 910 l 163 -140 l 315 -140 l 293 -244 l 22 -244 l 290 1014 z "},"]":{"ha":443,"x_min":-101,"x_max":438,"o":"m 438 1014 l 169 -244 l -101 -244 l -79 -140 l 74 -140 l 296 910 l 143 910 l 165 1014 l 438 1014 z "},"/":{"ha":633,"x_min":-74,"x_max":750,"o":"m 624 1014 l 750 1014 l 56 -74 l -74 -74 l 624 1014 z "},"\\":{"ha":633,"x_min":167,"x_max":528,"o":"m 167 1014 l 285 1014 l 528 -74 l 408 -74 l 167 1014 z "},"_":{"ha":926,"x_min":-33,"x_max":783,"o":"m -17 -26 l 783 -26 l 767 -108 l -33 -108 l -17 -26 z "},"-":{"ha":517,"x_min":79,"x_max":450,"o":"m 100 425 l 450 425 l 429 325 l 79 325 l 100 425 z "},"­":{"ha":0,"x_min":0,"x_max":0,"o":""},"–":{"ha":778,"x_min":79,"x_max":711,"o":"m 100 425 l 711 425 l 689 325 l 79 325 l 100 425 z "},"—":{"ha":1065,"x_min":79,"x_max":999,"o":"m 100 425 l 999 425 l 978 325 l 79 325 l 100 425 z "},"¦":{"ha":410,"x_min":13,"x_max":426,"o":"m 308 1111 l 426 1111 l 308 554 l 190 554 l 308 1111 m 132 279 l 250 279 l 131 -278 l 13 -278 l 132 279 z "},"|":{"ha":410,"x_min":13,"x_max":426,"o":"m 308 1111 l 426 1111 l 131 -278 l 13 -278 l 308 1111 z "},"«":{"ha":781,"x_min":82,"x_max":778,"o":"m 338 656 l 474 656 l 210 367 l 343 97 l 219 97 l 82 376 l 338 656 m 642 656 l 778 656 l 515 367 l 647 97 l 524 97 l 386 376 l 642 656 z "},"»":{"ha":781,"x_min":14,"x_max":711,"o":"m 456 97 l 318 97 l 582 386 l 450 656 l 574 656 l 711 376 l 456 97 m 150 97 l 14 97 l 278 386 l 144 656 l 268 656 l 407 376 l 150 97 z "},"‹":{"ha":475,"x_min":81,"x_max":474,"o":"m 338 656 l 474 656 l 210 367 l 343 97 l 219 97 l 81 376 l 338 656 z "},"›":{"ha":475,"x_min":14,"x_max":407,"o":"m 150 97 l 14 97 l 278 386 l 144 656 l 268 656 l 407 376 l 150 97 z "},"‚":{"ha":276,"x_min":-112,"x_max":179,"o":"m 53 124 l 179 124 l -19 -212 l -112 -212 l 53 124 z "},"„":{"ha":494,"x_min":-131,"x_max":399,"o":"m 36 124 l 163 124 l -37 -212 l -131 -212 l 36 124 m 274 124 l 399 124 l 199 -212 l 107 -212 l 274 124 z "},"‘":{"ha":304,"x_min":103,"x_max":394,"o":"m 229 588 l 103 588 l 303 924 l 394 924 l 229 588 z "},"“":{"ha":539,"x_min":101,"x_max":631,"o":"m 464 588 l 338 588 l 538 924 l 631 924 l 464 588 m 228 588 l 101 588 l 300 924 l 393 924 l 228 588 z "},"’":{"ha":304,"x_min":85,"x_max":378,"o":"m 250 924 l 378 924 l 176 588 l 85 588 l 250 924 z "},"”":{"ha":539,"x_min":83,"x_max":613,"o":"m 249 924 l 376 924 l 175 588 l 83 588 l 249 924 m 486 924 l 613 924 l 413 588 l 319 588 l 486 924 z "},"'":{"ha":297,"x_min":157,"x_max":332,"o":"m 210 924 l 332 924 l 240 586 l 157 586 l 210 924 z "},"\"":{"ha":483,"x_min":138,"x_max":540,"o":"m 189 924 l 313 924 l 221 586 l 138 586 l 189 924 m 417 924 l 540 924 l 447 586 l 364 586 l 417 924 z "},"•":{"ha":510,"x_min":122,"x_max":397,"o":"m 286 500 q 367 475 338 500 q 397 403 397 450 q 349 290 397 328 q 233 253 301 253 q 152 278 182 253 q 122 350 122 303 q 170 462 122 424 q 286 500 218 500 z "},"№":{"ha":1426,"x_min":47,"x_max":1440,"o":"m 1001 382 l 1335 382 l 1315 294 l 983 294 l 1001 382 m 243 924 l 344 924 l 743 358 l 863 924 l 983 924 l 788 0 l 667 0 l 708 196 l 324 743 l 165 0 l 47 0 l 243 924 m 1272 922 q 1398 880 1356 922 q 1440 758 1440 838 q 1427 655 1440 710 q 1385 551 1414 600 q 1308 472 1356 503 q 1192 442 1261 442 q 1066 483 1108 442 q 1024 604 1024 525 q 1037 708 1024 653 q 1079 813 1050 764 q 1156 892 1108 861 q 1272 922 1203 922 m 1199 529 q 1269 552 1240 529 q 1314 610 1297 575 q 1338 682 1331 644 q 1344 750 1344 719 q 1264 835 1344 835 q 1194 812 1222 835 q 1149 753 1167 789 q 1125 681 1132 718 q 1118 613 1118 643 q 1199 529 1118 529 z "},"&":{"ha":867,"x_min":28,"x_max":806,"o":"m 396 560 l 753 0 l 608 0 l 290 514 q 240 609 261 563 q 218 707 218 656 q 249 831 218 779 q 338 911 281 883 q 474 939 396 939 q 624 894 569 939 q 678 774 678 849 q 649 662 678 710 q 574 576 621 614 q 470 507 526 539 q 358 444 414 475 q 254 377 301 413 q 178 297 207 342 q 150 194 150 253 q 190 105 150 136 q 299 74 229 74 q 410 97 354 74 q 519 163 467 121 q 621 264 572 206 q 711 392 669 322 l 806 367 q 693 199 756 271 q 562 80 631 128 q 421 8 493 32 q 278 -15 349 -15 q 94 39 160 -15 q 28 190 28 93 q 57 319 28 265 q 134 414 86 374 q 240 486 182 454 q 354 547 297 518 q 459 607 411 575 q 536 678 507 639 q 565 771 565 717 q 537 835 565 814 q 467 857 508 857 q 402 841 433 857 q 351 794 371 825 q 332 717 332 764 q 351 639 332 675 q 396 560 369 603 z "},"¶":{"ha":871,"x_min":111,"x_max":881,"o":"m 790 924 l 881 924 l 638 -219 l 547 -219 l 790 924 m 383 321 q 178 381 246 321 q 111 550 111 440 q 214 826 111 729 q 510 924 317 924 l 665 924 l 422 -219 l 332 -219 l 447 322 q 419 322 435 322 q 383 321 404 321 z "},"†":{"ha":588,"x_min":93,"x_max":614,"o":"m 356 924 l 475 924 l 422 674 l 614 674 l 594 579 l 401 579 l 322 206 l 203 206 l 282 579 l 93 579 l 113 674 l 303 674 l 356 924 z "},"‡":{"ha":614,"x_min":68,"x_max":640,"o":"m 138 731 l 328 731 l 369 924 l 488 924 l 447 731 l 640 731 l 619 635 l 426 635 l 399 504 l 592 504 l 572 408 l 378 408 l 335 206 l 217 206 l 260 408 l 68 408 l 89 504 l 279 504 l 307 635 l 117 635 l 138 731 z "},"§":{"ha":676,"x_min":-86,"x_max":711,"o":"m 72 360 q 119 492 72 440 q 232 565 165 544 q 181 628 201 593 q 160 710 160 664 q 200 838 160 788 q 315 913 240 889 q 494 938 390 938 q 613 931 554 938 q 711 917 672 925 l 681 819 q 619 831 654 826 q 549 838 585 835 q 479 840 513 840 q 332 810 385 840 q 279 718 279 781 q 303 653 279 682 q 364 598 326 624 q 443 546 401 572 q 522 489 485 519 q 583 418 560 458 q 607 324 607 378 q 560 184 607 240 q 449 103 514 128 q 483 42 469 76 q 496 -33 496 7 q 458 -164 496 -110 q 349 -246 419 -218 q 185 -274 279 -274 q 33 -260 104 -274 q -86 -231 -39 -246 l -53 -137 q 56 -166 -10 -153 q 189 -179 121 -179 q 324 -144 272 -179 q 376 -37 376 -110 q 354 38 376 6 q 297 97 332 69 q 224 150 263 124 q 151 206 186 176 q 94 273 117 236 q 72 360 72 310 m 186 376 q 206 316 186 343 q 258 265 226 289 q 324 218 289 242 q 388 168 358 194 q 465 222 436 185 q 494 308 494 258 q 466 388 494 356 q 396 447 438 421 q 314 503 354 474 q 250 481 279 499 q 203 438 221 464 q 186 376 186 411 z "},"*":{"ha":546,"x_min":122,"x_max":593,"o":"m 167 821 l 328 760 l 346 924 l 446 924 l 394 760 l 581 821 l 593 743 l 403 703 l 503 576 l 425 519 l 347 664 l 208 519 l 143 576 l 297 703 l 122 743 l 167 821 z "},"™":{"ha":947,"x_min":146,"x_max":1001,"o":"m 160 924 l 504 924 l 489 853 l 363 853 l 290 508 l 200 508 l 272 853 l 146 853 l 160 924 m 751 596 l 686 596 l 636 800 l 574 508 l 494 508 l 582 924 l 674 924 l 736 681 l 904 924 l 1001 924 l 913 508 l 832 508 l 894 800 l 751 596 z "},"®":{"ha":854,"x_min":101,"x_max":856,"o":"m 450 733 l 422 599 q 445 596 432 597 q 472 594 458 594 q 522 602 499 594 q 559 628 544 610 q 575 676 574 646 q 560 722 578 710 q 507 733 542 733 l 450 733 m 392 788 l 526 788 q 620 759 588 788 q 646 676 653 731 q 613 600 642 626 q 546 563 583 574 q 578 536 569 554 q 589 492 586 518 l 603 394 l 533 394 l 521 483 q 503 526 517 511 q 458 540 490 540 q 429 542 443 540 q 410 544 415 543 l 379 394 l 308 394 l 392 788 m 418 282 q 620 330 536 282 q 749 460 704 378 q 794 643 794 542 q 728 819 794 758 q 538 881 661 881 q 337 833 421 881 q 208 704 253 786 q 163 519 163 622 q 228 344 163 406 q 418 282 294 282 m 539 935 q 772 858 688 935 q 856 643 856 781 q 801 435 856 529 q 649 284 747 340 q 417 228 551 228 q 185 305 269 228 q 101 521 101 382 q 155 728 101 635 q 307 878 208 822 q 539 935 406 935 z "},"©":{"ha":1019,"x_min":78,"x_max":990,"o":"m 742 711 l 717 636 q 673 644 699 639 q 611 649 647 649 q 515 624 554 649 q 453 559 476 599 q 420 474 431 519 q 410 389 410 429 q 441 303 410 329 q 532 276 472 276 q 598 281 569 276 q 649 292 626 286 l 639 218 q 582 205 618 211 q 504 199 546 199 q 403 217 447 199 q 335 276 360 236 q 311 381 311 317 q 326 501 311 440 q 378 612 342 561 q 473 693 414 663 q 619 724 532 724 q 692 719 660 724 q 742 711 724 715 m 604 939 q 808 898 721 939 q 942 775 894 857 q 990 568 990 693 q 974 417 990 497 q 919 261 957 338 q 821 123 882 185 q 672 24 760 61 q 465 -14 585 -14 q 261 27 349 -14 q 126 151 174 68 q 78 358 78 233 q 94 508 78 429 q 149 664 111 588 q 247 802 186 740 q 397 901 308 864 q 604 939 486 939 m 468 47 q 647 80 571 47 q 777 167 724 113 q 864 290 831 222 q 913 430 897 358 q 928 567 928 501 q 888 744 928 675 q 776 845 849 813 q 601 878 703 878 q 423 845 500 878 q 292 758 346 813 q 206 635 239 703 q 157 495 172 567 q 142 358 142 424 q 181 182 142 251 q 294 80 221 113 q 468 47 367 47 z "},"@":{"ha":1172,"x_min":50,"x_max":1122,"o":"m 708 472 q 667 481 690 478 q 621 483 643 483 q 544 460 578 483 q 489 399 511 438 q 456 314 467 361 q 444 218 444 267 q 469 141 444 160 q 531 122 494 122 q 597 130 567 122 q 649 150 626 138 q 647 161 647 156 q 647 172 647 167 q 651 196 649 183 q 654 222 653 208 l 708 472 m 511 -171 q 679 -160 597 -171 q 828 -133 761 -150 l 821 -206 q 681 -235 761 -222 q 504 -247 601 -247 q 305 -215 390 -247 q 163 -124 219 -182 q 78 13 106 -65 q 50 181 50 90 q 75 385 50 285 q 151 572 100 485 q 278 724 201 658 q 457 826 354 789 q 689 864 560 864 q 941 813 846 864 q 1079 677 1036 763 q 1122 488 1122 592 q 1108 347 1122 415 q 1068 220 1094 278 q 1005 119 1042 163 q 922 51 968 75 q 819 26 875 26 q 723 45 756 26 q 679 86 690 64 q 601 49 649 65 q 497 33 553 33 q 387 75 433 33 q 340 217 340 117 q 358 346 340 283 q 411 459 375 408 q 501 539 447 510 q 631 568 556 568 q 731 558 681 568 q 824 535 781 549 l 758 225 q 754 199 756 211 q 753 176 753 188 q 771 124 753 142 q 832 106 789 106 q 934 156 888 106 q 1009 292 981 206 q 1038 489 1038 379 q 1001 647 1038 579 q 888 753 965 715 q 682 792 810 792 q 504 766 583 792 q 364 695 425 740 q 260 590 303 650 q 189 463 217 531 q 148 323 161 394 q 135 182 135 251 q 158 37 135 101 q 228 -74 182 -28 q 346 -146 275 -121 q 511 -171 417 -171 z "},"ª":{"ha":436,"x_min":106,"x_max":486,"o":"m 340 579 l 365 693 q 331 699 350 696 q 293 701 313 701 q 217 681 246 701 q 188 615 188 660 q 206 578 188 589 q 256 568 225 568 q 298 571 275 568 q 340 579 321 574 m 192 851 l 199 922 q 260 934 226 929 q 331 939 293 939 q 447 903 408 939 q 469 790 486 868 l 413 529 q 338 510 382 519 q 240 501 293 501 q 144 526 183 501 q 106 607 106 550 q 155 722 106 682 q 293 761 204 761 q 339 758 317 761 q 376 753 361 756 l 386 794 q 385 840 393 824 q 358 861 376 856 q 314 867 339 867 q 249 863 278 867 q 192 851 219 858 z "},"º":{"ha":489,"x_min":126,"x_max":524,"o":"m 367 939 q 482 901 440 939 q 524 786 524 864 q 510 688 524 738 q 469 595 497 638 q 394 527 440 553 q 283 501 349 501 q 169 538 211 501 q 126 654 126 575 q 140 752 126 703 q 181 844 153 801 q 254 913 208 888 q 367 939 300 939 m 294 579 q 360 599 333 579 q 404 649 388 618 q 428 714 421 679 q 436 781 436 749 q 414 844 436 826 q 356 861 392 861 q 290 842 317 861 q 246 792 263 822 q 222 726 229 761 q 214 660 214 692 q 237 597 214 614 q 294 579 260 579 z "},"#":{"ha":929,"x_min":24,"x_max":956,"o":"m 446 924 l 568 924 l 468 663 l 671 663 l 771 924 l 893 924 l 793 663 l 956 663 l 915 564 l 754 564 l 675 358 l 836 358 l 796 260 l 635 260 l 535 0 l 413 0 l 513 260 l 308 260 l 210 0 l 88 0 l 188 260 l 24 260 l 64 358 l 226 358 l 306 564 l 143 564 l 183 663 l 344 663 l 446 924 m 428 564 l 349 358 l 553 358 l 631 564 l 428 564 z "},"€":{"ha":788,"x_min":51,"x_max":858,"o":"m 92 517 l 681 517 l 726 601 l 110 601 l 92 517 m 51 324 l 619 324 l 664 408 l 69 408 l 51 324 m 858 915 q 767 931 815 924 q 657 939 718 939 q 440 887 532 939 q 286 744 347 835 q 194 538 225 654 q 164 296 164 422 q 240 64 164 143 q 461 -15 317 -15 q 572 -7 518 -15 q 672 15 626 1 l 683 124 q 587 104 638 114 q 482 94 536 94 q 338 144 382 94 q 293 297 293 194 q 316 498 293 403 q 383 668 339 593 q 496 786 428 743 q 653 829 564 829 q 747 822 704 829 q 831 806 790 815 l 858 915 z "},"$":{"ha":694,"x_min":7,"x_max":710,"o":"m 532 926 l 438 928 l 461 1040 l 557 1040 l 532 926 m 247 -8 l 343 -3 l 315 -133 l 219 -133 l 247 -8 m 710 914 l 678 811 q 587 827 635 821 q 488 833 539 833 q 324 796 378 833 q 271 700 271 758 q 295 624 271 658 q 358 560 319 590 q 441 500 397 531 q 524 434 485 469 q 587 353 563 399 q 611 246 611 307 q 572 99 611 157 q 458 13 532 42 q 279 -15 383 -15 q 133 -2 200 -15 q 7 31 65 11 l 39 133 q 154 101 96 114 q 282 89 213 89 q 436 128 389 89 q 483 233 483 167 q 459 314 483 278 q 396 381 435 350 q 313 444 357 413 q 231 511 269 475 q 167 592 192 547 q 143 694 143 636 q 185 826 143 772 q 303 910 226 881 q 488 939 381 939 q 604 932 547 939 q 710 914 661 925 z "},"¥":{"ha":839,"x_min":81,"x_max":910,"o":"m 303 578 l 329 493 l 121 493 l 138 578 l 303 578 m 910 924 l 511 385 l 771 385 l 751 300 l 482 300 l 418 0 l 292 0 l 356 300 l 81 300 l 99 385 l 361 385 l 164 924 l 299 924 l 447 464 l 778 924 l 910 924 m 579 493 l 636 578 l 806 578 l 789 493 l 579 493 z "},"£":{"ha":750,"x_min":-24,"x_max":824,"o":"m 160 301 l 200 421 l 79 421 l 101 529 l 231 529 l 278 682 q 359 842 311 788 q 472 918 407 897 q 618 939 538 939 q 724 933 671 939 q 824 918 776 928 l 790 817 q 706 831 750 825 q 618 838 661 838 q 521 824 561 838 q 453 774 481 810 q 406 676 425 739 l 360 529 l 669 529 l 647 421 l 326 421 l 288 296 q 251 211 271 246 q 208 153 232 176 q 153 113 183 129 l 626 113 l 607 0 l -24 0 l -6 99 q 69 142 40 118 q 117 203 97 165 q 160 301 138 240 z "},"¢":{"ha":622,"x_min":85,"x_max":658,"o":"m 521 813 l 426 813 l 465 990 l 560 990 l 521 813 m 283 115 l 376 108 l 339 -67 l 243 -67 l 283 115 m 658 804 l 625 713 q 555 727 590 722 q 482 732 519 732 q 360 702 413 732 q 272 619 307 672 q 218 499 236 567 q 200 357 200 432 q 240 233 200 274 q 372 193 281 193 q 447 199 407 193 q 526 214 486 204 l 518 122 q 435 106 475 111 q 354 100 394 100 q 151 163 218 100 q 85 356 85 225 q 111 538 85 453 q 188 688 138 624 q 313 790 239 753 q 483 826 388 826 q 574 822 529 826 q 658 804 618 817 z "},"₡":{"ha":743,"x_min":57,"x_max":800,"o":"m 489 1067 l 583 1067 l 514 874 l 419 874 l 489 1067 m 694 1067 l 789 1067 l 721 879 l 626 879 l 694 1067 m 411 36 l 357 -110 l 263 -110 l 317 36 l 411 36 m 239 126 l 151 -110 l 57 -110 l 149 136 l 239 126 m 800 915 l 771 810 q 684 826 729 819 q 585 833 639 833 q 422 790 492 833 q 306 671 353 746 q 235 499 258 596 q 211 297 211 403 q 259 140 211 192 q 414 89 307 89 q 524 99 471 89 q 625 118 576 108 l 613 15 q 510 -7 565 1 q 393 -15 454 -15 q 162 64 242 -15 q 82 296 82 143 q 113 538 82 422 q 208 744 144 654 q 366 887 271 835 q 589 939 461 939 q 703 931 653 939 q 800 915 754 924 z "},"₮":{"ha":829,"x_min":113,"x_max":908,"o":"m 171 546 l 768 664 l 751 572 l 154 454 l 171 546 m 128 335 l 725 453 l 710 361 l 113 243 l 128 335 m 167 924 l 908 924 l 888 822 l 578 822 l 403 0 l 281 0 l 456 822 l 146 822 l 167 924 z "},"₴":{"ha":761,"x_min":58,"x_max":746,"o":"m 97 517 l 113 600 l 739 600 l 724 517 l 97 517 m 58 324 l 74 406 l 700 406 l 685 324 l 58 324 m 257 917 q 360 932 306 926 q 475 938 415 938 q 674 894 603 938 q 746 763 746 851 q 715 644 746 696 q 633 553 683 593 q 522 479 582 514 q 401 411 461 444 q 293 339 342 378 q 226 272 253 310 q 200 192 200 233 q 236 124 200 146 q 343 103 272 103 q 482 115 415 103 q 617 147 549 126 l 607 31 q 472 -3 542 10 q 321 -15 401 -15 q 135 32 199 -15 q 72 168 72 79 q 111 310 72 251 q 212 413 150 369 q 344 492 274 456 q 475 565 414 528 q 576 643 535 600 q 617 735 617 686 q 577 800 617 779 q 456 821 538 821 q 350 814 406 821 q 246 799 294 807 l 257 917 z "},"₺":{"ha":768,"x_min":38,"x_max":703,"o":"m 97 567 l 631 685 l 614 593 l 81 475 l 97 567 m 54 361 l 589 481 l 572 388 l 38 269 l 54 361 m 439 0 l 89 0 l 286 924 l 410 924 l 240 122 l 443 122 q 547 151 517 122 q 590 238 576 181 l 596 265 l 703 265 l 694 228 q 614 57 669 114 q 439 0 558 0 z "},"₹":{"ha":735,"x_min":71,"x_max":807,"o":"m 740 597 l 121 597 l 138 682 l 757 682 l 740 597 m 790 840 l 171 840 l 188 924 l 807 924 l 790 840 m 424 0 l 338 163 q 277 264 303 225 q 226 324 251 303 q 167 353 200 346 q 83 361 133 361 l 229 392 q 300 374 271 388 q 351 335 329 360 q 396 275 374 311 q 446 190 418 239 l 554 0 l 424 0 m 649 692 q 615 544 649 604 q 527 447 582 485 q 406 392 472 410 q 274 374 339 375 l 228 361 l 71 361 l 94 476 l 267 476 q 457 530 392 476 q 522 689 522 583 q 478 776 522 749 q 344 804 433 804 l 165 804 l 182 893 l 354 893 q 574 846 500 893 q 649 692 649 799 z "},"₫":{"ha":804,"x_min":-19,"x_max":892,"o":"m -1 -100 l 572 -100 l 554 -181 l -19 -181 l -1 -100 m 426 829 l 443 907 l 892 907 l 875 829 l 426 829 m 292 -17 q 170 10 224 -17 q 86 94 117 38 q 56 242 56 151 q 103 481 56 375 q 240 649 150 588 q 454 711 329 711 q 527 706 490 711 q 600 689 564 700 l 669 1014 l 789 1014 l 613 185 q 607 142 607 161 q 623 97 607 110 q 667 83 639 83 q 706 87 685 83 q 746 99 726 90 l 731 4 q 680 -11 706 -6 q 629 -17 654 -17 q 550 3 582 -17 q 507 64 518 22 q 415 8 469 33 q 292 -17 361 -17 m 581 589 q 516 606 550 600 q 446 611 482 611 q 301 561 363 611 q 207 428 240 511 q 174 244 174 346 q 210 122 174 161 q 314 83 247 83 q 404 101 360 83 q 488 150 449 119 l 581 589 z "},"₩":{"ha":1347,"x_min":63,"x_max":1339,"o":"m 101 521 l 118 604 l 283 604 l 271 521 l 101 521 m 63 329 l 78 413 l 286 413 l 275 329 l 63 329 m 1140 521 l 1157 604 l 1339 604 l 1322 521 l 1140 521 m 1067 329 l 1088 413 l 1299 413 l 1282 329 l 1067 329 m 363 0 l 239 0 l 221 924 l 343 924 l 346 158 l 688 739 l 797 739 l 893 151 q 1069 514 989 324 q 1219 924 1150 704 l 1338 924 q 1249 672 1294 790 q 1155 442 1204 553 q 1049 222 1106 331 q 926 0 993 114 l 810 0 l 718 604 l 363 0 z "},"₪":{"ha":922,"x_min":19,"x_max":910,"o":"m 129 0 l 19 0 l 160 663 q 282 697 217 682 q 419 711 347 711 q 552 689 496 711 q 633 612 608 667 q 636 460 657 557 l 594 265 l 504 265 l 546 460 q 544 544 560 514 q 492 588 529 575 q 406 600 456 600 q 328 593 371 600 q 254 575 286 586 l 129 0 m 428 431 l 361 121 q 430 103 389 111 q 506 96 471 96 q 592 108 553 96 q 660 151 632 121 q 701 235 689 181 l 799 694 l 910 694 l 807 206 q 747 75 789 124 q 642 6 706 26 q 496 -15 579 -15 q 407 -8 451 -15 q 324 10 363 -1 q 253 33 285 21 l 338 431 l 428 431 z "},"₭":{"ha":907,"x_min":65,"x_max":958,"o":"m 65 451 l 83 538 l 239 538 l 221 451 l 65 451 m 421 453 l 464 536 l 854 536 l 836 453 l 421 453 m 282 924 l 407 924 l 304 439 l 813 924 l 958 924 l 539 524 q 626 480 592 508 q 681 401 660 451 q 718 267 703 350 l 765 0 l 636 0 l 596 232 q 565 348 583 306 q 518 411 547 390 q 440 439 489 432 l 271 283 l 211 0 l 86 0 l 282 924 z "},"₱":{"ha":931,"x_min":85,"x_max":968,"o":"m 125 685 l 142 768 l 315 768 l 299 685 l 125 685 m 85 492 l 101 578 l 275 578 l 258 492 l 85 492 m 776 685 l 793 768 l 968 768 l 951 685 l 776 685 m 736 492 l 753 578 l 928 578 l 911 492 l 736 492 m 388 822 l 310 453 q 387 442 347 446 q 465 439 426 439 q 583 457 535 439 q 663 507 632 475 q 708 582 693 539 q 724 674 722 625 q 703 765 725 732 q 641 810 682 797 q 540 822 600 822 l 388 822 m 286 924 l 554 924 q 713 901 647 924 q 815 824 779 878 q 849 678 850 771 q 806 503 849 581 q 676 381 763 425 q 461 336 590 336 q 377 340 419 336 q 288 351 335 343 l 213 0 l 88 0 l 286 924 z "},"₵":{"ha":761,"x_min":85,"x_max":803,"o":"m 629 885 l 536 885 l 569 1040 l 663 1040 l 629 885 m 356 46 l 449 46 l 411 -133 l 318 -133 l 356 46 m 803 915 l 774 810 q 687 826 732 819 q 588 833 642 833 q 425 790 494 833 q 308 671 356 746 q 238 499 261 596 q 214 297 214 403 q 262 140 214 192 q 417 89 310 89 q 527 99 474 89 q 628 118 581 108 l 617 15 q 513 -7 569 1 q 396 -15 457 -15 q 165 64 244 -15 q 85 296 85 143 q 116 538 85 422 q 210 744 147 654 q 369 887 274 835 q 592 939 464 939 q 706 931 656 939 q 803 915 757 924 z "},"₸":{"ha":818,"x_min":99,"x_max":886,"o":"m 124 669 l 833 669 l 808 549 l 515 549 l 397 0 l 274 0 l 392 549 l 99 549 l 124 669 m 863 801 l 153 801 l 176 924 l 886 924 l 863 801 z "},"₼":{"ha":854,"x_min":3,"x_max":800,"o":"m 493 711 q 690 666 621 711 q 780 543 760 621 q 779 365 800 465 l 697 -15 l 572 -15 l 654 369 q 658 487 669 436 q 606 567 647 538 q 482 596 564 596 q 346 567 401 596 q 258 487 290 538 q 210 369 225 436 l 128 -15 l 3 -15 l 88 382 q 154 553 108 479 q 283 669 200 626 q 493 711 365 711 m 503 924 l 597 924 l 546 685 l 540 657 l 431 139 l 336 139 l 446 656 l 451 681 l 503 924 z "},"₽":{"ha":811,"x_min":14,"x_max":824,"o":"m 246 456 l 222 346 l 53 346 l 78 456 l 246 456 m 446 239 l 431 156 l 14 156 l 29 239 l 446 239 m 385 801 l 311 454 l 440 454 q 632 520 567 454 q 697 694 697 586 q 653 776 697 750 q 518 801 608 801 l 385 801 m 286 924 l 536 924 q 750 870 676 924 q 824 700 824 817 q 776 508 824 588 q 644 388 729 429 q 442 346 558 346 l 289 346 l 215 0 l 90 0 l 286 924 z "},"¤":{"ha":639,"x_min":14,"x_max":668,"o":"m 564 739 l 668 739 l 526 585 l 443 606 l 564 739 m 232 739 l 297 606 l 215 583 l 138 739 l 232 739 m 450 158 l 385 292 l 471 306 l 546 158 l 450 158 m 118 158 l 14 158 l 160 319 l 239 292 l 118 158 m 381 675 q 514 635 467 675 q 561 510 561 596 q 544 398 561 450 q 495 307 528 346 q 414 246 463 268 q 301 224 365 224 q 167 264 215 224 q 119 389 119 304 q 136 501 119 449 q 186 592 153 553 q 268 653 219 631 q 381 675 317 675 m 311 308 q 390 333 356 308 q 443 401 424 358 q 463 500 463 444 q 438 570 463 551 q 369 589 413 589 q 292 565 326 589 q 238 497 257 540 q 218 399 218 454 q 243 328 218 347 q 311 308 268 308 z "},"°":{"ha":510,"x_min":126,"x_max":542,"o":"m 306 588 q 383 615 353 588 q 429 684 414 642 q 444 772 444 726 q 425 833 444 811 q 363 854 406 854 q 286 827 317 854 q 240 758 256 800 q 225 669 225 715 q 244 609 225 631 q 306 588 264 588 m 371 938 q 499 894 456 938 q 542 776 542 850 q 528 679 542 728 q 485 591 514 631 q 409 527 456 551 q 297 503 363 503 q 170 547 214 503 q 126 665 126 592 q 140 763 126 714 q 184 851 154 811 q 260 914 214 890 q 371 938 307 938 z "},"%":{"ha":1138,"x_min":133,"x_max":1056,"o":"m 919 924 l 1028 924 l 268 0 l 161 0 l 919 924 m 306 454 q 181 494 229 454 q 133 622 133 533 q 149 736 133 681 q 195 838 164 792 q 275 910 226 883 q 389 938 324 938 q 513 898 465 938 q 561 771 561 858 q 546 656 561 713 q 499 554 531 600 q 419 481 467 508 q 306 454 371 454 m 313 531 q 378 551 349 531 q 427 607 407 572 q 458 684 447 642 q 469 769 469 726 q 446 842 469 822 q 382 863 422 863 q 315 842 344 863 q 266 785 286 821 q 235 708 246 750 q 225 622 225 665 q 249 551 225 571 q 313 531 272 531 m 800 -15 q 676 25 724 -15 q 628 153 628 65 q 643 267 628 211 q 690 369 658 324 q 769 442 721 415 q 883 469 818 469 q 1008 429 960 469 q 1056 301 1056 389 q 1040 187 1056 243 q 993 85 1025 131 q 913 12 961 39 q 800 -15 865 -15 m 807 61 q 872 82 843 61 q 922 138 901 103 q 952 216 942 174 q 963 301 963 258 q 940 374 963 354 q 876 393 917 393 q 810 372 839 393 q 760 316 781 351 q 730 238 740 281 q 719 153 719 196 q 743 81 719 101 q 807 61 767 61 z "},"‰":{"ha":1642,"x_min":133,"x_max":1558,"o":"m 1386 469 q 1510 429 1463 469 q 1558 301 1558 389 q 1543 187 1558 243 q 1497 85 1528 131 q 1417 12 1465 39 q 1303 -15 1368 -15 q 1178 25 1226 -15 q 1131 153 1131 65 q 1146 267 1131 211 q 1192 369 1161 324 q 1272 442 1224 415 q 1386 469 1321 469 m 919 924 l 1028 924 l 268 0 l 161 0 l 919 924 m 306 454 q 181 494 229 454 q 133 622 133 533 q 149 736 133 681 q 195 838 164 792 q 275 910 226 883 q 389 938 324 938 q 513 898 465 938 q 561 771 561 858 q 546 656 561 713 q 499 554 531 600 q 419 481 467 508 q 306 454 371 454 m 313 531 q 378 551 349 531 q 427 607 407 572 q 458 684 447 642 q 469 769 469 726 q 446 842 469 822 q 382 863 422 863 q 315 842 344 863 q 266 785 286 821 q 235 708 246 750 q 225 622 225 665 q 249 551 225 571 q 313 531 272 531 m 800 -15 q 676 25 724 -15 q 628 153 628 65 q 643 267 628 211 q 690 369 658 324 q 769 442 721 415 q 883 469 818 469 q 1008 429 960 469 q 1056 301 1056 389 q 1040 187 1056 243 q 993 85 1025 131 q 913 12 961 39 q 800 -15 865 -15 m 807 61 q 872 82 843 61 q 922 138 901 103 q 952 216 942 174 q 963 301 963 258 q 940 374 963 354 q 876 393 917 393 q 810 372 839 393 q 760 316 781 351 q 730 238 740 281 q 719 153 719 196 q 743 81 719 101 q 807 61 767 61 m 1310 61 q 1375 82 1346 61 q 1424 138 1404 103 q 1456 216 1444 174 q 1467 301 1467 258 q 1443 374 1467 354 q 1379 393 1419 393 q 1314 372 1343 393 q 1265 316 1285 351 q 1233 238 1244 281 q 1222 153 1222 196 q 1246 81 1222 101 q 1310 61 1269 61 z "},"⁄":{"ha":299,"x_min":-260,"x_max":608,"o":"m 497 924 l 608 924 l -150 0 l -260 0 l 497 924 z "},"½":{"ha":944,"x_min":10,"x_max":924,"o":"m 138 892 l 276 926 l 344 926 l 244 453 l 158 453 l 242 842 l 121 811 l 138 892 m 767 924 l 878 924 l 119 0 l 10 0 l 767 924 m 642 396 l 651 471 q 706 481 675 476 q 772 485 738 485 q 881 460 839 485 q 924 378 924 435 q 908 307 924 340 q 859 238 893 274 q 771 158 825 203 l 674 75 l 868 75 l 853 0 l 538 0 l 551 69 l 697 194 q 783 272 754 242 q 822 322 813 301 q 832 363 832 343 q 810 400 832 390 q 753 410 788 410 q 693 406 725 410 q 642 396 661 401 z "},"¼":{"ha":903,"x_min":10,"x_max":878,"o":"m 138 892 l 276 926 l 344 926 l 244 453 l 158 453 l 242 842 l 121 811 l 138 892 m 767 924 l 878 924 l 119 0 l 10 0 l 767 924 m 764 474 l 860 474 l 794 167 l 854 167 l 840 97 l 781 97 l 760 0 l 678 0 l 699 97 l 461 97 l 474 157 l 764 474 m 557 150 l 513 167 l 714 167 l 769 432 l 803 419 l 557 150 z "},"¾":{"ha":1008,"x_min":53,"x_max":983,"o":"m 156 926 l 447 926 l 432 856 l 281 724 l 289 722 q 365 694 332 719 q 397 618 397 669 q 374 528 397 569 q 307 463 351 488 q 194 439 263 439 q 118 446 157 439 q 53 460 79 453 l 74 529 q 133 517 100 524 q 193 511 165 511 q 279 538 247 511 q 311 610 311 564 q 285 653 311 642 q 219 665 260 665 l 168 665 l 181 721 l 328 853 l 140 853 l 156 926 m 872 924 l 983 924 l 225 0 l 115 0 l 872 924 m 869 474 l 965 474 l 900 167 l 960 167 l 946 97 l 886 97 l 865 0 l 783 0 l 804 97 l 567 97 l 579 157 l 869 474 m 663 150 l 618 167 l 819 167 l 875 432 l 908 419 l 663 150 z "},"+":{"ha":703,"x_min":54,"x_max":692,"o":"m 74 492 l 326 492 l 376 728 l 488 728 l 438 492 l 692 492 l 671 396 l 417 396 l 367 160 l 256 160 l 306 396 l 54 396 l 74 492 z "},"−":{"ha":703,"x_min":53,"x_max":692,"o":"m 74 490 l 692 490 l 671 394 l 53 394 l 74 490 z "},"×":{"ha":624,"x_min":21,"x_max":644,"o":"m 107 649 l 483 172 l 558 239 l 182 717 l 107 649 m 21 239 l 83 171 l 644 649 l 582 717 l 21 239 z "},"÷":{"ha":703,"x_min":53,"x_max":692,"o":"m 74 492 l 692 492 l 671 394 l 53 394 l 74 492 m 336 265 q 381 251 365 265 q 397 210 397 236 q 372 152 397 174 q 306 131 346 131 q 260 145 276 131 q 244 186 244 160 q 270 244 244 222 q 336 265 296 265 m 439 749 q 484 734 468 749 q 500 693 500 719 q 475 635 500 657 q 410 614 450 614 q 363 629 379 614 q 347 671 347 644 q 373 728 347 707 q 439 749 399 749 z "},"=":{"ha":731,"x_min":36,"x_max":735,"o":"m 117 629 l 735 629 l 714 533 l 96 533 l 117 629 m 57 350 l 676 350 l 656 254 l 36 254 l 57 350 z "},"¬":{"ha":728,"x_min":83,"x_max":722,"o":"m 104 635 l 722 635 l 643 264 l 538 264 l 596 539 l 83 539 l 104 635 z "},"~":{"ha":733,"x_min":49,"x_max":729,"o":"m 651 532 l 729 494 q 678 415 704 450 q 617 359 651 379 q 532 339 582 339 q 455 357 494 339 q 378 398 415 375 q 305 438 340 421 q 240 456 269 456 q 177 428 200 456 q 128 357 154 401 l 49 394 q 99 474 74 439 q 157 529 124 508 q 239 550 190 550 q 316 533 276 550 q 395 492 356 515 q 472 451 435 468 q 539 433 508 433 q 602 461 579 433 q 651 532 625 489 z "},"<":{"ha":718,"x_min":53,"x_max":743,"o":"m 53 394 l 74 490 l 743 735 l 718 625 l 144 419 l 160 453 l 639 250 l 619 151 l 53 394 z "},">":{"ha":718,"x_min":17,"x_max":706,"o":"m 706 490 l 685 394 l 17 151 l 40 260 l 614 465 l 600 432 l 119 635 l 140 735 l 706 490 z "},"±":{"ha":725,"x_min":-21,"x_max":704,"o":"m 0 96 l 619 96 l 599 0 l -21 0 l 0 96 m 86 499 l 339 499 l 388 728 l 499 728 l 450 499 l 704 499 l 683 401 l 429 401 l 383 183 l 272 183 l 318 401 l 65 401 l 86 499 z "},"^":{"ha":626,"x_min":67,"x_max":626,"o":"m 385 924 l 489 924 l 626 501 l 519 501 l 408 860 l 450 865 l 183 501 l 67 501 l 385 924 z "},"≠":{"ha":731,"x_min":36,"x_max":735,"o":"m 57 350 l 676 350 l 656 254 l 36 254 l 57 350 m 117 629 l 735 629 l 714 533 l 96 533 l 117 629 m 572 801 l 681 801 l 199 82 l 90 82 l 572 801 z "},"≈":{"ha":754,"x_min":31,"x_max":765,"o":"m 633 400 l 711 361 q 660 281 686 317 q 599 226 633 246 q 514 206 564 206 q 437 224 476 206 q 360 265 397 242 q 287 305 322 288 q 222 322 251 322 q 159 295 182 322 q 110 224 136 268 l 31 261 q 81 340 56 306 q 139 396 106 375 q 221 417 172 417 q 298 399 258 417 q 377 358 338 382 q 453 317 417 335 q 521 300 490 300 q 584 328 561 300 q 633 400 607 356 m 688 654 l 765 617 q 714 537 740 572 q 653 481 688 501 q 568 461 618 461 q 491 479 531 461 q 414 520 451 497 q 341 560 376 543 q 276 578 306 578 q 213 551 236 578 q 164 479 190 524 l 85 517 q 135 596 110 561 q 193 651 160 631 q 275 672 226 672 q 352 655 313 672 q 431 614 392 638 q 508 573 471 590 q 575 556 544 556 q 638 583 615 556 q 688 654 661 611 z "},"≤":{"ha":740,"x_min":-21,"x_max":753,"o":"m 619 96 l 599 0 l -21 0 l 0 96 l 619 96 m 64 394 l 85 490 l 753 735 l 729 625 l 154 419 l 169 453 l 649 250 l 628 151 l 64 394 z "},"≥":{"ha":740,"x_min":-6,"x_max":715,"o":"m 15 96 l 633 96 l 613 0 l -6 0 l 15 96 m 715 490 l 694 394 l 25 151 l 50 260 l 624 465 l 610 432 l 129 635 l 150 735 l 715 490 z "},"∞":{"ha":897,"x_min":61,"x_max":878,"o":"m 421 444 q 353 526 382 497 q 281 556 325 556 q 194 517 232 556 q 157 414 157 478 q 178 350 157 371 q 233 329 199 329 q 318 360 278 329 q 421 444 358 390 m 481 513 q 569 583 529 554 q 647 626 608 611 q 729 642 686 642 q 838 600 797 642 q 878 478 878 558 q 849 357 878 410 q 769 274 819 304 q 658 244 719 244 q 578 260 611 244 q 518 304 546 275 q 458 372 490 333 q 371 303 411 332 q 292 258 331 274 q 210 243 254 243 q 102 285 143 243 q 61 407 61 328 q 90 529 61 476 q 170 612 119 582 q 282 642 221 642 q 362 626 329 642 q 422 581 394 610 q 481 513 450 553 m 519 442 q 588 360 560 389 q 658 331 615 331 q 744 369 707 331 q 782 472 782 408 q 761 536 782 517 q 707 556 740 556 q 623 526 664 556 q 519 442 582 496 z "},"◊":{"ha":704,"x_min":54,"x_max":700,"o":"m 232 0 l 54 463 l 429 924 l 522 924 l 700 463 l 325 0 l 232 0 m 296 111 l 583 471 l 457 814 l 171 454 l 296 111 z "},"√":{"ha":790,"x_min":82,"x_max":967,"o":"m 100 694 l 319 694 l 393 106 l 847 924 l 967 924 l 443 0 l 303 0 l 213 614 l 82 614 l 100 694 z "},"∫":{"ha":318,"x_min":-204,"x_max":536,"o":"m -204 -269 l -185 -174 l -172 -174 q -87 -160 -126 -174 q -19 -113 -47 -147 q 22 -19 10 -79 l 190 772 q 254 923 211 868 q 361 1000 297 978 q 504 1022 425 1022 l 536 1022 l 517 928 l 504 928 q 419 914 458 928 q 351 867 379 900 q 310 772 322 833 l 142 -19 q 78 -169 122 -115 q -30 -247 33 -224 q -172 -269 -93 -269 l -204 -269 z "},"∂":{"ha":763,"x_min":24,"x_max":782,"o":"m 231 -15 q 78 40 133 -15 q 24 183 24 94 q 49 323 24 257 q 123 441 74 389 q 244 523 172 493 q 408 553 315 553 q 542 535 483 553 q 636 499 601 518 l 599 413 q 512 449 564 435 q 399 463 460 463 q 292 441 340 463 q 209 381 244 419 q 154 294 174 343 q 135 189 135 244 q 163 110 135 139 q 247 81 192 81 q 364 116 308 81 q 467 210 419 151 q 552 340 514 268 q 617 484 590 411 q 659 621 644 557 q 674 728 674 685 q 639 817 674 792 q 536 842 604 842 q 424 832 475 842 q 325 807 374 822 l 335 901 q 437 928 383 917 q 558 939 490 939 q 680 919 631 939 q 756 854 729 899 q 782 739 782 810 q 766 607 782 683 q 718 446 750 531 q 639 279 686 361 q 531 131 592 197 q 394 24 469 64 q 231 -15 319 -15 z "},"∏":{"ha":938,"x_min":78,"x_max":1021,"o":"m 163 924 l 1021 924 l 999 818 l 886 818 l 713 0 l 588 0 l 761 818 l 378 818 l 204 0 l 78 0 l 251 818 l 140 818 l 163 924 z "},"∑":{"ha":726,"x_min":-19,"x_max":781,"o":"m 310 822 l 536 474 l 169 103 l 628 103 l 606 0 l -19 0 l 1 96 l 383 482 l 157 828 l 176 924 l 781 924 l 758 822 l 310 822 z "},"π":{"ha":810,"x_min":81,"x_max":857,"o":"m 101 694 l 857 694 l 836 596 l 699 596 l 572 0 l 454 0 l 581 596 l 336 596 l 208 0 l 90 0 l 217 596 l 81 596 l 101 694 z "},"Δ":{"ha":808,"x_min":-33,"x_max":693,"o":"m -33 0 l 460 924 l 593 924 l 693 0 l -33 0 m 574 57 l 494 868 l 542 857 l 121 56 l 79 101 l 640 101 l 574 57 z "},"Ω":{"ha":926,"x_min":-6,"x_max":885,"o":"m 578 939 q 805 867 725 939 q 885 643 885 796 q 851 410 885 517 q 758 224 817 303 q 624 101 699 144 l 806 101 l 783 0 l 444 0 l 465 100 q 623 213 557 136 q 725 399 689 289 q 761 643 761 508 q 712 791 761 747 q 567 835 663 835 q 435 803 492 835 q 337 719 378 772 q 271 600 296 667 q 234 463 246 533 q 222 325 222 392 q 238 225 222 267 q 283 154 254 183 q 354 100 313 125 l 333 0 l -6 0 l 17 101 l 217 101 q 136 197 169 139 q 103 351 103 256 q 120 513 103 431 q 173 672 138 596 q 265 808 208 747 q 399 903 321 868 q 578 939 476 939 z "},"ℓ":{"ha":551,"x_min":46,"x_max":600,"o":"m 197 286 l 176 188 q 175 122 167 144 q 204 90 183 99 q 251 82 225 82 q 316 88 282 82 q 379 103 350 94 l 363 8 q 290 -10 324 -4 q 217 -15 256 -15 q 120 8 161 -15 q 63 77 79 31 q 60 196 46 124 l 161 678 q 215 822 179 764 q 302 909 250 879 q 421 939 354 939 q 552 892 504 939 q 600 754 600 846 q 569 607 600 675 q 485 481 539 539 q 357 374 431 422 q 197 286 283 325 m 218 379 q 363 485 301 426 q 457 611 424 544 q 490 743 490 678 q 471 815 490 792 q 414 838 451 838 q 329 791 363 838 q 279 665 296 744 l 218 379 z "},"µ":{"ha":738,"x_min":-31,"x_max":714,"o":"m 596 694 l 714 694 l 574 32 q 490 9 536 19 q 394 -8 443 -1 q 294 -15 344 -15 q 162 11 219 -15 q 88 101 104 38 q 73 155 81 125 q 72 219 65 185 l 174 694 l 292 694 l 190 219 q 192 133 179 164 q 239 90 206 103 q 318 78 272 78 q 397 85 354 78 q 471 101 439 92 l 596 694 m 83 -261 l -31 -261 l 74 224 l 186 224 l 83 -261 z "},"ſ":{"ha":351,"x_min":58,"x_max":640,"o":"m 344 783 l 179 0 l 58 0 l 186 603 l 82 603 l 101 694 l 206 694 l 225 783 q 328 969 253 918 q 514 1021 404 1021 q 579 1018 543 1021 q 640 1010 615 1015 l 610 918 q 564 924 589 922 q 515 926 539 926 q 408 897 453 926 q 344 783 364 867 z "},"ƒ":{"ha":660,"x_min":57,"x_max":771,"o":"m 76 553 l 244 553 l 275 701 q 385 887 304 835 q 583 939 465 939 q 682 933 632 939 q 771 918 732 926 l 739 826 q 667 839 704 833 q 586 844 629 844 q 464 815 514 844 q 396 701 414 785 l 364 553 l 672 553 l 653 460 l 344 460 l 247 0 l 126 0 l 224 460 l 57 460 l 76 553 z "},"ﬁ":{"ha":749,"x_min":58,"x_max":768,"o":"m 101 694 l 206 694 l 222 774 q 341 968 253 914 q 558 1022 429 1022 q 627 1019 589 1022 q 703 1012 665 1017 q 768 1001 742 1007 l 738 908 q 649 922 696 917 q 561 928 601 928 q 420 896 478 928 q 343 774 363 864 l 326 694 l 724 694 l 575 0 l 458 0 l 586 603 l 307 603 l 179 0 l 58 0 l 186 603 l 82 603 l 101 694 z "},"ﬂ":{"ha":750,"x_min":58,"x_max":789,"o":"m 101 694 l 206 694 l 222 774 q 341 968 253 914 q 558 1022 429 1022 q 634 1019 592 1022 q 718 1010 676 1015 q 789 997 760 1004 l 758 906 q 658 922 711 915 q 561 928 606 928 q 420 896 478 928 q 343 774 363 864 l 326 694 l 490 694 l 471 603 l 307 603 l 179 0 l 58 0 l 186 603 l 82 603 l 101 694 m 672 997 l 789 997 l 578 0 l 460 0 l 672 997 z "},"⁰":{"ha":453,"x_min":144,"x_max":547,"o":"m 389 1086 q 547 924 547 1086 q 536 819 547 876 q 497 710 525 763 q 422 625 469 658 q 303 592 375 592 q 144 754 144 592 q 156 858 144 801 q 194 967 167 915 q 269 1053 222 1019 q 389 1086 317 1086 m 310 667 q 383 694 354 667 q 429 764 413 722 q 453 849 446 806 q 460 921 460 892 q 382 1011 460 1011 q 308 983 338 1011 q 262 914 279 956 q 238 829 244 872 q 231 757 231 786 q 310 667 231 667 z "},"¹":{"ha":269,"x_min":167,"x_max":390,"o":"m 183 1040 l 322 1075 l 390 1075 l 290 601 l 204 601 l 288 990 l 167 960 l 183 1040 z "},"²":{"ha":378,"x_min":97,"x_max":483,"o":"m 201 997 l 211 1072 q 266 1082 235 1078 q 332 1086 297 1086 q 441 1061 399 1086 q 483 979 483 1036 q 468 908 483 942 q 419 840 453 875 q 331 760 385 804 l 233 676 l 428 676 l 413 601 l 97 601 l 111 671 l 257 796 q 343 873 314 843 q 382 924 372 903 q 392 964 392 944 q 369 1001 392 992 q 313 1011 347 1011 q 253 1007 285 1011 q 201 997 221 1003 z "},"³":{"ha":374,"x_min":99,"x_max":493,"o":"m 201 1075 l 493 1075 l 478 1004 l 326 872 l 335 871 q 410 843 378 868 q 443 767 443 818 q 420 677 443 718 q 353 612 397 636 q 240 588 308 588 q 164 594 203 588 q 99 608 125 601 l 119 678 q 178 666 146 672 q 239 660 211 660 q 325 686 293 660 q 357 758 357 713 q 331 802 357 790 q 265 814 306 814 l 214 814 l 226 869 l 374 1001 l 186 1001 l 201 1075 z "},"⁴":{"ha":426,"x_min":113,"x_max":511,"o":"m 415 1075 l 511 1075 l 446 768 l 506 768 l 492 699 l 432 699 l 411 601 l 329 601 l 350 699 l 113 699 l 125 758 l 415 1075 m 208 751 l 164 768 l 365 768 l 421 1033 l 454 1021 l 208 751 z "},"⁵":{"ha":378,"x_min":107,"x_max":486,"o":"m 450 771 q 396 640 450 692 q 246 588 342 588 q 174 593 211 588 q 107 607 136 599 l 129 678 q 188 664 157 669 q 246 658 218 658 q 333 687 303 658 q 364 763 364 715 q 340 809 364 797 q 276 821 317 821 q 232 817 260 821 q 174 810 204 814 l 161 831 l 232 1075 l 486 1075 l 471 1001 l 285 1001 l 250 883 q 273 887 257 885 q 304 889 289 889 q 410 862 371 889 q 450 771 450 835 z "},"⁶":{"ha":410,"x_min":142,"x_max":515,"o":"m 218 799 l 232 867 q 290 888 260 879 q 350 896 319 896 q 450 865 415 896 q 485 774 485 833 q 463 681 485 724 q 398 613 440 639 q 294 588 356 588 q 180 631 218 588 q 142 760 142 675 q 156 873 142 815 q 203 978 171 931 q 285 1056 235 1026 q 407 1086 336 1086 q 464 1083 435 1086 q 515 1075 493 1081 l 494 1004 q 447 1013 472 1010 q 403 1015 422 1015 q 319 992 353 1015 q 263 930 285 968 q 233 847 242 892 q 224 761 224 803 q 241 685 224 711 q 303 658 258 658 q 378 688 351 658 q 404 765 404 718 q 329 829 404 829 q 275 822 304 829 q 218 799 246 814 z "},"⁷":{"ha":365,"x_min":124,"x_max":513,"o":"m 192 1075 l 513 1075 l 499 1014 l 219 601 l 124 601 l 397 999 l 175 999 l 192 1075 z "},"⁸":{"ha":426,"x_min":126,"x_max":524,"o":"m 328 818 q 242 788 271 818 q 213 713 213 757 q 293 653 213 653 q 376 683 346 653 q 407 760 407 714 q 328 818 407 818 m 428 843 q 472 813 456 833 q 489 758 489 792 q 466 672 489 711 q 398 610 443 633 q 285 588 353 588 q 167 618 208 588 q 126 706 126 649 q 156 797 126 757 q 239 851 185 838 q 203 881 217 860 q 189 929 189 901 q 210 1006 189 969 q 273 1064 231 1042 q 381 1086 315 1086 q 487 1059 450 1086 q 524 983 524 1032 q 497 894 524 932 q 428 843 471 857 m 372 1024 q 299 999 324 1024 q 274 929 274 974 q 340 876 274 876 q 413 903 386 876 q 439 974 439 931 q 372 1024 439 1024 z "},"⁹":{"ha":411,"x_min":133,"x_max":507,"o":"m 431 876 l 417 808 q 360 788 390 796 q 299 779 331 779 q 199 810 235 779 q 164 901 164 842 q 186 994 164 951 q 251 1061 208 1036 q 354 1086 293 1086 q 469 1043 431 1086 q 507 915 507 1000 q 492 801 507 860 q 446 695 478 743 q 363 617 414 647 q 242 588 313 588 q 185 591 215 588 q 133 600 156 594 l 154 671 q 201 663 176 665 q 246 660 226 660 q 330 683 296 660 q 385 745 364 707 q 416 828 407 783 q 425 914 425 872 q 408 989 425 963 q 346 1015 390 1015 q 272 986 299 1015 q 244 908 244 957 q 319 846 244 846 q 374 853 344 846 q 431 876 404 861 z "},"←":{"ha":903,"x_min":39,"x_max":858,"o":"m 338 669 l 53 379 q 39 347 39 365 q 53 314 39 328 l 336 31 l 413 115 l 147 357 l 147 339 l 415 585 l 338 669 m 139 296 l 858 296 l 858 406 l 139 406 l 139 296 z "},"↑":{"ha":703,"x_min":38,"x_max":667,"o":"m 38 519 l 115 436 l 363 704 l 344 704 l 589 439 l 667 522 l 386 807 q 356 822 374 822 q 325 807 339 822 l 38 519 m 403 714 l 301 714 l 301 0 l 403 0 l 403 714 z "},"→":{"ha":904,"x_min":44,"x_max":864,"o":"m 565 669 l 488 585 l 757 339 l 757 357 l 490 115 l 568 31 l 851 314 q 864 347 864 328 q 851 379 864 365 l 565 669 m 765 296 l 765 406 l 44 406 l 44 296 l 765 296 z "},"↓":{"ha":700,"x_min":33,"x_max":664,"o":"m 33 285 l 321 -3 q 352 -17 335 -17 q 383 -3 369 -17 l 664 282 l 585 367 l 342 101 l 360 101 l 111 368 l 33 285 m 399 92 l 399 804 l 297 804 l 297 92 l 399 92 z "},"↔":{"ha":1175,"x_min":39,"x_max":1135,"o":"m 338 669 l 53 379 q 39 347 39 365 q 53 314 39 328 l 336 31 l 413 115 l 147 357 l 147 339 l 415 585 l 338 669 m 139 296 l 808 296 l 808 406 l 139 406 l 139 296 m 836 669 l 758 585 l 1028 339 l 1028 357 l 761 115 l 839 31 l 1122 314 q 1135 347 1135 328 q 1122 379 1135 365 l 836 669 m 1035 296 l 1035 406 l 367 406 l 367 296 l 1035 296 z "},"↕":{"ha":719,"x_min":43,"x_max":674,"o":"m 43 296 l 332 8 q 362 -6 344 -6 q 393 8 379 -6 l 674 293 l 596 376 l 351 111 l 369 111 l 122 379 l 43 296 m 410 103 l 410 713 l 307 713 l 307 103 l 410 103 m 43 692 l 122 608 l 369 876 l 351 876 l 596 611 l 674 694 l 393 979 q 362 993 379 993 q 332 979 344 993 l 43 692 m 410 885 l 307 885 l 307 274 l 410 274 l 410 885 z "},"↖":{"ha":735,"x_min":75,"x_max":701,"o":"m 75 215 l 185 215 l 171 579 l 157 567 l 518 549 l 519 668 l 121 671 q 90 657 103 671 q 76 624 76 643 l 75 215 m 121 538 l 629 33 l 701 111 l 193 615 l 121 538 z "},"↗":{"ha":735,"x_min":33,"x_max":660,"o":"m 660 215 l 658 624 q 646 657 658 643 q 614 671 633 671 l 215 668 l 217 549 l 576 567 l 564 579 l 549 215 l 660 215 m 614 538 l 542 615 l 33 111 l 104 33 l 614 538 z "},"↘":{"ha":736,"x_min":35,"x_max":661,"o":"m 661 521 l 551 521 l 565 157 l 579 169 l 218 188 l 217 68 l 617 65 q 648 79 636 65 q 660 113 660 93 l 661 521 m 615 199 l 107 703 l 35 625 l 543 121 l 615 199 z "},"↙":{"ha":736,"x_min":75,"x_max":701,"o":"m 75 521 l 76 113 q 90 79 76 93 q 121 65 103 65 l 519 68 l 518 188 l 158 169 l 171 157 l 186 521 l 75 521 m 121 199 l 193 121 l 701 625 l 629 703 l 121 199 z "},"℮":{"ha":1003,"x_min":83,"x_max":933,"o":"m 933 357 l 244 357 q 239 353 239 357 l 239 144 q 249 119 239 132 q 365 38 297 68 q 510 8 433 8 q 663 42 593 8 q 783 133 733 76 l 844 133 q 699 26 788 67 q 508 -15 611 -15 q 344 15 421 -15 q 208 97 267 44 q 117 218 150 149 q 83 367 83 288 q 117 516 83 446 q 208 639 150 586 q 344 722 267 692 q 508 751 421 751 q 673 722 596 751 q 808 639 750 692 q 900 516 867 586 q 933 367 933 446 l 933 357 m 778 383 l 778 593 q 767 619 778 608 q 652 699 718 669 q 510 728 586 728 q 366 698 433 728 q 250 615 299 668 q 239 589 239 607 l 239 383 q 244 378 239 378 l 774 378 q 778 383 778 378 z "}}}
